<?xml version="1.0" encoding="utf-8"?>
<!-- Generator: Adobe Illustrator 13.0.0, SVG Export Plug-In . SVG Version: 6.00 Build 14948)  -->
<!DOCTYPE svg PUBLIC "-//W3C//DTD SVG 1.1//EN" "http://www.w3.org/Graphics/SVG/1.1/DTD/svg11.dtd">
<svg version="1.1" id="Layer_1" xmlns="http://www.w3.org/2000/svg" xmlns:xlink="http://www.w3.org/1999/xlink" x="0px" y="0px"
	 width="300px" height="300px" viewBox="0 0 300 300" enable-background="new 0 0 300 300" xml:space="preserve">
<rect id="_529407912" x="29.582" y="29.449" display="none" fill="none" width="241.918" height="241.918"/>
<g id="_529405944" display="none">
	<polygon id="_529407552" display="inline" fill="#EF5350" points="143.299,64.686 143.299,35.78 143.299,29.449 149.089,32.025 
		167.671,40.282 174.525,43.328 168.302,47.474 151.56,58.637 151.56,64.686 	"/>
	<polygon id="_529407432" display="inline" fill="#FBC02D" points="46.21,74.627 254.869,74.627 254.869,271.367 46.21,271.367 	"/>
	<polygon id="_529407120" display="inline" fill="#FFFDE7" points="64.882,104.436 93.115,104.436 93.115,133.531 64.882,133.531 	
		"/>
	<polygon id="_529407000" display="inline" fill="#FFFDE7" points="112.578,104.436 140.808,104.436 140.808,133.531 
		112.578,133.531 	"/>
	<polygon id="_529406952" display="inline" fill="#FFFDE7" points="160.274,104.436 188.504,104.436 188.504,133.531 
		160.274,133.531 	"/>
	<polygon id="_529406304" display="inline" fill="#FFFDE7" points="207.967,104.436 236.197,104.436 236.197,133.531 
		207.967,133.531 	"/>
	<polygon id="_529406616" display="inline" fill="#FFFDE7" points="64.882,162.413 93.115,162.413 93.115,191.507 64.882,191.507 	
		"/>
	<polygon id="_529406424" display="inline" fill="#FFFDE7" points="112.578,162.413 140.808,162.413 140.808,191.507 
		112.578,191.507 	"/>
	<polygon id="_529406400" display="inline" fill="#FFFDE7" points="160.274,162.413 188.504,162.413 188.504,191.507 
		160.274,191.507 	"/>
	<polygon id="_529406856" display="inline" fill="#FFFDE7" points="207.967,162.413 236.197,162.413 236.197,191.507 
		207.967,191.507 	"/>
	<polygon id="_529405632" display="inline" fill="#FFFDE7" points="207.967,220.389 236.197,220.389 236.197,249.484 
		207.967,249.484 	"/>
	<polygon id="_529405752" display="inline" fill="#FFFDE7" points="64.882,220.389 93.115,220.389 93.115,249.484 64.882,249.484 	
		"/>
	<polygon id="_529406088" display="inline" fill="#1B998B" points="123.712,271.362 123.712,217.705 177.369,217.705 
		177.369,271.362 165.446,271.362 135.636,271.362 	"/>
	<rect id="_529405728" x="76.019" y="62.118" display="inline" fill="#1B998B" width="149.044" height="12.509"/>
</g>
<polyline display="none" fill="none" points="138.586,74.788 138.586,37.596 162.497,48.224 138.586,64.161 "/>
<g>
	<path fill="#1B998B" d="M90.399,125.817c7.171,0,14.146,1.18,20.926,3.541c6.772,2.361,12.741,5.925,17.906,10.691
		c5.156,4.771,9.313,10.693,12.464,17.777c3.146,7.083,4.722,15.345,4.722,24.789c0,8.834-1.619,17.117-4.856,24.858
		c-3.237,7.741-7.785,14.492-13.643,20.266c-5.857,5.773-12.92,10.321-21.18,13.643c-8.263,3.323-17.381,4.984-27.349,4.984
		c-10.146,0-19.238-1.618-27.286-4.854c-8.047-3.233-14.912-7.761-20.595-13.575c-5.683-5.817-10.033-12.81-13.049-20.987
		c-3.019-8.18-4.527-17.251-4.527-27.223c0-8.917,1.811-18.079,5.438-27.48c3.633-9.397,9.252-19.174,16.857-29.317l45.254-60.734
		c1.578-2.099,3.875-3.893,6.892-5.38c3.016-1.485,6.492-2.23,10.428-2.23h28.857l-56.271,68.869
		c-1.229,1.491-2.388,2.887-3.476,4.198c-1.095,1.31-2.167,2.669-3.214,4.064c3.671-1.834,7.631-3.278,11.87-4.326
		C80.803,126.345,85.415,125.817,90.399,125.817z M45.014,184.718c0,5.246,0.722,10.031,2.163,14.361
		c1.444,4.329,3.586,8.021,6.428,11.083c2.841,3.063,6.364,5.444,10.563,7.147c4.195,1.706,9.048,2.56,14.557,2.56
		c5.159,0,9.904-0.873,14.234-2.626c4.329-1.747,8.044-4.195,11.15-7.346c3.101-3.15,5.526-6.842,7.278-11.084
		c1.747-4.241,2.62-8.855,2.62-13.84c0-5.419-0.827-10.298-2.492-14.627c-1.66-4.33-4.024-8.001-7.081-11.017
		c-3.06-3.019-6.737-5.313-11.017-6.888c-4.289-1.572-9.011-2.361-14.17-2.361c-5.159,0-9.837,0.873-14.033,2.622
		c-4.198,1.75-7.805,4.179-10.827,7.281c-3.017,3.104-5.333,6.777-6.953,11.018C45.82,175.253,45.014,179.82,45.014,184.718z"/>
	<path fill="#1B998B" d="M284.403,68.364c0,4.638-1.464,8.394-4.394,11.282c-2.931,2.885-7.805,4.329-14.626,4.329h-52.206
		l-6.822,39.612c8.568-1.746,16.396-2.623,23.48-2.623c9.969,0,18.734,1.488,26.302,4.46c7.561,2.976,13.925,7.083,19.081,12.332
		c5.158,5.247,9.051,11.389,11.674,18.429c2.627,7.04,3.937,14.627,3.937,22.761c0,10.06-1.77,19.241-5.314,27.546
		c-3.542,8.308-8.46,15.412-14.754,21.313c-6.297,5.902-13.75,10.476-22.364,13.71c-8.615,3.234-17.995,4.854-28.136,4.854
		c-5.948,0-11.591-0.615-16.925-1.834c-5.333-1.223-10.344-2.862-15.017-4.917c-4.682-2.056-9.008-4.416-12.984-7.087
		c-3.983-2.666-7.547-5.485-10.691-8.461l9.97-13.773c2.096-2.969,4.9-4.457,8.394-4.457c2.187,0,4.393,0.699,6.622,2.096
		c2.23,1.4,4.834,2.93,7.81,4.592c2.969,1.662,6.426,3.194,10.358,4.592c3.936,1.4,8.706,2.099,14.304,2.099
		c5.941,0,11.191-0.961,15.736-2.888c4.547-1.922,8.333-4.612,11.351-8.067c3.016-3.45,5.287-7.562,6.82-12.33
		c1.53-4.767,2.296-9.948,2.296-15.544c0-10.317-2.996-18.385-8.985-24.202c-5.991-5.814-14.804-8.722-26.433-8.722
		c-9.182,0-18.408,1.663-27.675,4.984l-20.202-5.773l15.742-92.087h93.656v13.777H284.403z"/>
</g>
</svg>
