<?xml version="1.0" encoding="utf-8"?>
<!-- Generator: Adobe Illustrator 13.0.0, SVG Export Plug-In . SVG Version: 6.00 Build 14948)  -->
<!DOCTYPE svg PUBLIC "-//W3C//DTD SVG 1.1//EN" "http://www.w3.org/Graphics/SVG/1.1/DTD/svg11.dtd">
<svg version="1.1" id="Layer_1" xmlns="http://www.w3.org/2000/svg" xmlns:xlink="http://www.w3.org/1999/xlink" x="0px" y="0px"
	 width="300px" height="300px" viewBox="0 0 300 300" enable-background="new 0 0 300 300" xml:space="preserve">
<rect id="_529407912" x="29.582" y="29.449" display="none" fill="none" width="241.918" height="241.918"/>
<g id="_529405944" display="none">
	<polygon id="_529407552" display="inline" fill="#EF5350" points="143.299,64.686 143.299,35.78 143.299,29.449 149.089,32.025 
		167.671,40.282 174.525,43.328 168.302,47.474 151.56,58.637 151.56,64.686 	"/>
	<polygon id="_529407432" display="inline" fill="#FBC02D" points="46.21,74.627 254.869,74.627 254.869,271.367 46.21,271.367 	"/>
	<polygon id="_529407120" display="inline" fill="#FFFDE7" points="64.882,104.436 93.115,104.436 93.115,133.531 64.882,133.531 	
		"/>
	<polygon id="_529407000" display="inline" fill="#FFFDE7" points="112.578,104.436 140.808,104.436 140.808,133.531 
		112.578,133.531 	"/>
	<polygon id="_529406952" display="inline" fill="#FFFDE7" points="160.274,104.436 188.504,104.436 188.504,133.531 
		160.274,133.531 	"/>
	<polygon id="_529406304" display="inline" fill="#FFFDE7" points="207.967,104.436 236.197,104.436 236.197,133.531 
		207.967,133.531 	"/>
	<polygon id="_529406616" display="inline" fill="#FFFDE7" points="64.882,162.413 93.115,162.413 93.115,191.507 64.882,191.507 	
		"/>
	<polygon id="_529406424" display="inline" fill="#FFFDE7" points="112.578,162.413 140.808,162.413 140.808,191.507 
		112.578,191.507 	"/>
	<polygon id="_529406400" display="inline" fill="#FFFDE7" points="160.274,162.413 188.504,162.413 188.504,191.507 
		160.274,191.507 	"/>
	<polygon id="_529406856" display="inline" fill="#FFFDE7" points="207.967,162.413 236.197,162.413 236.197,191.507 
		207.967,191.507 	"/>
	<polygon id="_529405632" display="inline" fill="#FFFDE7" points="207.967,220.389 236.197,220.389 236.197,249.484 
		207.967,249.484 	"/>
	<polygon id="_529405752" display="inline" fill="#FFFDE7" points="64.882,220.389 93.115,220.389 93.115,249.484 64.882,249.484 	
		"/>
	<polygon id="_529406088" display="inline" fill="#1B998B" points="123.712,271.362 123.712,217.705 177.369,217.705 
		177.369,271.362 165.446,271.362 135.636,271.362 	"/>
	<rect id="_529405728" x="76.019" y="62.118" display="inline" fill="#1B998B" width="149.044" height="12.509"/>
</g>
<polyline display="none" fill="none" points="138.586,74.788 138.586,37.596 162.497,48.224 138.586,64.161 "/>
<g display="none">
	<path display="inline" fill="#1B998B" d="M90.399,125.817c7.171,0,14.146,1.18,20.926,3.541
		c6.772,2.361,12.741,5.925,17.906,10.691c5.156,4.771,9.313,10.693,12.464,17.777c3.146,7.083,4.722,15.345,4.722,24.789
		c0,8.834-1.619,17.117-4.856,24.858c-3.237,7.741-7.785,14.492-13.643,20.266c-5.857,5.773-12.92,10.321-21.18,13.643
		c-8.263,3.323-17.381,4.984-27.349,4.984c-10.146,0-19.238-1.618-27.286-4.854c-8.047-3.233-14.912-7.761-20.595-13.575
		c-5.683-5.817-10.033-12.81-13.049-20.987c-3.019-8.18-4.527-17.251-4.527-27.223c0-8.917,1.811-18.079,5.438-27.48
		c3.633-9.397,9.252-19.174,16.857-29.317l45.254-60.734c1.578-2.099,3.875-3.893,6.892-5.38c3.016-1.485,6.492-2.23,10.428-2.23
		h28.857l-56.271,68.869c-1.229,1.491-2.388,2.887-3.476,4.198c-1.095,1.31-2.167,2.669-3.214,4.064
		c3.671-1.834,7.631-3.278,11.87-4.326C80.803,126.345,85.415,125.817,90.399,125.817z M45.014,184.718
		c0,5.246,0.722,10.031,2.163,14.361c1.444,4.329,3.586,8.021,6.428,11.083c2.841,3.063,6.364,5.444,10.563,7.147
		c4.195,1.706,9.048,2.56,14.557,2.56c5.159,0,9.904-0.873,14.234-2.626c4.329-1.747,8.044-4.195,11.15-7.346
		c3.101-3.15,5.526-6.842,7.278-11.084c1.747-4.241,2.62-8.855,2.62-13.84c0-5.419-0.827-10.298-2.492-14.627
		c-1.66-4.33-4.024-8.001-7.081-11.017c-3.06-3.019-6.737-5.313-11.017-6.888c-4.289-1.572-9.011-2.361-14.17-2.361
		c-5.159,0-9.837,0.873-14.033,2.622c-4.198,1.75-7.805,4.179-10.827,7.281c-3.017,3.104-5.333,6.777-6.953,11.018
		C45.82,175.253,45.014,179.82,45.014,184.718z"/>
	<path display="inline" fill="#1B998B" d="M284.403,68.364c0,4.638-1.464,8.394-4.394,11.282c-2.931,2.885-7.805,4.329-14.626,4.329
		h-52.206l-6.822,39.612c8.568-1.746,16.396-2.623,23.48-2.623c9.969,0,18.734,1.488,26.302,4.46
		c7.561,2.976,13.925,7.083,19.081,12.332c5.158,5.247,9.051,11.389,11.674,18.429c2.627,7.04,3.937,14.627,3.937,22.761
		c0,10.06-1.77,19.241-5.314,27.546c-3.542,8.308-8.46,15.412-14.754,21.313c-6.297,5.902-13.75,10.476-22.364,13.71
		c-8.615,3.234-17.995,4.854-28.136,4.854c-5.948,0-11.591-0.615-16.925-1.834c-5.333-1.223-10.344-2.862-15.017-4.917
		c-4.682-2.056-9.008-4.416-12.984-7.087c-3.983-2.666-7.547-5.485-10.691-8.461l9.97-13.773c2.096-2.969,4.9-4.457,8.394-4.457
		c2.187,0,4.393,0.699,6.622,2.096c2.23,1.4,4.834,2.93,7.81,4.592c2.969,1.662,6.426,3.194,10.358,4.592
		c3.936,1.4,8.706,2.099,14.304,2.099c5.941,0,11.191-0.961,15.736-2.888c4.547-1.922,8.333-4.612,11.351-8.067
		c3.016-3.45,5.287-7.562,6.82-12.33c1.53-4.767,2.296-9.948,2.296-15.544c0-10.317-2.996-18.385-8.985-24.202
		c-5.991-5.814-14.804-8.722-26.433-8.722c-9.182,0-18.408,1.663-27.675,4.984l-20.202-5.773l15.742-92.087h93.656v13.777H284.403z"
		/>
</g>
<g id="icons_without_caption">
	<g id="BALANCE">
		<path fill="#B5B5B5" d="M166.359,35.59h-30.928v62.833l0,0v140.462h30.915V98.423l0,0L166.359,35.59z M160.786,233.314h-19.782
			V98.426l0,0V84.367c-0.673-0.732-1.264-1.536-1.757-2.391c-2.693-4.702-2.285-10.559,1.029-14.838
			c0.224-0.302,0.467-0.6,0.728-0.877V41.186h19.782v25.075c0.256,0.28,0.496,0.575,0.722,0.877
			c3.317,4.279,3.725,10.139,1.032,14.838c-0.493,0.858-1.084,1.661-1.754,2.391v14.059l0,0V233.314z"/>
		<path fill="#B5B5B5" d="M262.209,109.194c-8.566-13.334-34.382-43.037-95.85-47.368l-2.27-0.152l-3.304-0.169
			c-3.2-0.142-6.502-0.21-9.894-0.21c-3.396,0-6.687,0-9.888,0.21l-3.307,0.169l-2.267,0.152
			c-61.482,4.334-87.286,34.034-95.853,47.368c-1.907,3.051-1.506,7.006,0.978,9.613c1.098,1.13,2.602,1.79,4.178,1.823h0.18
			c0.381-0.003,0.765-0.039,1.142-0.112c1.032-0.209,1.996-0.691,2.786-1.395l0.948-0.807
			c12.831-10.808,39.678-27.417,85.655-30.536h1.1c1.463-0.098,2.953-0.183,4.476-0.237l3.953-0.139
			c-1.49-0.738-2.83-1.744-3.953-2.969c-0.672-0.73-1.264-1.534-1.757-2.397l-3.816,0.223l-2.16,0.158
			c-47.663,3.622-75.235,21.465-88.092,32.574c-0.055,0.043-0.117,0.079-0.177,0.108c-0.049,0.014-0.099,0.014-0.139,0
			c-0.265-0.059-0.482-0.223-0.603-0.46c-0.212-0.368-0.322-0.784-0.305-1.212c-0.011-0.419,0.098-0.833,0.305-1.198
			c7.995-12.44,31.975-39.939,89.304-44.581l1.869-0.156c1.589-0.111,3.204-0.204,4.849-0.277c0.226-0.306,0.469-0.6,0.725-0.88
			c5.015-5.462,13.512-5.824,18.975-0.807c0.283,0.262,0.552,0.528,0.808,0.807c0.259,0.283,0.498,0.574,0.725,0.88
			c1.645,0,3.261,0.166,4.849,0.277l1.865,0.156c57.33,4.696,81.311,32.198,89.308,44.581c0.206,0.365,0.313,0.777,0.306,1.198
			c0.049,0.564-0.171,1.12-0.586,1.504c-0.081,0.096-0.199,0.159-0.322,0.168c-0.12-0.019-0.229-0.07-0.315-0.152l-0.893-0.765
			c-13.192-11.144-40.61-28.268-87.203-31.807l-2.156-0.155L162.563,82c-0.493,0.864-1.084,1.667-1.755,2.397
			c-1.122,1.223-2.463,2.234-3.955,2.964l3.955,0.138c1.521,0,3.008,0.139,4.474,0.238h1.103
			c47.036,3.195,74.048,20.498,86.521,31.283h0.081c1.097,0.975,2.504,1.517,3.972,1.517h0.226c0.468-0.013,0.941-0.082,1.388-0.223
			c1.412-0.42,2.631-1.308,3.471-2.51c0.915-1.318,1.399-2.89,1.392-4.497C263.42,111.847,263,110.419,262.209,109.194z"/>
		<path fill="#1B998B" d="M79.449,169.531L79.449,169.531L48.802,116.47l-0.613,0.349l0,0l-3.095-1.787l-0.738-0.414l-0.962-0.559
			l-2.787,4.75l-29.409,50.726l-2.789,2.788c-0.014,6.488,1.697,12.865,4.963,18.472c10.248,17.638,32.85,23.622,50.49,13.375
			c11.368-6.605,18.366-18.754,18.374-31.901L79.449,169.531z M45.304,121.719L45.304,121.719l27.668,47.813H17.633L45.304,121.719z
			 M45.304,203.666c-11.19-0.019-21.533-5.984-27.15-15.657l-0.114-0.17c-2.248-3.893-3.584-8.239-3.911-12.722h62.415
			C75.08,191.281,61.531,203.66,45.304,203.666L45.304,203.666z"/>
		<path fill="#EEC634" d="M291.926,169.531L291.926,169.531l-30.647-53.062l-0.613,0.349l0,0l-3.313-1.913l-1.479-0.85v0.095
			l-2.786,4.906l-29.26,50.474l-2.781,2.789c0.559,20.394,17.54,36.463,37.936,35.905c19.6-0.539,35.366-16.303,35.905-35.905
			L291.926,169.531z M257.781,121.719L257.781,121.719l27.67,47.813h-55.338L257.781,121.719z M257.781,203.666
			c-16.243,0.033-29.809-12.378-31.218-28.562h62.455C287.554,191.271,274.012,203.655,257.781,203.666z"/>
		<path fill="#B5B5B5" d="M168.27,67.565c-0.518-1.141-1.139-2.229-1.869-3.247c-0.676-0.948-1.436-1.833-2.27-2.645
			c-7.362-7.105-19.024-7.105-26.384,0c-0.834,0.812-1.597,1.697-2.275,2.645c-0.725,1.018-1.348,2.106-1.866,3.247
			c-1.092,2.436-1.656,5.075-1.656,7.745c0,2.414,0.477,4.806,1.393,7.033c0.533,1.4,1.233,2.729,2.091,3.958
			c0.338,0.482,0.706,0.951,1.1,1.392c6.824,7.933,18.789,8.834,26.72,2.007c0.722-0.618,1.39-1.285,2.008-2.007
			c0.396-0.441,0.761-0.91,1.104-1.392c0.88-1.229,1.607-2.563,2.157-3.97c0.918-2.233,1.391-4.625,1.395-7.039
			C169.913,72.632,169.356,69.998,168.27,67.565z M162.584,81.973c-0.498,0.858-1.083,1.662-1.757,2.392
			c-5.004,5.461-13.492,5.837-18.957,0.828c-0.286-0.264-0.563-0.54-0.826-0.828c-0.67-0.732-1.261-1.537-1.754-2.392
			c-2.694-4.702-2.285-10.559,1.029-14.837c0.227-0.303,0.466-0.6,0.725-0.877c5.016-5.462,13.512-5.827,18.976-0.809
			c0.281,0.259,0.551,0.526,0.807,0.809c0.256,0.28,0.498,0.575,0.725,0.877C164.866,71.414,165.272,77.273,162.584,81.973
			L162.584,81.973z"/>
		<polygon fill="#B5B5B5" points="163.572,233.314 163.572,238.888 229.389,238.888 229.389,256.831 73.697,256.831 73.697,238.888 
			138.215,238.888 138.215,233.314 68.123,233.314 68.123,262.404 234.958,262.404 234.958,233.314 		"/>
	</g>
</g>
</svg>
