<?xml version="1.0" encoding="utf-8"?>
<!-- Generator: Adobe Illustrator 13.0.0, SVG Export Plug-In . SVG Version: 6.00 Build 14948)  -->
<!DOCTYPE svg PUBLIC "-//W3C//DTD SVG 1.1//EN" "http://www.w3.org/Graphics/SVG/1.1/DTD/svg11.dtd">
<svg version="1.1" id="Layer_1" xmlns="http://www.w3.org/2000/svg" xmlns:xlink="http://www.w3.org/1999/xlink" x="0px" y="0px"
	 width="300px" height="300px" viewBox="800 197.5 300 300" enable-background="new 800 197.5 300 300" xml:space="preserve">
<title></title>
<path fill="#EEC643" d="M969.759,416.628v23.052h29.638v-23.052H969.759z M992.811,433.094h-16.466v-9.88h16.466V433.094z"/>
<path fill="#19647E" d="M972.821,228.198c-1.721-13.513-14.07-23.073-27.584-21.352c-11.15,1.42-19.931,10.2-21.352,21.352
	c-35.173,1.637-62.837,30.65-62.799,65.861v150.396c0.018,24.181,19.617,43.779,43.798,43.798h87.102
	c24.182-0.018,43.78-19.616,43.799-43.798V293.796C1035.679,258.626,1007.958,229.746,972.821,228.198z M948.354,213.281
	c8.722,0.013,16.197,6.242,17.783,14.819h-35.565C932.157,219.522,939.631,213.293,948.354,213.281z M1005.982,456.145H890.725
	v-65.038h5.763v9.057h6.586v-9.057h102.908V456.145L1005.982,456.145z M1005.982,384.521H890.725v-6.586h115.257V384.521z
	 M1029.034,414.817c-0.005,9.389-7.122,17.247-16.466,18.177v-69.878h-128.43v69.978c-9.343-0.931-16.461-8.789-16.465-18.178
	V294.027c0-32.737,26.539-59.275,59.276-59.275h42.975c32.736,0,59.275,26.539,59.275,59.275l0,0L1029.034,414.817z"/>
<path fill="#EEC643" d="M914.929,287.375v40.34h68.497v-40.34H914.929z M976.839,321.129h-55.324v-27.168h55.324V321.129z"/>
<path fill="#EEC643" d="M893.194,327.715c-0.43-0.005-0.855-0.095-1.251-0.263c-0.399-0.168-0.766-0.401-1.086-0.691
	c-1.292-1.281-1.3-3.366-0.02-4.657c0.006-0.007,0.013-0.013,0.02-0.02c0.313-0.3,0.682-0.535,1.086-0.691
	c0.795-0.36,1.708-0.36,2.503,0c0.406,0.152,0.777,0.387,1.086,0.691c1.292,1.281,1.3,3.366,0.02,4.657
	C894.929,327.369,894.079,327.72,893.194,327.715z"/>
<path fill="#EEC643" d="M972.229,347.473c-0.872-0.012-1.708-0.354-2.338-0.955c-0.291-0.32-0.525-0.688-0.692-1.086
	c-0.186-0.39-0.275-0.819-0.263-1.251c-0.006-0.875,0.338-1.716,0.955-2.337c0.313-0.3,0.682-0.535,1.086-0.691
	c0.802-0.33,1.701-0.33,2.503,0c0.399,0.167,0.767,0.4,1.087,0.691c0.602,0.631,0.942,1.466,0.955,2.337
	c-0.006,0.43-0.095,0.856-0.264,1.251c-0.167,0.399-0.4,0.767-0.691,1.086C973.936,347.12,973.101,347.461,972.229,347.473z"/>
<path fill="#EEC643" d="M932.712,357.353c-1.819,0-3.293-1.474-3.293-3.293c-0.01-1.818,1.455-3.302,3.274-3.312
	c0.885-0.006,1.734,0.346,2.358,0.974c0.29,0.321,0.524,0.688,0.691,1.087c0.515,1.227,0.243,2.643-0.691,3.589
	c-0.321,0.291-0.688,0.524-1.087,0.692C933.567,357.258,933.142,357.348,932.712,357.353z"/>
<path fill="#EEC643" d="M1008.452,314.542c-1.818,0.01-3.302-1.455-3.312-3.274c-0.006-0.885,0.346-1.734,0.975-2.357
	c0.778-0.771,1.889-1.104,2.964-0.89c0.218,0.032,0.429,0.098,0.625,0.198c0.202,0.066,0.392,0.166,0.561,0.296l0.526,0.395
	c1.291,1.281,1.3,3.366,0.02,4.657c-0.007,0.006-0.013,0.013-0.02,0.019l-0.526,0.395c-0.168,0.13-0.358,0.231-0.561,0.296
	c-0.196,0.099-0.408,0.166-0.625,0.197L1008.452,314.542z"/>
<path fill="#EEC643" d="M988.694,281.612c-1.819,0-3.293-1.475-3.293-3.293c0.005-0.43,0.095-0.855,0.263-1.251
	c0.167-0.399,0.401-0.767,0.692-1.087c1.28-1.291,3.366-1.3,4.656-0.019c0.007,0.006,0.013,0.013,0.02,0.019
	c0.291,0.32,0.524,0.688,0.691,1.087c0.169,0.396,0.258,0.821,0.264,1.251C991.987,280.137,990.513,281.612,988.694,281.612z"/>
<path fill="#EEC643" d="M959.057,251.974c-0.872-0.013-1.707-0.354-2.338-0.955c-0.617-0.622-0.961-1.463-0.955-2.338
	c0.005-0.431,0.094-0.856,0.263-1.251c0.15-0.407,0.387-0.778,0.692-1.086c1.28-1.292,3.365-1.3,4.656-0.019
	c0.007,0.006,0.014,0.012,0.02,0.019c0.3,0.313,0.534,0.682,0.691,1.086c0.168,0.396,0.258,0.821,0.264,1.251
	c0.005,0.875-0.339,1.716-0.955,2.338C960.764,251.621,959.928,251.961,959.057,251.974z"/>
<path fill="#EEC643" d="M876.729,410.042c-0.875,0.005-1.716-0.339-2.337-0.955c-0.291-0.32-0.524-0.688-0.692-1.087
	c-0.169-0.396-0.258-0.821-0.263-1.252c-0.011-1.818,1.454-3.302,3.273-3.312c0.885-0.006,1.734,0.346,2.358,0.974
	c0.617,0.622,0.959,1.464,0.955,2.339c-0.005,0.43-0.095,0.855-0.264,1.252c-0.168,0.398-0.402,0.766-0.691,1.086
	C878.446,409.703,877.604,410.047,876.729,410.042z"/>
<path fill="#EEC643" d="M906.367,271.732c-0.432,0.011-0.861-0.079-1.252-0.264c-0.404-0.156-0.773-0.392-1.086-0.691
	c-0.602-0.631-0.943-1.466-0.955-2.338c0.005-0.43,0.094-0.855,0.263-1.251c0.304-0.825,0.954-1.475,1.778-1.778
	c1.227-0.516,2.643-0.243,3.589,0.691c1.292,1.281,1.3,3.366,0.019,4.657C908.102,271.387,907.252,271.738,906.367,271.732z"/>
<path fill="#EEC643" d="M1021.625,377.111c-0.876,0.005-1.717-0.339-2.339-0.955c-0.29-0.32-0.523-0.688-0.691-1.087
	c-0.168-0.396-0.258-0.821-0.264-1.252c0-1.818,1.474-3.292,3.293-3.292s3.293,1.474,3.293,3.292
	c-0.005,0.431-0.095,0.856-0.264,1.252c-0.168,0.399-0.401,0.767-0.691,1.087C1023.341,376.772,1022.5,377.116,1021.625,377.111z"/>
</svg>
