<?xml version="1.0" encoding="utf-8"?>
<!-- Generator: Adobe Illustrator 13.0.0, SVG Export Plug-In . SVG Version: 6.00 Build 14948)  -->
<!DOCTYPE svg PUBLIC "-//W3C//DTD SVG 1.1//EN" "http://www.w3.org/Graphics/SVG/1.1/DTD/svg11.dtd">
<svg version="1.1" id="Layer_1" xmlns="http://www.w3.org/2000/svg" xmlns:xlink="http://www.w3.org/1999/xlink" x="0px" y="0px"
	 width="491.52px" height="491.52px" viewBox="0 0 491.52 491.52" enable-background="new 0 0 491.52 491.52" xml:space="preserve">
<g id="Layer_x0020_1">
	<path fill="#19647E" d="M184.408,203.772c-4.241,0-7.68,3.438-7.68,7.68c0,4.242,3.439,7.681,7.68,7.681h171.5
		c4.241,0,7.68-3.439,7.68-7.681c0-4.241-3.438-7.68-7.68-7.68H184.408z M383.656,203.772c-4.241,0-7.681,3.438-7.681,7.68
		c0,4.242,3.438,7.681,7.681,7.681h31.063v49.141h-31.063c-4.241,0-7.681,3.438-7.681,7.681c0,4.239,3.438,7.68,7.681,7.68h38.743
		c4.24,0,7.681-3.438,7.681-7.68v-64.501c0-4.241-3.439-7.68-7.681-7.68L383.656,203.772L383.656,203.772z M355.906,283.633
		c4.24,0,7.68-3.439,7.68-7.681c0-4.242-3.438-7.681-7.68-7.681H184.407c-4.241,0-7.68,3.438-7.68,7.681
		c0,4.241,3.439,7.681,7.68,7.681H355.906z"/>
	<path fill="#EEC643" d="M69.12,203.772h115.288c4.242,0,7.68,3.438,7.68,7.68c0,1.399-0.375,2.711-1.028,3.841
		c-0.906,1.911-1.622,3.948-2.121,6.084c-0.512,2.19-0.783,4.5-0.783,6.899v30.852c0,2.399,0.271,4.71,0.783,6.899
		c0.539,2.303,1.328,4.49,2.336,6.529l0.017-0.011c1.88,3.804,0.323,8.409-3.479,10.289c-1.139,0.563-2.35,0.817-3.538,0.797H69.12
		c-4.242,0-7.68-3.438-7.68-7.68v-64.501C61.44,207.211,64.878,203.772,69.12,203.772L69.12,203.772z M173.728,219.133H76.8v49.141
		h96.928c-0.611-2.979-0.932-6.039-0.932-9.146v-30.852C172.796,225.17,173.117,222.111,173.728,219.133L173.728,219.133z"/>
	<path fill="#EEC643" d="M318.725,275.952c0-4.241-3.438-7.681-7.68-7.681s-7.681,3.438-7.681,7.681v13.696h-84.688
		c-8.385,0-16.014-3.438-21.549-8.973s-8.971-13.164-8.971-21.549v-30.852c0-8.385,3.436-16.013,8.971-21.548
		s13.164-8.972,21.549-8.972h84.688v13.696c0,4.242,3.438,7.68,7.681,7.68c4.241,0,7.68-3.438,7.68-7.68v-21.376
		c0-4.241-3.438-7.68-7.68-7.68h-92.369c-12.625,0-24.097,5.16-32.409,13.472s-13.471,19.784-13.471,32.409v30.852
		c0,12.624,5.159,24.097,13.471,32.409s19.784,13.471,32.409,13.471h92.369c4.241,0,7.68-3.438,7.68-7.68V275.952z"/>
	<circle fill="#19647E" cx="218.465" cy="245.766" r="11.44"/>
	<path fill="#19647E" d="M218.465,253.445c4.242,0,7.68-3.438,7.68-7.679c0-4.241-3.439-7.68-7.68-7.68h-59.438
		c-4.242,0-7.68,3.439-7.68,7.68c0,4.242,3.438,7.679,7.68,7.679H218.465z"/>
	<path fill="#19647E" d="M355.906,177.705h27.75c4.24,0,7.68,3.439,7.68,7.68v120.75c0,4.241-3.438,7.68-7.68,7.68h-27.75
		c-4.241,0-7.682-3.438-7.682-7.68v-120.75C348.226,181.144,351.665,177.705,355.906,177.705z M375.976,193.065h-12.39v105.389
		h12.39V193.065z"/>
	<circle fill="#19647E" cx="313.719" cy="245.766" r="11.44"/>
	<circle fill="#19647E" cx="108.924" cy="245.766" r="11.44"/>
</g>
</svg>
