<?xml version="1.0" encoding="utf-8"?>
<!-- Generator: Adobe Illustrator 13.0.0, SVG Export Plug-In . SVG Version: 6.00 Build 14948)  -->
<!DOCTYPE svg PUBLIC "-//W3C//DTD SVG 1.1//EN" "http://www.w3.org/Graphics/SVG/1.1/DTD/svg11.dtd">
<svg version="1.1" id="Layer_1_1_" xmlns="http://www.w3.org/2000/svg" xmlns:xlink="http://www.w3.org/1999/xlink" x="0px" y="0px"
	 width="300px" height="300px" viewBox="800 197.5 300 300" enable-background="new 800 197.5 300 300" xml:space="preserve">
<g>
	<g>
		<rect x="932.231" y="232.002" fill="#19647E" width="35.538" height="8.885"/>
	</g>
	<g>
		<path fill="#19647E" d="M989.98,400.807h-79.96c-7.552,0-13.327-5.774-13.327-13.326v-17.77c0-7.552,5.775-13.326,13.327-13.326
			h79.96c7.552,0,13.326,5.774,13.326,13.326v17.77C1003.307,395.032,997.532,400.807,989.98,400.807z M910.02,365.269
			c-2.665,0-4.442,1.777-4.442,4.442v17.77c0,2.665,1.777,4.441,4.442,4.441h79.96c2.665,0,4.441-1.776,4.441-4.441v-17.77
			c0-2.665-1.776-4.442-4.441-4.442H910.02z"/>
	</g>
	<g>
		<rect x="905.578" y="320.847" fill="#19647E" width="8.885" height="39.979"/>
	</g>
	<g>
		<rect x="985.538" y="320.847" fill="#19647E" width="8.884" height="39.979"/>
	</g>
	<g>
		<path fill="#19647E" d="M989.98,436.345h-79.96c-7.552,0-13.327-5.775-13.327-13.327v-17.77c0-7.552,5.775-13.326,13.327-13.326
			h79.96c7.552,0,13.326,5.774,13.326,13.326v17.77C1003.307,430.569,997.532,436.345,989.98,436.345z M910.02,400.807
			c-2.665,0-4.442,1.777-4.442,4.441v17.77c0,2.666,1.777,4.442,4.442,4.442h79.96c2.665,0,4.441-1.777,4.441-4.442v-17.77
			c0-2.664-1.776-4.441-4.441-4.441H910.02z"/>
	</g>
	<g>
		<path fill="#19647E" d="M976.653,485.208h-53.307c-15.548,0-26.653-11.104-26.653-26.652v-17.77
			c0-7.552,5.775-13.326,13.327-13.326h79.96c7.552,0,13.326,5.774,13.326,13.326v17.77
			C1003.307,474.104,992.201,485.208,976.653,485.208z M910.02,436.345c-2.665,0-4.442,1.776-4.442,4.441v17.77
			c0,10.661,7.108,17.769,17.769,17.769h53.307c10.661,0,17.769-7.107,17.769-17.769v-17.77c0-2.665-1.777-4.441-4.441-4.441H910.02
			z"/>
	</g>
	<g>
		<path fill="#19647E" d="M985.538,325.289h-71.076c-7.107,0-17.769-6.219-17.769-17.769v-13.327
			c0-15.104,10.217-29.318,19.989-35.093l11.106-7.552v-32.873c0-4.886,3.998-8.885,8.884-8.885h26.653
			c4.887,0,8.885,3.998,8.885,8.885v33.317l11.55,7.551c9.329,5.331,19.545,19.546,19.545,34.649v13.327
			C1003.307,319.069,992.646,325.289,985.538,325.289z M936.673,218.675v37.759l-15.104,10.217
			c-7.552,4.442-15.992,15.992-15.992,27.542v13.327c0,6.219,6.219,8.884,8.885,8.884h71.076c2.665,0,8.884-2.666,8.884-8.884
			v-13.327c0-11.55-7.996-23.1-15.547-27.098l-15.549-10.662v-37.758H936.673z"/>
	</g>
	<g>
		<path fill="#EEC643" d="M918.904,294.193h-8.885c0-8.44,3.998-16.436,10.662-21.323c3.998-3.11,13.327-8.884,13.327-8.884
			l4.886,7.552c0,0-9.329,5.775-13.326,8.884C921.57,283.087,918.904,288.418,918.904,294.193z"/>
	</g>
	<g>
		<rect x="910.02" y="298.635" fill="#EEC643" width="8.885" height="8.885"/>
	</g>
</g>
</svg>
