<?xml version="1.0" encoding="utf-8"?>
<!-- Generator: Adobe Illustrator 13.0.0, SVG Export Plug-In . SVG Version: 6.00 Build 14948)  -->
<!DOCTYPE svg PUBLIC "-//W3C//DTD SVG 1.1//EN" "http://www.w3.org/Graphics/SVG/1.1/DTD/svg11.dtd">
<svg version="1.1" id="Layer_1" xmlns="http://www.w3.org/2000/svg" xmlns:xlink="http://www.w3.org/1999/xlink" x="0px" y="0px"
	 width="491.52px" height="491.52px" viewBox="0 0 491.52 491.52" enable-background="new 0 0 491.52 491.52" xml:space="preserve">
<g id="Layer_x0020_1">
	<g id="_525090992">
		<path id="_525091280" fill="#19647E" d="M210.743,207.904h70.035c4.25,0,7.696,3.446,7.696,7.696v60.333
			c0,4.25-3.446,7.696-7.696,7.696h-70.035c-4.25,0-7.696-3.446-7.696-7.696v-60.333
			C203.046,211.35,206.492,207.904,210.743,207.904z M273.081,223.297h-54.643v44.94h54.643V223.297z"/>
		<path id="_525090872" fill="#19647E" d="M276.172,209.509c1.176-1.016,2.533-2.273,4.281-3.891
			c21.981-20.351,94.892-87.854,134.994-48.92l0.016-0.016c0.975,0.947,1.645,2.089,2.008,3.304
			c8.405,23.088,12.609,54.502,12.609,85.781c0,31.471-4.255,63.083-12.765,86.209l-7.215-2.646l7.223,2.657
			c-0.515,1.399-1.393,2.559-2.488,3.411c-40.227,37.677-112.511-29.233-134.382-49.483c-1.927-1.783-3.38-3.129-4.637-4.195
			l4.961-5.863l-4.98,5.868c-1.793-1.521-2.715-3.688-2.716-5.868h-0.001v-60.181C273.08,213.153,274.295,210.913,276.172,209.509
			L276.172,209.509z M290.855,216.862c-0.878,0.812-1.68,1.554-2.383,2.202v53.407c0.703,0.648,1.505,1.391,2.383,2.203
			c19.24,17.813,82.448,76.328,112.649,50.287c7.454-21.239,11.183-50.15,11.183-79.193c0-29.043-3.729-57.954-11.183-79.193
			C373.304,140.533,310.096,199.048,290.855,216.862L290.855,216.862z"/>
		<path id="_525091040" fill="#19647E" d="M215.347,209.509c-1.175-1.016-2.533-2.273-4.281-3.891
			c-21.981-20.351-94.892-87.854-134.994-48.92l-0.015-0.016c-0.975,0.947-1.645,2.089-2.009,3.304
			c-8.405,23.088-12.609,54.502-12.609,85.781c0,31.471,4.255,63.083,12.765,86.209l7.215-2.646l-7.223,2.657
			c0.515,1.399,1.393,2.559,2.488,3.411c40.227,37.677,112.511-29.233,134.382-49.483c1.927-1.783,3.38-3.129,4.637-4.195
			l-4.96-5.863l4.98,5.868c1.793-1.521,2.715-3.688,2.716-5.868h0v-60.181C218.439,213.153,217.224,210.913,215.347,209.509
			L215.347,209.509z M200.665,216.862c0.877,0.812,1.678,1.554,2.382,2.202v53.407c-0.704,0.648-1.504,1.391-2.382,2.203
			c-19.241,17.813-82.449,76.328-112.65,50.287c-7.455-21.239-11.183-50.15-11.183-79.193c0-29.043,3.729-57.954,11.183-79.193
			C118.216,140.533,181.423,199.048,200.665,216.862L200.665,216.862z"/>
	</g>
</g>
</svg>
