<?xml version="1.0" encoding="utf-8"?>
<!-- Generator: Adobe Illustrator 13.0.0, SVG Export Plug-In . SVG Version: 6.00 Build 14948)  -->
<!DOCTYPE svg PUBLIC "-//W3C//DTD SVG 1.1//EN" "http://www.w3.org/Graphics/SVG/1.1/DTD/svg11.dtd">
<svg version="1.1" id="Layer_1" xmlns="http://www.w3.org/2000/svg" xmlns:xlink="http://www.w3.org/1999/xlink" x="0px" y="0px"
	 width="300px" height="300px" viewBox="0 0 300 300" enable-background="new 0 0 300 300" xml:space="preserve">
<g>
	<path fill="#EEC643" d="M273.02,188.984c-3.063,0.865-6.063,1.563-9.026,2.19l0,0c-10.472,2.224-20.445,3.138-30.17,3.687
		c-0.175,0.013-0.36,0.019-0.535,0.024c-3.112,0.181-6.2,0.323-9.265,0.454c-2.987,0.137-6,0.274-9.026,0.436
		c-0.199,0.014-0.41,0.025-0.608,0.039c-15.142,0.84-30.904,2.496-48.324,8.783c-12.713,4.178-26.657,6.264-42.171,6.264
		c-9.563,0-19.71-0.791-30.555-2.366c-19.137-2.776-37.49-5.527-72.528-23.744l-1.917,6.226
		c35.486,18.311,54.835,21.161,73.537,23.875c11.094,1.606,21.677,2.43,31.464,2.43c16.261,0,30.717-2.154,44.338-6.649
		c12.998-4.682,25.15-6.674,36.867-7.714v0.523v13.385c47.19-1.008,57.786-3.754,62.866-5.36c5.093-1.6,5.628-4.812,5.89-7.222
		C274.04,202.488,273.393,194.313,273.02,188.984z"/>
	<path fill="#19647E" d="M25.253,176.203c33.817,17.581,51.137,20.104,69.478,22.761c10.334,1.507,20.159,2.267,29.161,2.267
		c14.531,0,27.342-1.887,38.898-5.703c18.737-6.747,35.622-8.473,51-9.318l0.336-0.025l0.323-0.019l0.037-0.006
		c3.051-0.162,6.089-0.306,9.115-0.437c3.024-0.138,6.075-0.273,9.264-0.455l0.41-0.023c8.279-0.467,18.179-1.252,28.726-3.492
		c3.226-0.679,5.89-1.32,8.392-2.036l0.523-0.144c3.111-16.199-4.172-34.944-5.628-39.532c0,0,0.137-10.197-8.69-7.589
		c-3.412,0.604-13.037,3.511-22.773,6.12c-9.725,2.608-14.443,3.412-30.592,1.606c-16.149-1.805-14.344-7.925-26.994-14.35
		c-3.449-1.75-12.7-3.3-14.146-2.982c-2.864,0.635-4.433,2.154-5.118,2.982c-1.395,1.706-15.151,13.348-21.167,17.357
		c-6.026,4.015-10.135,6.424-17.357,10.235c-7.222,3.81-21.067,10.533-27.99,12.538c-6.923,2.011-13.784,2.708-30.095,3.25
		c-16.323,0.535-29.161,1.605-33.979,4.725c-0.909,0.592-1.544,1.195-2.055,1.793L25.253,176.203z M165.752,132.388
		c1.78,0,3.213,1.444,3.213,3.212c0,1.781-1.433,3.207-3.213,3.207c-1.768,0-3.212-1.426-3.212-3.207
		C162.54,133.832,163.984,132.388,165.752,132.388z M153.45,141.353c1.769,0,3.213,1.438,3.213,3.213
		c0,1.773-1.444,3.206-3.213,3.206s-3.212-1.433-3.212-3.206C150.238,142.791,151.684,141.353,153.45,141.353z M141.273,150.044
		c1.78,0,3.212,1.444,3.212,3.212c0,1.78-1.432,3.206-3.212,3.206c-1.769,0-3.213-1.426-3.213-3.206
		C138.061,151.488,139.505,150.044,141.273,150.044z"/>
</g>
</svg>
