<?xml version="1.0" encoding="utf-8"?>
<!-- Generator: Adobe Illustrator 13.0.0, SVG Export Plug-In . SVG Version: 6.00 Build 14948)  -->
<!DOCTYPE svg PUBLIC "-//W3C//DTD SVG 1.1//EN" "http://www.w3.org/Graphics/SVG/1.1/DTD/svg11.dtd">
<svg version="1.1" id="Layer_1" xmlns:sketch="http://www.bohemiancoding.com/sketch/ns"
	 xmlns="http://www.w3.org/2000/svg" xmlns:xlink="http://www.w3.org/1999/xlink" x="0px" y="0px" width="32px" height="32px"
	 viewBox="0 0 32 32" enable-background="new 0 0 32 32" xml:space="preserve">
<title></title>
<desc></desc>
<g id="Page-1-Copy">
	<g id="icon-48-sports-shoe">
		<path id="Rectangle-241" fill="#19647E" d="M14.074,12.53c-0.127,0.09-0.253,0.182-0.377,0.274l0,0l1.035,1.591l-0.838,0.545
			L12.9,13.415c-0.141,0.11-0.28,0.218-0.417,0.323l0.948,1.458l-0.838,0.545l-0.92-1.414l0,0c-0.152,0.102-0.301,0.195-0.447,0.278
			l0,0l0.905,1.391l-0.838,0.545l-1.018-1.565C10.183,14.992,10.091,15,10,15c-0.367,0-0.701,0-1,0l0,0v0.5
			c0,0.179,0.051,0.483,0.197,0.776C9.428,16.738,9.821,17,10.5,17H16c0.634,0,1.084,0.301,1.322,0.776
			c0.092,0.184,0.141,0.362,0.163,0.519c1.962-0.323,4.515-0.26,4.515-0.26h7.002c-0.034-1.412-0.148-3.315-0.488-4.787l-0.16,0.105
			c-0.092,0.091-0.258,0.241-0.497,0.43c-0.392,0.309-0.847,0.617-1.364,0.904C25.017,15.507,23.342,16,21.5,16
			c-2.901,0-4.793-1.576-5.839-3.557c-0.043-0.081-0.125-0.306-0.274-0.733l0,0c-0.162,0.085-0.321,0.175-0.478,0.27l1.004,1.543
			l-0.838,0.545L14.074,12.53z M8,15c-0.664,0-0.995,0-0.995,0C5.346,15,4,16.35,4,18.01c0,0.342,0.043,0.674,0.125,0.99l0,0h1.196
			H13c1.138,0,2.271-0.245,3.5-0.508c-0.002-0.057-0.021-0.168-0.072-0.269C16.354,18.074,16.241,18,16,18h-5.5
			c-1.071,0-1.803-0.488-2.197-1.276C8.074,16.267,8,15.821,8,15.5V15L8,15z M4.534,20c0.692,1.195,1.989,2,3.469,2h18.993
			c1.107,0,2.015-0.9,2.009-1.992c0,0,0.012-0.391,0.011-1.008H22c0,0-3,0-4.697,0.344C15.804,19.646,14.409,20,13,20H5.321H4.534
			L4.534,20z M16.305,11.306C16.843,11.115,17.407,11,18,11c1.5,0,1,1.972,4,1.972S24.721,11,27,11c0.534,0,0.928,0.495,1.219,1.253
			l-0.496,0.331c-0.141,0.127-0.279,0.251-0.485,0.414c-0.351,0.277-0.763,0.555-1.229,0.815C24.671,14.555,23.158,15,21.5,15
			c-2.459,0-4.063-1.337-4.955-3.024C16.536,11.959,16.432,11.671,16.305,11.306L16.305,11.306z"/>
	</g>
</g>
</svg>
