<?xml version="1.0" encoding="utf-8"?>
<!-- Generator: Adobe Illustrator 13.0.0, SVG Export Plug-In . SVG Version: 6.00 Build 14948)  -->
<!DOCTYPE svg PUBLIC "-//W3C//DTD SVG 1.1//EN" "http://www.w3.org/Graphics/SVG/1.1/DTD/svg11.dtd">
<svg version="1.1" id="Layer_1" xmlns="http://www.w3.org/2000/svg" xmlns:xlink="http://www.w3.org/1999/xlink" x="0px" y="0px"
	 width="300px" height="300px" viewBox="95.76 95.76 300 300" enable-background="new 95.76 95.76 300 300" xml:space="preserve">
<g id="Layer_x0020_1">
	<path fill="#9DD5C0" d="M174.631,251.207h-0.262C174.456,251.206,174.543,251.206,174.631,251.207z M266.098,257.034
		c-36.791-4.98-77.619-5.791-91.466-5.827c19.334,0.043,90.297,1.049,129.431,13.071c-0.875,0.269-1.765,0.548-2.667,0.839
		l-0.208-0.935l0.143-0.034l-0.002-0.006l0.288-0.062l0.382-0.09C291.546,261.065,279.1,258.794,266.098,257.034L266.098,257.034z
		 M322.901,260.711c-34.025-17.925-121.565-19.669-146.563-19.796c-3.479-0.018-5.747-0.004-6.49,0.002
		c-0.874-0.042-1.771,0.139-2.604,0.568L166,242.129l-38.271,19.824c-2.343,1.213-4.219,2.936-5.138,4.601
		c-0.752,1.364-1.042,2.823-0.787,4.307c0.317,1.843,1.323,3.343,3.12,4.348c1.45,0.813,3.523,1.205,6.276,0.909
		c1.731-0.186,3.719-0.461,5.955-0.771c21.504-2.973,67.655-9.349,98.863,39.303c0.389,0.739,0.963,1.395,1.707,1.892
		c2.375,1.583,5.584,0.941,7.167-1.434c7.742-11.613,18.571-20.432,29.898-27.078c13.966-8.195,28.71-13.122,39.503-15.931
		c2.726-0.709,5.198-1.283,7.344-1.741v-0.002c1.445-0.308,2.75-1.231,3.493-2.643c1.326-2.521,0.359-5.639-2.161-6.966
		C322.946,260.735,322.924,260.723,322.901,260.711L322.901,260.711z"/>
	<path fill="#333333" d="M207.145,188.272h120.92c12.114,0,22.276,2.017,29.679,7.582c7.705,5.793,12.066,14.966,12.066,28.993
		v41.348v5.406l-5.41-0.258c-1.467-0.069-2.933-0.144-4.397-0.216c-16.017-0.796-32.018-1.59-49.517,1.608
		c-1.152,0.241-2.341,0.496-3.555,0.758c-0.738,0.159-1.44,0.311-3.504,0.743l-2.24-10.055l0.143-0.033l-0.002-0.007l0.287-0.062
		l0.382-0.09c-10.451-2.926-22.897-5.197-35.9-6.957c-36.79-4.98-77.618-5.791-91.465-5.827h-0.263
		c-0.774-0.041-1.367-0.065-1.767-0.073c-0.443-0.007-0.855-0.004-1.231,0.012L166,251.371v-5.374v-20.705
		c0-14.247,4.438-23.525,12.067-29.362C185.438,190.292,195.473,188.272,207.145,188.272L207.145,188.272z M328.065,198.61h-120.92
		c-9.554,0-17.507,1.455-22.818,5.517c-5.052,3.864-7.989,10.511-7.989,21.165v15.625c15.48,0.098,55.236,1.041,91.132,5.9
		c21.72,2.939,42.152,7.339,55.372,13.898c12.729-1.075,24.687-0.528,36.632,0.064v-35.933c0-10.429-2.858-16.959-7.908-20.756
		C346.213,200.068,338.087,198.61,328.065,198.61L328.065,198.61z"/>
	<path fill="#333333" d="M321.637,270.357c-10.644,2.271-29.356,7.407-46.848,17.671c-11.326,6.647-22.156,15.465-29.897,27.078
		c-1.583,2.375-4.792,3.018-7.167,1.434c-0.744-0.496-1.318-1.151-1.707-1.891c-31.208-48.651-77.359-42.275-98.863-39.303
		c-2.236,0.309-4.224,0.584-5.955,0.77c-2.753,0.296-4.827-0.096-6.276-0.908c-1.797-1.006-2.803-2.506-3.12-4.348
		c-0.255-1.483,0.034-2.943,0.786-4.307c0.92-1.665,2.795-3.388,5.139-4.601l39.514-20.468c0.834-0.43,1.73-0.61,2.605-0.568
		c6.088-0.048,114.42-0.627,153.121,19.829c2.521,1.328,3.487,4.446,2.161,6.967c-0.743,1.41-2.048,2.334-3.494,2.641
		L321.637,270.357L321.637,270.357z M269.58,279.146c11.867-6.965,24.18-11.71,34.482-14.867
		c-42.433-13.036-122.288-13.12-133.17-13.07l-24.248,12.561c24.912-2.555,64.394-1.664,94.104,39.541
		C248.878,293.237,259.047,285.326,269.58,279.146L269.58,279.146z"/>
	<path fill="#333333" d="M267.905,174.111c6.39,0,12.284,1.552,16.647,4.061c5.213,2.997,8.438,7.42,8.438,12.559
		c0,0.775-0.09,1.583-0.263,2.416c-0.158,0.763-0.402,1.529-0.725,2.293l-1.339,3.17h-3.406h-38.707h-3.407l-1.338-3.17
		c-0.323-0.765-0.566-1.53-0.725-2.293c-0.173-0.833-0.262-1.641-0.262-2.416c0-5.139,3.225-9.562,8.438-12.559
		C255.621,175.663,261.516,174.111,267.905,174.111z M279.424,187.096c-2.845-1.635-6.909-2.647-11.519-2.647
		c-4.61,0-8.675,1.012-11.52,2.647c-0.657,0.379-1.232,0.774-1.708,1.177h26.455C280.657,187.87,280.082,187.475,279.424,187.096
		L279.424,187.096z"/>
	<rect x="80.358" y="80.358" fill="none" width="330.803" height="330.803"/>
	<path fill="#EBE5DF" d="M287.259,198.609h-38.707h-3.407h-38c-9.554,0-17.508,1.456-22.818,5.518
		c-5.052,3.863-7.989,10.511-7.989,21.165v15.623c24.998,0.125,112.538,1.871,146.563,19.796
		c12.706-1.068,24.646-0.521,36.573,0.069v-35.933c0-10.429-2.858-16.96-7.908-20.756c-5.353-4.024-13.479-5.482-23.499-5.482h-37.4
		H287.259L287.259,198.609z"/>
</g>
</svg>
