<?xml version="1.0" encoding="utf-8"?>
<!-- Generator: Adobe Illustrator 13.0.0, SVG Export Plug-In . SVG Version: 6.00 Build 14948)  -->
<!DOCTYPE svg PUBLIC "-//W3C//DTD SVG 1.1//EN" "http://www.w3.org/Graphics/SVG/1.1/DTD/svg11.dtd">
<svg version="1.1" id="Layer_1" xmlns="http://www.w3.org/2000/svg" xmlns:xlink="http://www.w3.org/1999/xlink" x="0px" y="0px"
	 width="300px" height="300px" viewBox="0 0 300 300" enable-background="new 0 0 300 300" xml:space="preserve">
<g>
	<path fill="#EEC643" d="M244.427,150.814c-1.688-11.246-5.063-51.757-9.008-75.686c-3.937-23.915-15.754-29.821-21.101-32.629
		c-0.243-0.132-9.967-6.79-10.295-6.987c-6.688,52.608-24.89,89.278-44.308,114.34c-3.327,4.286-16.302,20.795-16.302,35.286
		c0,45.424,0,92.568,0,94.27c0,3.31,9.566,3.091,9.566,3.091c43.609,0,58.242-7.032,58.242-7.032s-1.404-9.287-1.971-17.441
		c-0.561-8.168-2.811-28.99-3.656-34.613c-0.844-5.622-4.996-22.788-5.205-36.293c-0.213-13.508,5.482-57.672,5.482-57.672
		s2.535,13.5,1.975,16.585c-0.561,3.098,5.623,36.017,6.192,41.653c0.565,5.623,2.215,32.885,1.858,37.698
		c-0.351,4.812-2.903,16.334-3.271,18.009c-0.355,1.674,5.592,5.459,13.835,7.461c8.243,2.004,12.334,3.791,13.461,0.982
		c1.127-2.814,2.813-35.748,4.502-51.777C246.113,184.012,246.113,162.074,244.427,150.814z M177.607,222.119
		c-3.112,0-6.603-0.12-10.473-0.396l0.737-10.105c17.462,1.293,26.041-1.16,26.134-1.188l2.913,9.711
		C196.592,220.232,190.223,222.119,177.607,222.119z"/>
	<path fill="#19647E" d="M133.287,192.35v-10.276v-1.621c0-8.331,10.59-20.078,13.662-24.91c0.065-0.099,0.125-0.118,0.184-0.204
		c-0.006,0.007-0.006,0.007-0.012,0.014c1.152-1.938,2.409-3.901,3.76-5.945c5.709-8.667,13.872-23.354,20.11-43.881
		c10.692-35.167,11.819-56.55,11.536-62.747c-0.705-15.293-8.725-22.939-10.416-24.758c-1.437-1.556-3.537-3.823-4.158-4.482
		c-4.848-0.659-9.943-1.035-15.246-1.035c-5.343,0-10.431,0.422-15.3,1.088c-0.691,0.738-2.722,2.926-4.119,4.442
		c-1.69,1.819-9.709,9.459-10.408,24.759c-0.276,6.183,0.843,27.566,11.536,62.74c3.804,12.511,8.302,22.781,12.534,30.889
		c-1.607,2.834-3.138,5.313-4.522,7.409l-0.579,0.87c-17.933-24.857-34.222-60.077-40.463-109.185
		c-0.32,0.195-10.056,6.86-10.306,6.985c-5.339,2.814-17.158,8.714-21.101,32.642c-3.938,23.916-7.313,64.428-9.001,75.687
		c-1.69,11.259-1.69,33.194,0,49.239c1.688,16.031,3.381,48.951,4.502,51.766s5.224,1.027,13.461-0.977
		c8.236-2.01,14.198-5.793,13.829-7.469c-0.356-1.66-2.917-13.197-3.272-17.996c-0.35-4.816,1.305-32.074,1.866-37.709
		c0.56-5.623,6.759-38.557,6.192-41.642c-0.567-3.099,1.965-16.598,1.965-16.598s5.698,44.17,5.487,57.677
		c-0.21,13.508-4.356,30.672-5.201,36.294c-0.847,5.63-3.094,26.446-3.662,34.606c-0.56,8.16-1.964,17.442-1.964,17.442
		s10.365,4.931,39.408,6.531c-0.237-1.062-0.303-1.972-0.303-2.591L133.287,192.35L133.287,192.35z M108.486,220.143l2.92-9.697
		c0.052,0.013,3.77,1.066,11.249,1.437l0.185,10.146C113.508,221.631,108.769,220.232,108.486,220.143z"/>
</g>
</svg>
