<?xml version="1.0" encoding="utf-8"?>
<!-- Generator: Adobe Illustrator 13.0.0, SVG Export Plug-In . SVG Version: 6.00 Build 14948)  -->
<!DOCTYPE svg PUBLIC "-//W3C//DTD SVG 1.1//EN" "http://www.w3.org/Graphics/SVG/1.1/DTD/svg11.dtd">
<svg version="1.1" id="Layer_1" xmlns="http://www.w3.org/2000/svg" xmlns:xlink="http://www.w3.org/1999/xlink" x="0px" y="0px"
	 width="80px" height="80px" viewBox="0 0 80 80" enable-background="new 0 0 80 80" xml:space="preserve">
<g>
	<g>
		<g>
			<path fill="#19647E" d="M42.3,39h-4.7c-0.2,0-0.3,0.1-0.3,0.3v2.8c0,0.2,0.1,0.301,0.3,0.301h4.7c0.2,0,0.3-0.101,0.3-0.301V41.2
				l0,0h-2.1c-0.3,0-0.5-0.2-0.5-0.5c0-0.3,0.2-0.5,0.5-0.5h2.1l0,0v-0.9C42.6,39.1,42.5,39,42.3,39z M63,38.8
				c-0.4-2.5-1.5-12.9-2-16.4c-0.7-5.3-2.3-9.7-4.2-10.8c-0.899-0.5-2.8-1.3-5.1-2.1l0.1,0.1c0.4,0.6,0.7,1.2,1,1.8
				s0.601,1.2,0.9,1.9l0,0l0.1,0.5l2.2,0.7l2.4,0.8L55.9,16l0,0c-0.4,0.1-0.801,0.2-1.101,0.3c-0.399,0.1-0.8,0.2-1.1,0.4
				c-0.8,0.3-1.5,0.6-2.3,0.9c-1.5,0.6-2.9,1.4-4.301,2.3c-2.8,1.7-5.3,3.9-7.3,6.5l-0.1-0.1c1.8-2.8,4.2-5.2,6.899-7.1
				c1.4-1,2.801-1.9,4.301-2.6c0.699-0.4,1.5-0.7,2.3-1.1c0.1,0,0.2-0.1,0.3-0.1l-2.9-1L46.4,13l4.399-0.1H52
				c-0.1-0.3-0.2-0.6-0.3-0.9c-0.2-0.6-0.4-1.2-0.7-1.9c-0.2-0.4-0.4-0.8-0.6-1.2C50.3,8.8,50.2,8.7,50.1,8.6
				c-2.8-2.5-4-3.2-4.5-3.5C44.9,4.6,41.7,4.5,40,4.5s-4.9,0.1-5.6,0.6c-0.4,0.3-1.1,0.7-2.7,2c-0.6,0.6-1.1,1.2-1.6,1.8
				c-0.5,0.7-1,1.5-1.4,2.3c-0.2,0.4-0.3,0.8-0.5,1.3c0,0.1-0.1,0.2-0.1,0.4h1.2l4.4,0.1l-4.2,1.4l-3.4,1.1c0.4,0.2,0.7,0.4,1.1,0.7
				c0.8,0.5,1.6,1.1,2.4,1.7c1.6,1.2,3.1,2.5,4.5,3.9c1.4,1.4,2.7,3,3.7,4.7s1.9,3.5,2.3,5.5l-0.3,0.1c-0.5-1.9-1.4-3.6-2.5-5.2
				c-1.1-1.6-2.4-3-3.8-4.3c-1.4-1.3-2.9-2.5-4.5-3.6c-0.8-0.5-1.6-1.1-2.4-1.5c-0.8-0.5-1.7-1-2.5-1.4l0,0L22.3,15l1.7-0.6l2.2-0.8
				l0.1-0.4l0,0c0-0.2,0.1-0.3,0.1-0.4c0-0.1,0.1-0.2,0.1-0.4c0.1-0.2,0.2-0.5,0.3-0.7c0.2-0.5,0.4-0.9,0.7-1.4
				c0.2-0.3,0.4-0.7,0.6-1c-2.2,0.8-4,1.5-4.9,2.1c-1.9,1.1-3.4,5.5-4.2,10.8c-0.5,3.5-1.6,13.9-2,16.4C16.3,43.3,17.8,63,17.8,63
				s2.9,0.5,4.7-0.4c0-1.3,0-5.6,0-5.6s1.2-3.9,1.5-7.2c0.2-3.3,1.6-14.9,2.2-22c0.7,3.8,2.1,6.5,2.7,9.8c0.4,2.1,0,4.1-0.1,4.7
				c-0.4,2.9-3.7,5.9-6.1,28.3c1,2.801,9.4,4.801,15,5.2L40,57.5l1.3,17.9c4.5-0.301,14.8-2.4,16-4.9c-2.5-22.4-5.7-25.4-6.1-28.3
				c-0.101-0.5-0.4-2.5-0.101-4.7c0.601-3.4,1.9-6,2.7-9.8c0.601,7.1,2,18.7,2.2,22s1.5,7.2,1.5,7.2s0,4.199,0,5.6
				c1.8,0.9,4.7,0.4,4.7,0.4S63.7,43.3,63,38.8z M33.9,12.1c-0.3-0.8-0.1-4.7,0.3-5.3c0.3-0.5,3.9-0.7,5.7-0.8
				c1.8,0.1,5.4,0.4,5.7,0.8C46,7.4,46.2,11.4,45.9,12.1c-1.301,3.2-4.801,7.7-6.3,12L40,25C38.8,20.4,35.3,15.3,33.9,12.1z
				 M31.5,43h-1l0.2-4.6h1L31.5,43z M43.5,42.1c0,0.601-0.5,1.2-1.2,1.2h-4.7c-0.6,0-1.2-0.5-1.2-1.2v-2.8c0-0.6,0.5-1.2,1.2-1.2
				h4.7c0.601,0,1.2,0.5,1.2,1.2V42.1z M48.5,43l-0.2-4.6h1l0.2,4.6H48.5z"/>
		</g>
	</g>
</g>
</svg>
