<?xml version="1.0" encoding="utf-8"?>
<!-- Generator: Adobe Illustrator 13.0.0, SVG Export Plug-In . SVG Version: 6.00 Build 14948)  -->
<!DOCTYPE svg PUBLIC "-//W3C//DTD SVG 1.1//EN" "http://www.w3.org/Graphics/SVG/1.1/DTD/svg11.dtd">
<svg version="1.1" id="Layer_1" xmlns="http://www.w3.org/2000/svg" xmlns:xlink="http://www.w3.org/1999/xlink" x="0px" y="0px"
	 width="64px" height="64px" viewBox="0 0 64 64" enable-background="new 0 0 64 64" xml:space="preserve">
<g id="Layer_1_1_">
	<g opacity="0.2">
		<g>
			<g>
				<path fill="#231F20" d="M38.609,22v-3.656c-0.019,0.894-3.903,3.276-5.174,4.107C33.893,22.17,34.424,22,35,22H38.609z"/>
			</g>
		</g>
	</g>
	<g>
		<g>
			<g>
				<path fill="#EEC643" d="M38.609,20v-3.656c-0.019,0.894-3.903,3.276-5.174,4.107C33.893,20.17,34.424,20,35,20H38.609z"/>
			</g>
		</g>
		<g>
			<path fill="#19647E" d="M38.609,16.344C38.614,16.129,38.395,16,37.857,16H24h-1h-3v3v14v3h3h1h8V23
				c0-0.237,0.029-0.466,0.081-0.688c0.15-0.638,0.501-1.198,0.985-1.606C33.498,20.342,38.589,17.367,38.609,16.344z"/>
		</g>
	</g>
	<g>
		<path fill="#19647E" d="M49,20h-9h-5c-1.657,0-3,1.343-3,3v13v1c0,1.657,1.343,3,3,3h14c1.657,0,3-1.343,3-3V23
			C52,21.343,50.657,20,49,20z"/>
	</g>
	<g>
		<path fill="#EEC643" d="M20,50c0,1.105-0.895,2-2,2l0,0c-1.105,0-2-0.895-2-2V16c0-1.105,0.895-2,2-2l0,0c1.105,0,2,0.895,2,2V50z
			"/>
	</g>
	<g>
		<circle fill="#EEC643" cx="18" cy="15" r="3"/>
	</g>
</g>
<g id="Layer_2">
</g>
</svg>
