<?xml version="1.0" encoding="utf-8"?>
<!-- Generator: Adobe Illustrator 13.0.0, SVG Export Plug-In . SVG Version: 6.00 Build 14948)  -->
<!DOCTYPE svg PUBLIC "-//W3C//DTD SVG 1.1//EN" "http://www.w3.org/Graphics/SVG/1.1/DTD/svg11.dtd">
<svg version="1.1" id="Layer_1" xmlns="http://www.w3.org/2000/svg" xmlns:xlink="http://www.w3.org/1999/xlink" x="0px" y="0px"
	 width="300px" height="300px" viewBox="0 0 300 300" enable-background="new 0 0 300 300" xml:space="preserve">
<g>
	<path fill="#19647E" d="M281.816,173.188c-17.812,2.707-23.978,3.774-49.452,8.854c-7.806,1.567-14.497,3.603-21.572,5.751
		c-17.58,5.354-37.194,11.316-79.763,11.316c-6.462,0-13.435-0.135-21.009-0.436c-52.753-2.064-75.208-10.165-89.053-16.824
		l-0.358,2.59c0,0-0.55,12.598,35.314,18.074c35.877,5.476,61.339,7.396,93.646,5.75c32.32-1.645,72.022-2.73,86.251-2.193
		c14.24,0.55,32.652-1.708,40.048-4.99c7.396-3.288,5.948-11.163,5.948-11.163V173.188L281.816,173.188z"/>
	<path fill="#EEC643" d="M181.338,96.553c-6.576-2.745-9.314-3.57-16.709,2.322c-7.383,5.892-38.846,31.584-64.193,43.547
		c1.267,4.53,3.8,10.762,7.907,12.646c2.406,1.113,5.285,0.603,8.752-1.547c17.733-10.538,30.029-18.202,39.013-23.806
		c3.172-1.977,5.847-3.646,8.099-5.035c5.233-3.206,11.093-6.519,16.685-9.673c3.493-1.978,6.871-3.896,9.93-5.688
		c3.031-1.771,4.837-3.825,6.142-6.16C190.115,101.16,185.829,98.415,181.338,96.553z M116.916,145.711
		c-1.804,0-3.275-1.478-3.275-3.289c0-1.823,1.472-3.288,3.275-3.288c1.83,0,3.289,1.465,3.289,3.288
		C120.204,144.234,118.746,145.711,116.916,145.711z M135.609,134.413c-1.817,0-3.288-1.478-3.288-3.282
		c0-1.823,1.471-3.288,3.288-3.288s3.288,1.465,3.288,3.288C138.897,132.936,137.426,134.413,135.609,134.413z M154.559,121.631
		c-1.815,0-3.287-1.472-3.287-3.289c0-1.816,1.472-3.282,3.287-3.282c1.816,0,3.289,1.465,3.289,3.282
		C157.848,120.16,156.375,121.631,154.559,121.631z M173.034,109.515c-1.804,0-3.275-1.471-3.275-3.289
		c0-1.81,1.472-3.282,3.275-3.282c1.817,0,3.288,1.472,3.288,3.282C176.322,108.043,174.852,109.515,173.034,109.515z"/>
	<path fill="#19647E" d="M230.434,172.383c25.947-5.189,32.203-6.251,49.912-8.938l1.895-0.281
		c0.357-4.754,0.729-12.987-0.039-21.988c-0.575-6.635-2.532-15.424-4.452-22.833c-36.338,9.142-48.901,39.511-53.01,55.294
		C226.568,173.201,228.449,172.779,230.434,172.383z"/>
	<path fill="#19647E" d="M273.604,103.667c-4.646-18.073-7.371-9.583-16.697-7.939c-9.303,1.644-33.945,10.952-48.455,9.583
		c-0.475-0.045-0.857-0.122-1.305-0.173l-1.573,2.815c-2.304,4.146-5.502,7.376-9.763,9.865c-3.098,1.823-6.525,3.762-10.07,5.771
		c-4.951,2.789-11.104,6.27-16.377,9.507c-2.239,1.369-4.9,3.026-8.035,4.983c-8.971,5.591-21.24,13.249-39.038,23.831
		c-3.915,2.418-7.613,3.588-11.311,3.588c-2.367,0-4.645-0.498-6.743-1.465c-7.292-3.346-11.067-11.477-13.012-18.066
		c-13.537,4.568-30.899,9.393-43.234,8.906c-13.69-0.551-18.334,2.193-21.085,8.482c-1.574,3.646-2.367,6.69-2.79,9.078l1.126,0.537
		c13.192,6.346,34.802,13.889,85.163,15.854c7.165,0.281,14.113,0.428,20.625,0.428c41.109,0,59.292-5.533,76.897-10.889
		c1.957-0.594,3.89-1.15,5.835-1.721l1.432-5.482c3.941-15.182,17.709-51.583,59.971-62.311
		C274.256,105.682,273.604,103.667,273.604,103.667z"/>
</g>
</svg>
