<?xml version="1.0" encoding="utf-8"?>
<!-- Generator: Adobe Illustrator 13.0.0, SVG Export Plug-In . SVG Version: 6.00 Build 14948)  -->
<!DOCTYPE svg PUBLIC "-//W3C//DTD SVG 1.1//EN" "http://www.w3.org/Graphics/SVG/1.1/DTD/svg11.dtd">
<svg version="1.1" id="Layer_1" xmlns="http://www.w3.org/2000/svg" xmlns:xlink="http://www.w3.org/1999/xlink" x="0px" y="0px"
	 width="300px" height="300px" viewBox="800 197.5 300 300" enable-background="new 800 197.5 300 300" xml:space="preserve">
<g>
	<g id="Layer_1_1_" display="none">
		<path display="inline" fill="#F3AD2E" d="M950,221.217c-69.732,0-126.282,56.55-126.282,126.283S880.268,473.782,950,473.782
			c69.732,0,126.283-56.55,126.283-126.282S1019.732,221.217,950,221.217z M950,273.281c20.327,0,36.833,16.505,36.833,36.832
			c0,20.328-16.506,36.833-36.833,36.833c-20.327,0-36.833-16.505-36.833-36.833C913.167,289.787,929.673,273.281,950,273.281z
			 M1009.541,400.229c0,11.798-9.637,21.435-21.434,21.435h-76.213c-11.797,0-21.435-9.637-21.435-21.435v-45.417
			c0-11.798,9.638-21.436,21.435-21.436h1.772c7.477,12.186,20.937,20.328,36.278,20.328c15.342,0,28.801-8.143,36.278-20.328h1.773
			c11.797,0,21.434,9.638,21.434,21.436v45.417H1009.541z"/>
	</g>
	<g id="Layer_2" display="none">
		<g display="inline">
			<path fill="#F3AD2E" d="M1011.369,221.771h-154.53c-15.231,0-27.693,12.462-27.693,27.693v196.071
				c0,15.23,12.462,27.693,27.693,27.693h154.531c15.231,0,27.692-12.463,27.692-27.693V249.464
				C1039.063,234.233,1026.601,221.771,1011.369,221.771z M934.104,273.281c20.327,0,36.833,16.505,36.833,36.832
				c0,20.328-16.506,36.833-36.833,36.833c-20.328,0-36.833-16.505-36.833-36.833C897.272,289.787,913.722,273.281,934.104,273.281z
				 M993.646,400.229c0,11.798-9.638,21.435-21.435,21.435h-76.213c-11.797,0-21.435-9.637-21.435-21.435v-45.417
				c0-11.798,9.638-21.436,21.435-21.436h1.772c7.477,12.186,20.937,20.328,36.279,20.328c15.341,0,28.8-8.143,36.278-20.328h1.772
				c11.798,0,21.435,9.638,21.435,21.436v45.417H993.646z"/>
			<g>
				<g>
					<g>
						<defs>
							<rect id="SVGID_1_" x="1036.848" y="268.296" width="34.063" height="152.315"/>
						</defs>
						<clipPath id="SVGID_2_">
							<use xlink:href="#SVGID_1_"  overflow="visible"/>
						</clipPath>
						<g clip-path="url(#SVGID_2_)">
							<path fill="#F3AD2E" d="M1065.372,272.174h-39.879c-3.047,0-5.538,2.492-5.538,5.538v25.479c0,3.046,2.491,5.538,5.538,5.538
								h39.879c3.046,0,5.538-2.492,5.538-5.538v-25.479C1070.91,274.666,1068.418,272.174,1065.372,272.174z"/>
							<path fill="#F3AD2E" d="M1050.141,381.841h-39.88c-3.046,0-5.538,2.491-5.538,5.538v25.478c0,3.047,2.492,5.539,5.538,5.539
								h39.88c3.046,0,5.538-2.492,5.538-5.539v-25.478C1055.679,384.333,1053.187,381.841,1050.141,381.841z"/>
							<path fill="#F3AD2E" d="M1059.556,327.006h-39.879c-3.046,0-5.538,2.492-5.538,5.539v25.478c0,3.046,2.492,5.538,5.538,5.538
								h39.879c3.047,0,5.54-2.492,5.54-5.538v-25.478C1065.096,329.499,1062.603,327.006,1059.556,327.006z"/>
						</g>
					</g>
				</g>
			</g>
		</g>
	</g>
	<g id="Layer_3">
		<g>
			<path fill="#19647E" d="M1071.299,264.973h-11.355c-1.772,12.185-12.24,21.601-24.924,21.601s-23.207-9.416-24.925-21.601
				H889.905c-1.772,12.185-12.24,21.601-24.925,21.601c-12.683,0-23.207-9.416-24.924-21.601h-11.354
				c-3.046,0-5.539,2.492-5.539,5.538v178.347c0,3.047,2.492,5.539,5.539,5.539h242.596c3.047,0,5.538-2.492,5.538-5.539V270.511
				C1076.837,267.466,1074.345,264.973,1071.299,264.973z M894.613,302.637c15.619,0,28.303,12.683,28.303,28.303
				c0,15.619-12.684,28.302-28.303,28.302s-28.303-12.683-28.303-28.302C866.311,315.32,878.994,302.637,894.613,302.637z
				 M940.363,400.229c0,9.083-7.422,16.506-16.506,16.506h-58.544c-9.083,0-16.505-7.423-16.505-16.506v-34.894
				c0-9.084,7.421-16.505,16.505-16.505h1.385c5.761,9.36,16.063,15.618,27.916,15.618c11.853,0,22.154-6.258,27.915-15.618h1.385
				c9.083,0,16.504,7.421,16.504,16.505v34.894H940.363z M1050.806,398.456c0,3.046-2.492,5.539-5.539,5.539h-85.85
				c-3.047,0-5.539-2.493-5.539-5.539v-3.877c0-3.046,2.492-5.539,5.539-5.539h85.85c3.047,0,5.539,2.493,5.539,5.539V398.456z
				 M1050.806,362.455c0,3.046-2.492,5.537-5.539,5.537h-85.85c-3.047,0-5.539-2.491-5.539-5.537v-3.877
				c0-3.047,2.492-5.54,5.539-5.54h85.85c3.047,0,5.539,2.493,5.539,5.54V362.455z M1050.806,326.453
				c0,3.046-2.492,5.539-5.539,5.539h-85.85c-3.047,0-5.539-2.492-5.539-5.539v-3.876c0-3.046,2.492-5.539,5.539-5.539h85.85
				c3.047,0,5.539,2.493,5.539,5.539V326.453z"/>
			<path fill="#EEC643" d="M864.98,240.603c-11.188,0-20.216,9.028-20.216,20.216c0,11.188,9.028,20.217,20.216,20.217
				c11.188,0,20.217-9.028,20.217-20.217C885.197,249.631,876.169,240.603,864.98,240.603z M864.98,273.835
				c-7.2,0-13.015-5.815-13.015-13.016c0-7.2,5.815-13.016,13.015-13.016c7.201,0,13.017,5.816,13.017,13.016
				C877.997,268.02,872.182,273.835,864.98,273.835z"/>
			<path fill="#EEC643" d="M1035.573,240.603c-11.188,0-20.216,9.028-20.216,20.216c0,11.188,9.028,20.217,20.216,20.217
				c11.189,0,20.217-9.028,20.217-20.217C1055.79,249.631,1046.762,240.603,1035.573,240.603z M1035.573,273.835
				c-7.2,0-13.015-5.815-13.015-13.016c0-7.2,5.814-13.016,13.015-13.016s13.016,5.816,13.016,13.016
				C1048.589,268.02,1042.773,273.835,1035.573,273.835z"/>
		</g>
	</g>
</g>
</svg>
