<?xml version="1.0" encoding="utf-8"?>
<!-- Generator: Adobe Illustrator 13.0.0, SVG Export Plug-In . SVG Version: 6.00 Build 14948)  -->
<!DOCTYPE svg PUBLIC "-//W3C//DTD SVG 1.1//EN" "http://www.w3.org/Graphics/SVG/1.1/DTD/svg11.dtd">
<svg version="1.1" id="Layer_1" xmlns="http://www.w3.org/2000/svg" xmlns:xlink="http://www.w3.org/1999/xlink" x="0px" y="0px"
	 width="300px" height="300px" viewBox="0 0 300 300" enable-background="new 0 0 300 300" xml:space="preserve">
<g>
	<path fill="#EEC643" d="M173.255,18.075c-0.179-0.108-0.374-0.311-0.547-0.35c-3.466-0.813-11.203-1.225-22.007-1.225
		c-10.804,0-18.541,0.412-22.007,1.225c-0.171,0.039-0.368,0.241-0.545,0.35c-11.972,31.859,22.553,38.606,22.553,62.816
		C150.701,56.682,185.227,49.934,173.255,18.075z"/>
	<path fill="#19647E" d="M271.535,192.146c2.037-5.908,1.523-25.67-2.857-29.946c1.327-3.365-1.93-22.523-7.945-28.122
		c0.716-4.488-5.498-22.622-10.596-27.51c0.313-4.38-5.707-20.579-13.246-25.677c0.207-5.199-7.537-21.906-15.688-24.248
		c-4.703-6.151-21.27-10.461-29.814-12.994c1.183,5.599,1.767,11.641,3.125,18.433c-23.221,0-34.328,6.824-39.516,12.258
		l0.578,190.295c39.254-0.48,52.762-6.828,56.558-12.783c2.374-3.727,0.304-8.354,0.304-8.354s5.611-9.991,0.819-18.142
		c1.632-3.356,5.199-14.563-2.139-26.278c1.522-3.161,5.192-14.677-1.937-27.513c2.443-10.6-1.429-22.209-1.429-22.209
		s1.529-2.138,2.037-4.386c0.413,2.146,3.668,3.974,3.668,3.974s0.719,13.043,10.799,24.864c-1.319,10.594,3.466,23.43,3.466,23.43
		s-3.871,5.509-2.443,16.916c-4.793,10.086-2.24,28.119-2.24,28.119s-3.467,12.022-0.813,23.633
		c-4.578,4.253,5.527,5.313,14.662,7.541c8.596,2.095,16.137,5.675,15.69,0c3.67-1.625,12.633-17.112,9.789-23.227
		c2.233-0.92,7.735-23.125,5.901-28.938C270.723,219.352,273.262,199.586,271.535,192.146z"/>
	<path fill="#19647E" d="M110.013,43.65c-8.544,2.533-25.11,6.842-29.815,12.994c-8.15,2.342-15.894,19.049-15.685,24.248
		c-7.541,5.098-13.559,21.297-13.248,25.677c-5.097,4.888-11.312,23.022-10.594,27.51c-6.018,5.599-9.274,24.756-7.947,28.122
		c-4.38,4.275-4.894,24.038-2.856,29.945c-1.727,7.44,0.812,27.207,3.262,29.137c-1.834,5.814,3.669,28.02,5.903,28.939
		c-2.844,6.112,6.119,21.602,9.788,23.227c-0.444,5.674,7.097,2.094,15.691,0c9.134-2.229,19.239-3.289,14.663-7.542
		c2.653-11.609-0.812-23.632-0.812-23.632s2.551-18.034-2.242-28.119c1.429-11.408-2.443-16.916-2.443-16.916
		s4.786-12.838,3.466-23.432c10.08-11.818,10.797-24.863,10.797-24.863s3.257-1.828,3.669-3.974
		c0.508,2.248,2.038,4.386,2.038,4.386s-3.872,11.61-1.428,22.21c-7.128,12.834-3.459,24.351-1.936,27.512
		c-7.338,11.717-3.771,22.922-2.139,26.279c-4.792,8.148,0.819,18.141,0.819,18.141s-2.07,4.628,0.304,8.354
		c3.795,5.955,17.297,12.289,56.544,12.785V73.738c-5.427-5.319-16.555-11.655-38.924-11.655
		C108.248,55.291,108.832,49.249,110.013,43.65z"/>
</g>
</svg>
