<?xml version="1.0" encoding="utf-8"?>
<!-- Generator: Adobe Illustrator 13.0.0, SVG Export Plug-In . SVG Version: 6.00 Build 14948)  -->
<!DOCTYPE svg PUBLIC "-//W3C//DTD SVG 1.1//EN" "http://www.w3.org/Graphics/SVG/1.1/DTD/svg11.dtd">
<svg version="1.1" id="Layer_1" xmlns:sketch="http://www.bohemiancoding.com/sketch/ns"
	 xmlns="http://www.w3.org/2000/svg" xmlns:xlink="http://www.w3.org/1999/xlink" x="0px" y="0px" width="32px" height="32px"
	 viewBox="0 0 32 32" enable-background="new 0 0 32 32" xml:space="preserve">
<title></title>
<desc></desc>
<g id="Page-1">
	<g id="icon-143-box">
		<path id="box" fill="none" stroke="#19647E" d="M5,13v15h23V13h2V5H3v8H5L5,13z M6,13v14h21V13H6L6,13z M4,6v6h25V6H4L4,6z
			 M13.998,18C12.895,18,12,18.888,12,20c0,1.104,0.896,2,1.998,2h5.004C20.105,22,21,21.112,21,20c0-1.104-0.896-2-1.998-2H13.998
			L13.998,18z M14.003,19C13.449,19,13,19.443,13,20c0,0.553,0.438,1,1.003,1h4.994C19.551,21,20,20.557,20,20
			c0-0.553-0.438-1-1.003-1H14.003L14.003,19z"/>
	</g>
</g>
</svg>
