<?xml version="1.0" encoding="utf-8"?>
<!-- Generator: Adobe Illustrator 13.0.0, SVG Export Plug-In . SVG Version: 6.00 Build 14948)  -->
<!DOCTYPE svg PUBLIC "-//W3C//DTD SVG 1.1//EN" "http://www.w3.org/Graphics/SVG/1.1/DTD/svg11.dtd">
<svg version="1.1" id="shoes_1_" xmlns="http://www.w3.org/2000/svg" xmlns:xlink="http://www.w3.org/1999/xlink" x="0px" y="0px"
	 width="300px" height="300px" viewBox="800 197.5 300 300" enable-background="new 800 197.5 300 300" xml:space="preserve">
<g id="_x39__1_" display="none">
	<g id="icon" display="inline">
		<g>
			<path fill="#1E1E1E" d="M1290.984,363.789c-14.66-33.664-84.703-36.379-161.263-59.184
				c-98.276-29.32-193.297-87.418-203.069-88.504c-15.203,15.203-22.806,36.922-43.438,42.895
				c-62.983,19.004-147.688-7.602-147.688-7.602s-111.853-64.613-119.453-5.973c-4.888,36.922-14.66,94.477-11.945,141.715
				c-2.172,14.66-1.086,67.328,0,70.586c1.086,3.259,8.146,15.203,38.551,18.461c48.324,4.888,432.203,1.086,522.88-12.487
				C1262.75,449.035,1317.047,424.059,1290.984,363.789z M1273.066,411.027c-4.345,7.602-31.492,28.233-101.535,35.293
				c-167.234,17.375-472.383,20.09-532.109,13.573c-5.973-2.172-11.945-2.172-17.918-7.602
				c-3.258-26.604,1.086-187.324,11.945-200.898c2.715-3.258,5.973-10.859,11.945-11.945c19.547-2.172,82.53,23.348,89.59,29.32
				c13.03,11.402,137.371,11.945,137.371,11.945s8.145-3.258,16.832-6.516c24.977-8.688,42.895-35.293,42.895-35.293
				s23.891,8.145,65.699,29.32c52.668,26.063,135.199,59.727,232.934,76.559C1255.691,350.215,1295.328,374.648,1273.066,411.027z"
				/>
		</g>
	</g>
	<g id="border" display="inline">
		<g>
			<path fill="#1E1E1E" d="M878.871,399.082h23.891c0,0,7.603-33.664,41.81-47.238c26.604-10.316,119.452-23.348,119.452-23.348
				l-148.772-69.5l-18.461,12.488l125.426,50.496c0,0-78.188,9.23-107.508,29.32C893.531,365.961,878.871,399.082,878.871,399.082z
				 M1264.379,361.617c0,0-32.035,28.234-92.848,32.035c-182.438,9.772-551.113,5.43-551.113,5.43v11.945
				c0,0,364.332-1.086,551.113-7.603c55.383-2.172,101.535-33.663,101.535-33.663L1264.379,361.617z"/>
		</g>
	</g>
</g>
<g id="_x38__2_" display="none">
	<g id="icon_1_" display="inline">
		<g>
			<path fill="#1E1E1E" d="M1174.789,67.328c0,0-85.789,114.023-84.16,219.359c-19.004,15.746-61.355,45.609-61.355,45.609
				s-127.055-58.641-198.727-83.617c-17.375,41.266-30.949,87.961-28.777,130.313c0.543,13.031,28.777,43.979,28.777,43.979
				s-38.008-17.375-53.754-22.805c-20.633,12.488-99.363,60.271-99.363,60.271s-2.715,28.233-7.602,30.405
				c-17.918,6.517-61.898,10.859-65.699,23.892c-3.801,13.031,0.543,40.723,12.488,58.641
				c35.293,48.867,260.625,72.215,329.039,38.008c33.121-46.695,110.223-198.727,160.719-226.961c0,73.301,0,241.621,0,241.621
				h76.559c0,0,26.063-128.684,46.152-219.359c8.145-35.836,68.957-119.453,68.957-150.945
				C1297.5,94.477,1174.789,67.328,1174.789,67.328z M1205.738,407.227c-26.063,119.453-38.008,196.556-38.008,196.556
				s-28.234,0-38.009,0c0-87.961,0-176.465,0-264.426C999.953,422.43,950,588.578,922.852,596.18
				c-110.766,32.035-282.344-13.03-291.03-30.405c-8.688-16.832-11.402-42.353-7.603-45.609c3.801-3.257,37.465,0.543,49.953-3.801
				c6.516-2.172,8.688-10.859,11.402-13.574c10.315-10.316,2.172-28.234,15.203-35.293c22.805-11.402,84.16-45.609,84.16-45.609
				s46.151,15.203,106.965,75.474c7.602-7.603,15.203-15.203,22.805-22.806c-30.406-29.319-61.355-59.727-91.762-90.133
				c-4.345-32.578,22.805-105.879,22.805-105.879s122.711,52.668,191.125,83.074c17.918-20.09,58.641-47.781,76.559-67.871
				c1.086-106.965,46.695-155.832,68.957-204.156c60.813,35.293,96.648,93.391,91.763,158.547
				C1271.438,292.117,1223.113,351.301,1205.738,407.227z"/>
		</g>
	</g>
	<path id="line" display="inline" fill="#1E1E1E" d="M686.66,501.703c0,0,162.891,10.859,197.641-18.461
		c59.185-49.953,137.914-128.684,137.914-128.684l15.203,7.602c0,0-115.109,111.852-145.516,136.285
		c-30.407,24.433-217.73,18.461-217.73,18.461L686.66,501.703z"/>
</g>
<g id="_x37__2_" display="none">
	<g id="icon_2_" display="inline">
		<g>
			<path fill="#1E1E1E" d="M1260.578,275.828c-6.516-15.203-24.434-38.551-42.896-29.863c-16.288,7.602-51.038,43.98-73.301,60.27
				c-28.233-2.172-96.104-35.836-109.68-54.297s-4.888-36.379-5.974-78.188c-0.543-16.289-40.18-16.832-48.867-5.973
				c-1.629,1.629-9.772,12.488-23.891,27.691l-2.172-2.715c-3.258-3.801-8.688-4.344-13.031-1.086
				c-3.801,3.258-4.344,8.688-1.086,12.488l3.801,4.344c-6.516,6.516-13.03,13.574-20.633,20.633l-5.43-6.516
				c-3.258-3.801-8.688-4.344-13.031-1.086c-3.801,3.258-4.344,8.688-1.086,12.488l5.973,7.059
				c-8.145,7.059-17.375,14.66-27.147,22.262l-2.172-4.887c-2.172-4.344-7.603-6.516-11.945-4.344
				c-4.343,2.172-6.516,7.602-4.344,11.945l3.801,8.145c-10.315,7.059-21.176,14.117-33.121,20.633l-3.258-6.516
				c-2.172-4.344-7.602-6.516-11.944-4.344c-4.344,2.172-6.517,7.602-4.345,11.945l3.258,7.059
				c-16.288,8.145-33.663,15.203-51.582,20.09c-59.184,17.918-168.862,19.004-163.977,85.246
				c0.543,9.773,18.461,16.289,18.461,23.892c0,10.858-6.516,20.633-5.973,23.891c1.629,9.23,16.288,24.978,30.405,23.892
				c11.945-0.543,23.892-17.375,30.406-11.945c2.715,2.172-2.715,16.832,0,23.891c4.344,10.859,20.09,16.289,30.406,17.918
				c9.229,1.629,27.691-21.176,36.379-17.918c12.488,4.345,12.488,32.578,24.434,35.836c5.431,1.629,13.031-1.629,18.461,0
				c23.349,5.974,19.548-30.948,30.406-29.862c10.859,0.543,18.461,35.836,18.461,35.836s19.547,0,42.896,0
				c9.772-11.945,8.145-8.146,11.944-29.863c54.841-1.629,188.953,0,188.953,0s-3.801,15.203,0,23.891
				c2.172,4.888,11.945,5.974,11.945,5.974s34.75,0,48.867,0c4.887-12.488,5.973-35.836,5.973-35.836h11.945
				c0,0,5.973,26.063,11.944,35.836c16.289,0,48.867,0,48.867,0s8.688-21.719,11.945-29.863c10.858-25.52,38.008-38.008,54.84-60.27
				C1321.934,395.824,1266.551,291.031,1260.578,275.828z M954.344,221.531l9.23,10.859c3.258,3.801,8.688,4.344,13.031,1.086
				c3.801-3.258,4.344-8.688,1.086-12.488l-9.773-12.488c1.629-0.543,3.801-0.543,5.43-0.543
				c10.316,0.543,17.918,9.23,16.832,19.004c-0.543,9.773-9.229,17.375-19.547,16.832c-10.316-0.543-17.918-9.23-16.832-19.004
				C953.801,223.703,953.801,222.617,954.344,221.531z M941.313,232.934c0.543,2.172,1.086,4.344,1.63,6.516
				c-1.63-1.086-3.802-2.172-5.974-2.715C939.141,235.648,940.227,234.02,941.313,232.934z M917.422,250.852l9.773,11.945
				c3.258,3.801,8.688,4.344,13.031,1.086c3.801-3.258,4.344-8.688,1.086-12.488l-7.603-9.23c0.543,0,0.543,0,1.086,0
				c10.316,0.543,17.918,9.23,16.832,19.004c-0.543,9.773-9.229,17.375-19.547,16.832s-17.918-9.23-16.832-19.004
				C914.707,255.738,915.793,253.023,917.422,250.852z M902.762,267.684c2.172,11.945,12.488,20.633,24.978,21.719
				c5.43,0.543,10.858-1.086,15.203-3.258c0.543-0.543,4.344-3.258,8.688-7.602c0.543-1.086,1.629-2.172,2.172-3.258
				c-0.543,1.086-1.086,2.172-1.629,2.715l-0.543,0.543c-2.172,3.258-5.43,5.973-8.688,7.602l0,0
				c-0.543,7.059,3.259,35.293-5.43,61.898c-17.375,52.125-24.434,57.012-68.414,77.102l31.492-107.507
				c6.516-4.344,10.859-11.402,11.402-20.09c0.543-10.859-4.887-20.633-14.117-25.52
				C899.504,270.941,901.133,269.313,902.762,267.684z M871.813,283.973l7.06,15.203c2.172,4.344,7.602,6.516,11.945,4.344
				c4.343-2.172,6.516-7.602,4.344-11.945l-7.603-16.289c0.543,0,0.543,0,1.086,0c10.316,0.543,17.918,9.23,16.832,19.004
				c-0.543,9.773-9.229,17.375-19.547,16.832c-10.316-0.543-17.918-9.23-16.832-19.004
				C869.641,288.859,870.727,286.145,871.813,283.973z M825.66,319.266l4.887,9.773c2.172,4.344,7.602,6.516,11.945,4.344
				c4.343-2.172,6.516-7.602,4.344-11.945l-6.516-13.574c1.086,0,2.172,0,3.258,0c10.316,0.543,17.918,9.23,16.832,19.004
				c-0.543,9.773-9.23,17.375-19.547,16.832c-10.317-0.543-17.918-9.23-16.832-19.004
				C824.574,323.066,825.117,320.895,825.66,319.266z M837.605,355.645c1.629,0,3.258,0,4.887,0l-20.633,85.246l5.973,1.629
				l21.719-88.504l0,0c9.773-3.801,16.832-12.488,17.918-23.348c0.543-10.859-4.887-20.633-14.117-25.52
				c1.629-1.086,3.259-2.172,4.888-3.258c2.715,11.402,12.487,20.09,24.434,20.633c3.802,0,7.06,0,10.316-1.086l-31.492,106.965
				c-6.517,2.715-13.574,5.973-21.719,9.772c-10.316,4.888-17.918,11.945-23.892,19.004l0.543-0.543c0,0-13.03-3.258-30.948-8.688
				l29.319-106.965C819.688,349.672,827.832,355.102,837.605,355.645z M803.398,330.125c2.715-1.086,5.973-2.172,8.688-3.258l0,0
				c0,1.629,0,3.258,0,4.887l0,0l-32.035,115.109c-9.229-2.715-20.09-5.974-30.949-9.773l29.32-100.449
				C787.652,335.012,795.797,332.84,803.398,330.125z M771.906,338.27l-28.234,97.191c-9.773-3.258-20.09-6.516-29.32-10.316
				l21.177-79.815C747.473,343.156,759.961,340.984,771.906,338.27z M708.379,422.973c-24.434-9.229-43.979-19.004-45.066-27.147
				c-3.801-25.521,38.009-43.98,38.552-43.98c8.688-2.172,17.375-3.801,26.604-5.43L708.379,422.973z M713.809,425.145
				c-0.543,0-1.086-0.543-1.629-0.543L713.809,425.145z M701.863,352.387l-4.344,1.086
				C698.605,352.93,700.234,352.387,701.863,352.387z M1278.496,414.285c-3.801,18.461-22.262,33.664-48.867,60.27
				c-9.772,9.23-24.434,42.353-24.434,42.353h-30.406c0,0,0.543-29.863-5.973-35.836c-10.316,0-26.605,0-36.379,0
				c-3.802,11.944-5.974,35.836-5.974,35.836h-30.406v-29.863c0,0-17.375,0-42.895,0c0,0-35.293-67.328,48.867-102.078
				c66.241-27.69,167.776-35.836,167.776-35.836c-1.086-3.801-2.715-8.145-3.801-11.945c-7.059,0.543-129.227,9.773-194.383,48.324
				c-56.469,33.121-30.406,102.078-30.406,102.078c-53.211,0-129.227,0-158.547,0c-9.773,0-11.945,29.863-11.945,29.863H840.32
				c0,0,2.172-24.978-5.974-29.863c-4.887-3.258-25.52-8.145-36.379,0c-7.059,4.887-5.973,23.891-5.973,23.891h-18.461
				c0,0-4.345-3.801-5.974-11.944c-1.086-4.888-7.059-33.664-36.379-23.892c-8.688,2.716-18.461,17.918-18.461,17.918l-18.461-5.973
				c0,0,0-26.604-5.973-35.836c-2.715-4.344-14.66-3.801-24.435,0c-10.315,4.344-18.461,11.945-18.461,11.945l-12.487-7.603
				c0,0,3.801-12.488,5.973-23.891c1.629-9.773-16.832-24.978-18.461-29.863c8.145-26.605,37.465-39.094,72.758-47.781
				c-2.715,0.543-39.637,10.859-36.379,41.81C660.055,425.145,811,463.695,811,463.695l0,0
				c-7.059,10.858-10.316,20.633-10.316,20.633s5.974-2.172,10.316-2.715c3.801,0,9.23,1.086,9.23,1.086
				s-4.345-19.004,12.487-26.063c83.617-35.836,101.535-49.41,115.652-102.077c8.145-30.95,7.059-91.763,7.059-91.763s0,0,0,0.543
				s0,1.086,0,1.629c0,3.258-1.086,5.973-2.172,8.688c1.629-3.801,2.172-8.688,2.172-10.316c0-3.801-0.543-7.059-2.172-10.859
				c3.258,2.172,7.603,3.258,11.945,3.801c15.203,1.086,28.233-10.316,29.319-24.977c1.086-14.661-9.772-27.148-24.434-28.777
				c13.031-13.574,20.633-22.805,20.633-22.805h18.461c0,0,2.172,49.953,2.172,71.672c0,19.004,92.306,68.414,119.453,72.758
				c30.406,4.887,79.273-63.527,91.219-60.27c13.031,3.258,30.406,36.379,42.353,72.215h0.543l3.258,11.945l0,0
				C1277.41,373.563,1281.754,399.082,1278.496,414.285z"/>
		</g>
	</g>
</g>
<g id="_x36__1_" display="none">
	<g id="icon_4_" display="inline">
		<g>
			<path fill="#1E1E1E" d="M954.344,463.152l62.984,62.44h17.918l90.133-98.276c0,0-10.316-20.634-27.147-26.605
				c-19.548-7.059-45.066,0-45.066,0L954.344,463.152z M1090.086,418.629c7.603,1.086,9.23,8.688,9.23,8.688l-71.672,83.616
				l-40.724-48.866l77.103-40.724C1064.023,421.344,1080.313,417,1090.086,418.629z M1297.5,534.824l-0.543-5.431
				c0-3.801-0.543-7.602-1.086-11.401v-0.543l0,0c-2.172-16.832-6.516-35.293-14.117-55.383
				c-15.203-13.574-65.699-16.289-65.699-16.289s-8.145-44.523-9.229-45.609c-29.863-21.176-51.582-51.039-64.07-76.016
				c-46.151-87.961-53.754-163.434-57.555-178.094c-6.517-23.891-27.691-41.809-48.867-40.723
				c-38.008,1.629-93.934-7.059-147.145-24.434C799.598,52.125,707.293,5.973,676.344,0c-27.147,20.633-30.949,34.75-24.434,64.613
				c34.207,60.813,237.277,111.852,237.277,111.852s-17.919,23.348-48.867,26.063c-28.777,2.172-71.129-5.973-73.845-8.145
				c-53.211-40.723-128.684-42.895-155.288-16.289c-30.406,30.406,30.948,123.254,65.698,251.396
				c17.375,65.699,24.435,243.25,24.435,243.25h90.133V405.055c0,0,9.772,1.086,16.289,16.289
				c28.233,89.047,105.879,224.246,154.746,251.396c20.09,10.858,70.043,32.578,130.854,16.289
				c87.961-23.892,191.125-85.789,196.012-97.191C1293.156,583.148,1298.586,563.059,1297.5,534.824L1297.5,534.824z
				 M765.934,218.816c90.677,35.293,171.578-42.352,171.578-42.352S679.059,73.301,675.801,64.613
				c-4.887-13.031,7.06-29.32,8.146-40.723c123.797,68.414,258.453,110.223,343.698,105.336
				c30.406-1.629,29.863,13.574,32.578,16.289c10.859,51.582,32.578,143.887,57.013,194.383
				c22.262,34.75,73.844,80.902,73.844,80.902v57.013c0,0,20.09,0,62.983,0.543c11.402,10.858,16.832,28.776,19.005,48.323
				c-57.013,22.263-210.673,72.759-314.923,27.148c-77.102-34.207-82.53-129.771-136.284-190.039
				c-73.302-81.445-173.75-131.941-190.039-140.086C626.934,143.887,774.078,222.074,765.934,218.816z M1273.066,567.402
				c-49.953,40.18-204.156,146.059-294.289,80.901c-60.813-38.008-117.281-147.145-149.859-229.676
				c-5.973-14.66-14.117-65.155-46.152-53.754c-28.233,10.315-16.289,183.522-16.289,275.828c-2.715,2.715-5.43,5.43-8.145,8.145
				c-8.145,0-32.578,0-32.578,0s-8.145-160.719-24.434-235.104c-16.289-74.93-47.238-102.621-65.156-169.949
				c22.805,10.859,111.852,56.469,176.465,130.855C865.84,435.461,871.27,533.738,950,568.488
				c107.508,47.237,266.055-2.172,325.238-23.892C1274.152,551.656,1274.152,559.801,1273.066,567.402z M1053.707,311.664
				l-12.488-20.633l-177.008,38.551l54.297,80.359L1053.707,311.664z M1024.93,315.465l-103.164,65.699l-24.434-40.723
				L1024.93,315.465z"/>
		</g>
	</g>
	<path display="inline" fill="#1E1E1E" d="M757.789,648.305"/>
	<path display="inline" fill="#1E1E1E" d="M757.789,648.305"/>
</g>
<g id="_x35__2_" display="none">
	<g id="icon_5_" display="inline">
		<g>
			<path fill="#1E1E1E" d="M1273.066,174.293c-14.66-14.66-5.431-10.316-72.759-55.383
				c-49.409,45.066-308.948,262.254-308.948,262.254s-210.129,26.063-236.734,42.895c-34.75,21.72-59.727,34.207-50.496,78.188
				c11.402,51.582,148.773,85.246,308.949,71.129c39.094-3.258,105.879-83.617,158.004-141.715
				c36.922-41.267,64.613-64.07,64.613-64.07v184.066c0,0,33.664,0,57.555,0C1235.059,407.77,1346.367,247.594,1273.066,174.293z
				 M1179.133,529.938c-9.772,0-21.719,0-21.719,0V338.813c0,0-4.887,0-14.117,0c-96.104,53.21-136.828,170.492-229.676,212.844
				c-56.469,12.487-286.688,4.344-287.23-64.07c1.086-50.496,85.789-61.354,172.121-71.672l0,0
				c3.258-0.543,11.945-1.629,12.488-1.629c28.234-3.258,56.469-7.06,81.445-11.945c11.401-2.172,207.957-158.547,308.949-255.195
				c0,0-276.371,283.43-316.009,283.43c-34.75,0-73.844-16.289-73.844-16.289l0,0c-4.344,0.543-8.146,1.086-12.488,1.629
				c2.716,15.746,53.212,34.75,93.392,28.777c64.613-9.773,318.723-291.574,319.266-292.66c-0.543,0-1.086-0.543-1.086-0.543
				l1.086,0.543l0,0c35.836,18.461,68.957,41.809,68.414,86.875C1277.953,329.582,1213.883,415.914,1179.133,529.938z"/>
		</g>
	</g>
</g>
<g id="_x34__2_">
	<path id="_x37_" fill="#EEC643" d="M837.143,366.468c0,0,15.077,14.881,75.972,12.728c50.713-1.763,152.728-18.602,152.728-18.602
		v3.72c0,0-101.818,16.839-152.335,18.405c-61.091,2.154-76.56-12.727-76.56-12.727v-3.524H837.143z"/>
	<g id="_x35__1_">
		<g>
			<path fill="#19647E" d="M1071.716,360.789c0,0,2.545-26.237,1.958-39.944s-11.748-12.335-15.469-11.356
				s-44.252,11.161-53.845,11.944c-9.595,0.783-18.798-15.86-25.064-21.539c-2.545-2.35-5.481-8.028-9.397-9.399
				c-5.288-1.958-11.749,0.587-15.47,0c-6.461-0.979-28.392,28-40.335,37.986c-11.944,9.986-51.497,15.86-61.483,17.035
				c-10.181,1.175-17.23,15.273-17.23,15.273l-1.958,5.679c0,0-0.783,0-1.958,0c-2.937,0-5.09,4.503-5.678,5.678
				c-0.392,0.979-1.175,7.637,0,11.356c1.566,4.896,37.79,17.818,59.525,18.993c38.769,2.153,70.098-0.392,76.951-1.958
				c9.985-2.35,36.615-7.637,36.615-7.637s0.391,0.588,0,3.72c-0.392,3.133,1.762,6.658,5.678,7.637
				c9.203,1.958,61.482-5.874,67.356-9.594c3.721-2.35,3.916-5.679,3.916-5.679v-24.279L1071.716,360.789z M1069.953,389.377
				c0,0-8.027,3.328-19.188,5.679c-19.385,3.915-46.21,3.719-46.21,3.719v-11.356c0,0-21.147,3.134-34.656,5.679
				c8.027-1.566-32.7,7.833-84.588,3.72c-31.721-2.35-53.847-15.272-53.847-15.272s-1.37-2.153-1.175-5.679
				c0.196-3.523,3.133-5.874,3.133-5.874s0.196,0,3.916,0c3.524,0,1.958,0,1.958,0v-5.679c0,0,7.441-12.923,13.511-13.314
				c5.875-0.391,52.672-8.223,61.482-15.272c5.091-4.111,37.008-40.335,42.294-39.944s11.553,0,11.553,0
				s22.908,30.349,28.783,30.937c6.069,0.783,58.349-11.553,61.481-11.944c3.329-0.392,9.399,0.392,9.595,5.678
				c0.392,5.287-0.195,32.112-1.958,36.224c-1.566,4.111-1.959,7.636-1.959,7.636s6.07-1.175,5.679,1.958
				C1069.563,369.601,1069.953,389.377,1069.953,389.377z"/>
		</g>
	</g>
	<path id="_x34_" fill="#19647E" d="M986.54,308.51c0,0,38.378-10.182,59.916-9.399c24.476,0.783,26.435,17.818,26.435,17.818
		h-5.679c0,0,1.175-9.986-20.756-11.553c-21.538-1.566-55.607,9.399-55.607,9.399L986.54,308.51z"/>
	<path id="_x33_" fill="#EEC643" d="M908.415,364.705c0,0,21.147-13.314,41.707-26.238c18.993-11.944,27.609-34.853,27.609-34.853
		l3.916,3.72c0,0-10.574,21.734-29.176,34.07c-18.014,11.944-34.266,21.147-34.266,21.147l51.693,15.469h-13.511L908.415,364.705z"
		/>
	<g id="_x32_">
		<g>
			<path fill="#EEC643" d="M922.709,322.803c-4.699,0-8.616,3.916-8.616,8.616s3.916,8.616,8.616,8.616
				c4.699,0,8.615-3.916,8.615-8.616C931.324,326.523,927.604,322.803,922.709,322.803z M922.709,336.118
				c-2.742,0-4.895-2.154-4.895-4.699c0-2.545,2.154-4.699,4.895-4.699c2.741,0,4.895,2.154,4.895,4.699
				C927.604,333.964,925.45,336.118,922.709,336.118z M951.688,297.936c-4.699,0-8.615,3.916-8.615,8.616s3.916,8.615,8.615,8.615
				c4.7,0,8.616-3.916,8.616-8.615S956.388,297.936,951.688,297.936z M951.688,311.25c-2.741,0-4.895-2.153-4.895-4.699
				c0-2.545,2.154-4.699,4.895-4.699c2.741,0,4.896,2.154,4.896,4.699C956.388,309.292,954.233,311.25,951.688,311.25z
				 M938.177,311.25c-4.699,0-8.615,3.917-8.615,8.616c0,4.699,3.915,8.615,8.615,8.615s8.615-3.916,8.615-8.615
				C946.792,315.167,942.876,311.25,938.177,311.25z M938.177,324.565c-2.741,0-4.895-2.154-4.895-4.699
				c0-2.545,2.154-4.7,4.895-4.7c2.742,0,4.896,2.154,4.896,4.7C942.876,322.607,940.723,324.565,938.177,324.565z"/>
		</g>
	</g>
	<g id="_x31_">
		<g>
			<path fill="#EEC643" d="M954.429,305.573l-12.727-10.377c-0.783-0.784-1.958-0.588-2.742,0c-0.783,0.783-0.587,1.958,0,2.741
				l12.728,10.377c0.783,0.783,1.958,0.587,2.741,0C955.408,307.531,955.213,306.356,954.429,305.573z M930.149,308.51
				c-0.783-0.784-1.958-0.588-2.742,0c-0.783,0.783-0.587,1.958,0,2.741l10.965,10.378c0.784,0.783,1.958,0.587,2.742,0
				c0.783-0.783,0.587-1.958,0-2.741L930.149,308.51z M916.639,320.062c-0.783-0.784-1.958-0.587-2.741,0
				c-0.783,0.783-0.588,1.958,0,2.741l9.007,10.378c0.783,0.783,1.958,0.587,2.741,0c0.784-0.784,0.588-1.958,0-2.742
				L916.639,320.062z"/>
		</g>
	</g>
</g>
<g id="_x33__2_" display="none">
	<g id="_x31__1_" display="inline">
		<g>
			<path fill="#1E1E1E" d="M723.039,259.539c-28.777,0-52.125,22.805-52.125,51.582c0,28.777,23.348,51.582,52.125,51.582
				s52.125-22.805,52.125-51.582C775.164,282.344,751.816,259.539,723.039,259.539z M723.039,354.016
				c-23.891,0-43.438-19.003-43.438-42.895s19.547-42.895,43.438-42.895s43.438,19.004,43.438,42.895
				S746.93,354.016,723.039,354.016z"/>
		</g>
	</g>
	<g id="icon_7_" display="inline">
		<g>
			<path fill="#1E1E1E" d="M1264.379,424.602c-7.602-1.086-70.586-3.258-139.543-23.348v-20.633c0-3.258-2.715-5.973-5.973-5.973
				s-5.974,2.715-5.974,5.973v16.832c-10.858-3.801-21.719-7.602-33.12-11.945l2.172-15.746c0.543-3.258-2.172-6.516-5.431-7.059
				c-3.258-0.543-6.516,1.629-7.059,5.43l-1.629,11.945c-7.603-3.258-15.203-7.059-22.806-11.402
				c-1.629-1.086-2.715-1.629-4.344-2.715l3.801-13.574c1.086-3.258-1.086-6.516-4.344-7.602s-6.516,1.086-7.602,4.344
				l-2.715,10.316c-10.859-6.516-21.177-12.488-30.949-19.004l4.344-11.402c1.086-3.258,0-6.516-3.258-7.602s-6.516,0-8.146,3.258
				l-3.801,8.688c-8.688-5.43-16.289-11.402-23.891-16.832l5.973-8.145c2.172-2.715,1.086-6.516-1.629-8.688
				c-2.715-2.172-6.517-1.086-8.688,1.629l-5.43,8.145c-9.773-7.602-19.004-14.66-27.691-22.262l6.517-9.23
				c2.172-2.715,1.086-6.516-1.629-8.688s-6.517-1.086-8.688,1.629l-5.973,8.145c-8.688-7.602-16.832-15.203-23.891-22.805
				l11.944-10.316c2.716-2.172,2.716-5.973,0.543-8.688c-2.172-2.715-5.973-2.715-8.688-0.543l-12.488,10.859
				c-8.688-8.688-15.746-17.375-21.719-24.977l11.944-7.059c2.716-2.172,2.716-5.973,0.544-8.688
				c-2.173-2.715-5.974-2.715-8.688-0.543l-10.859,6.516c-18.461-22.805-24.977-38.008-24.977-38.008H628.02
				c0,0-1.086,128.141-12.487,145.516c-25.521,38.55-5.974,175.378-5.974,175.378s3.802,24.435,42.896,24.435
				c30.949,0,313.836,0,441.434,0c2.173,0,4.345,0,5.974,0c30.406,0,50.496,0,55.383,0c36.379,0,134.113-9.23,141.172-42.353
				C1301.301,455.008,1287.727,427.859,1264.379,424.602z M1112.348,412.656v10.315c0,3.259,2.715,5.974,5.974,5.974
				c3.258,0,5.973-2.715,5.973-5.974v-10.315c3.801,2.172,5.974,5.973,5.974,10.315c0,6.517-5.431,11.945-12.488,11.945
				c-6.517,0-12.488-5.43-12.488-11.945C1106.375,418.629,1109.09,414.828,1112.348,412.656z M1065.109,400.168l-1.629,10.316
				c-0.543,3.258,2.172,6.516,5.43,7.059s6.516-1.629,7.059-5.43l1.629-10.316c2.715,2.172,4.345,5.43,4.345,9.23
				c0,6.516-5.431,11.944-12.488,11.944c-6.517,0-12.488-5.43-12.488-11.944C1057.508,406.141,1060.223,401.797,1065.109,400.168z
				 M1025.473,397.996c3.259,1.086,6.517-1.086,7.603-4.344l2.715-9.23c2.172,2.172,3.258,4.887,3.258,8.145
				c0,6.517-5.43,11.945-12.487,11.945c-7.059,0-12.488-5.43-12.488-11.945c0-5.973,3.801-10.315,9.229-11.944l-2.715,9.229
				C1020.043,393.652,1022.215,396.91,1025.473,397.996z M987.465,369.219l3.801-9.773c2.716,2.173,4.345,5.431,4.345,9.23
				c0,6.516-5.431,11.945-12.488,11.945c-6.516,0-12.488-5.43-12.488-11.945c0-4.887,3.259-9.23,7.603-11.402l-3.258,7.603
				c-1.086,3.258,0,6.517,3.258,8.146C982.578,374.105,986.379,372.477,987.465,369.219z M943.484,326.324l-7.603,10.859
				c-2.172,2.715-1.086,6.516,1.629,8.688c2.716,2.172,6.517,1.086,8.688-1.629l6.516-9.23c0.543,1.086,0.543,2.172,0.543,3.801
				c0,6.516-5.43,11.945-12.488,11.945c-6.516,0-12.487-5.43-12.487-11.945s5.43-11.945,12.487-11.945
				C941.855,326.324,942.398,326.324,943.484,326.324z M900.59,315.465c2.715,2.172,6.516,1.086,8.688-1.629l6.516-9.23
				c0.543,1.086,0.543,2.172,0.543,3.801c0,6.516-5.43,11.945-12.487,11.945c-6.517,0-12.488-5.43-12.488-11.945
				c0-6.515,5.43-11.945,12.488-11.945c1.086,0,1.629,0,2.715,0l-7.603,10.859C896.789,309.492,897.875,313.293,900.59,315.465z
				 M864.754,274.742c2.172,2.715,5.973,2.715,8.688,0.543l5.973-4.887c0,0.543,0,1.086,0,1.629c0,6.516-5.43,11.945-12.488,11.945
				c-6.516,0-12.487-5.43-12.487-11.945c0-6.515,5.43-11.945,12.487-11.945c1.63,0,3.259,0.543,4.345,1.086l-6.517,5.43
				C863.125,268.227,862.582,272.027,864.754,274.742z M842.492,217.188c2.172,0,4.344,0.543,5.973,1.629l-7.602,4.887
				c-2.715,2.172-2.715,5.973-0.543,8.688c2.172,2.715,5.973,2.715,8.688,0.543l5.973-3.801l0,0c0,6.516-5.43,11.945-12.487,11.945
				c-6.517,0-12.488-5.43-12.488-11.945C830.005,222.619,835.977,217.188,842.492,217.188z M818.059,193.297
				c0,0,5.431,7.602,15.746,20.633c-5.973,3.258-9.772,9.23-9.772,15.746c0,9.773,8.145,17.918,18.461,17.918
				c5.973,0,10.858-2.715,14.117-7.059c3.801,4.344,7.602,8.688,11.944,13.031c-0.543,0-1.086,0-1.629,0
				c-10.315,0-18.461,8.145-18.461,17.918s8.146,17.918,18.461,17.918c10.316,0,18.461-8.145,18.461-17.918v-0.543
				c5.974,5.973,12.488,12.488,19.547,19.004c-0.543,0-0.543,0-1.086,0c-10.315,0-18.461,8.145-18.461,17.918
				c0,9.773,8.146,17.918,18.461,17.918c10.316,0,18.461-8.145,18.461-17.918c0-0.543,0-1.629,0-2.172
				c5.431,4.887,11.402,9.773,16.832,14.66c-9.229,0.543-16.832,8.688-16.832,17.918c0,9.773,8.146,17.918,18.461,17.918
				c10.316,0,18.461-8.146,18.461-17.918c0-0.543,0-1.629,0-2.172c6.517,4.887,13.574,9.773,20.091,14.66
				c-8.146,2.173-14.117,9.229-14.117,17.375c0,9.773,8.145,17.918,18.461,17.918c10.315,0,18.461-8.145,18.461-17.918
				c0-1.086,0-1.629,0-2.715c5.43,3.801,11.402,7.06,17.375,10.315c-6.516,2.716-10.859,9.23-10.859,16.289
				c0,9.773,8.146,17.919,18.462,17.919c10.315,0,18.461-8.146,18.461-17.919c0-1.086,0-2.172-0.543-2.715
				c4.887,2.172,9.229,4.344,14.116,6.517c-4.887,3.258-7.602,8.688-7.602,14.66c0,9.772,8.145,17.918,18.461,17.918
				s18.461-8.146,18.461-17.918c0-1.086,0-2.716-0.543-3.802c5.431,1.629,10.859,3.802,16.289,5.431
				c-2.172,3.258-3.801,6.516-3.801,10.858c0,9.773,8.145,17.918,18.461,17.918c10.315,0,18.461-8.145,18.461-17.918
				c0-0.543,0-1.086,0-1.629c13.574,3.258,26.604,5.974,38.551,8.146h-1.086c0,0,7.603,8.688,5.431,11.401
				c-2.173,3.259-45.066,10.316-106.966-3.258c-43.438-9.772-92.305-31.492-131.94-57.012
				C834.891,312.75,793.625,193.297,793.625,193.297H818.059z M1093.887,501.703H652.453c0,0-16.289,2.715-22.262-11.945h463.694
				L1093.887,501.703L1093.887,501.703z M1093.887,483.785H628.563c-0.543-1.629-0.543-3.801-0.543-5.973
				c0-3.802-0.543-10.316-1.629-18.462c1.086,2.173,5.974,6.517,29.863,6.517c89.047,0,291.031,4.344,438.176,5.973v11.945H1093.887
				z M655.711,459.352c-25.52,0-29.863-3.801-30.406-5.973l0.543,4.344l0,0c0-1.086-0.543-2.715-0.543-4.344l0,0v-1.086l0,0
				c-3.258-26.063-8.688-64.07-3.258-90.133c4.887-24.434,17.918-40.723,18.461-54.297c0-20.09,5.973-114.566,5.973-114.566H781.68
				c0,0,45.066,119.996,122.711,175.379c83.074,59.728,120.539,67.871,165.605,78.73c66.785,16.289,120.539,1.086,122.711,0
				s-4.887-15.203-4.887-15.203h-1.086c20.633,3.801,38.551,5.973,51.582,7.059h-1.629c0,0-0.543,26.605-72.216,26.605
				C1025.473,465.867,759.961,459.352,655.711,459.352z M1277.953,477.813c-10.316,16.289-110.223,24.435-110.223,24.435h-67.328
				V471.84c23.348,0,45.065,0.543,64.612,0.543c80.359,0,81.988-31.492,81.988-31.492h-1.086c7.059,0.543,11.945,1.086,14.117,1.629
				C1272.523,443.063,1288.27,461.523,1277.953,477.813z M839.777,411.027c-8.688,0-15.746,6.516-15.746,15.203
				c0,8.145,7.059,15.202,15.746,15.202c8.687,0,15.746-6.516,15.746-15.202C855.523,418.086,848.465,411.027,839.777,411.027z
				 M839.777,436.547c-5.974,0-10.316-4.344-10.316-10.315c0-5.431,4.887-10.316,10.316-10.316c5.973,0,10.315,4.344,10.315,10.316
				C850.637,431.66,845.75,436.547,839.777,436.547z M888.102,411.027c-8.688,0-15.746,6.516-15.746,15.203
				c0,8.145,7.06,15.202,15.746,15.202c8.688,0,15.746-6.516,15.746-15.202C903.848,418.086,896.789,411.027,888.102,411.027z
				 M888.102,436.547c-5.973,0-10.315-4.344-10.315-10.315c0-5.431,4.887-10.316,10.315-10.316c5.974,0,10.316,4.344,10.316,10.316
				C898.961,431.66,894.074,436.547,888.102,436.547z"/>
		</g>
	</g>
</g>
<g id="_x32__3_" display="none">
	<g id="icon_8_" display="inline">
		<g>
			<path fill="#1E1E1E" d="M1200.852,30.406c0,0-54.297,85.789-140.629,112.938c-76.559,23.891-165.604-3.258-165.604-3.258
				s-4.888,36.379-17.375,87.418c-5.974-3.258-9.773-5.43-9.773-5.43c-7.059-1.629-14.116,1.086-15.202,5.973
				c-1.63,5.43,3.258,10.859,10.315,12.488c0,0,3.801,2.715,9.772,5.43c-2.715,10.316-5.973,21.176-9.229,32.578
				c-1.086-0.543-1.086-1.086-1.086-1.086c-6.516-2.715-14.117-1.086-16.289,3.801c-2.172,4.887,1.629,11.402,8.146,14.117
				c0,0,1.086,1.086,3.258,2.715c-4.887,14.66-10.316,29.863-15.746,45.066c-3.801-2.715-5.973-4.887-5.973-4.887
				c-6.517-2.715-14.117-1.086-16.289,3.801c-2.172,4.887,1.629,11.403,8.145,14.118c0,0,2.172,2.172,6.516,4.887
				c-5.973,14.117-12.487,28.234-19.547,42.352c-3.258-2.715-5.43-4.344-5.43-4.344c-6.516-2.715-14.117-1.086-16.289,3.801
				s1.629,11.402,8.145,14.117c0,0,1.63,1.086,4.345,3.258c-6.517,11.945-14.117,23.349-21.72,34.75
				c-0.543,1.086-1.086,1.629-2.172,2.715c-4.887-3.801-7.602-6.516-7.602-6.516c-6.516-2.715-14.117-1.086-16.289,3.801
				s1.629,11.402,8.145,14.117c0,0,1.087,1.086,2.716,2.715C706.75,527.223,602.5,473.469,602.5,599.438
				c0,79.273,359.445,57.013,380.621,56.47c50.496-1.629,69.5-111.853,103.707-182.438c47.238-98.82,87.961-123.254,87.961-121.625
				c0,0,11.945,44.523,17.375,95.563c10.316,91.219,8.688,217.188,8.688,217.188h79.273c0,0,0-196.555,0-295.375
				c0-78.73,17.375-113.48,17.375-163.977C1297.5,130.313,1200.852,30.406,1200.852,30.406z M1270.895,212.844
				c-4.887,60.27-17.375,87.418-17.375,130.313c0,45.065,0,295.375,0,295.375h-26.604l-8.688-165.063
				c0,0-11.944-132.484-26.604-173.75c0,3.258-80.902,64.07-123.254,147.688c-40.724,80.358-55.383,182.438-96.105,182.438
				c-129.77,0-312.75,8.688-343.155-34.75c-6.517-9.229,1.629-39.094,17.375-52.125c15.746-13.03,96.647-21.719,123.254-34.75
				c6.516-3.258,14.117-10.315,22.805-20.09c2.172,1.086,3.801,2.172,5.973,2.715c4.888,2.172,10.316,3.801,15.203,4.888
				c0.543,11.944,9.773,21.176,21.719,21.176c11.946,0,22.263-9.773,22.263-21.719c0-11.946-9.773-21.72-22.263-21.72
				c-4.887,0-9.772,1.629-13.03,4.345c-5.431-1.087-11.402-2.716-17.375-5.431l0,0c7.602-10.858,15.746-22.805,23.891-35.836
				c1.629,1.086,3.258,1.629,5.431,2.715c4.887,2.172,10.315,3.802,15.202,4.888c0.544,11.944,9.773,21.176,21.72,21.176
				c11.945,0,22.262-9.773,22.262-21.719c0-11.946-9.773-21.72-22.262-21.72c-4.888,0-9.773,1.629-13.031,4.345
				c-5.43-1.087-11.402-2.716-17.375-5.431c-0.543-0.543-1.086-0.543-1.629-1.086c7.602-13.574,14.66-28.233,20.633-41.809
				c0.543,0,0.543,0.543,1.086,0.543c4.887,2.172,10.316,3.801,15.203,4.887c0.543,11.945,9.773,21.176,21.719,21.176
				c11.946,0,22.262-9.772,22.262-21.719s-9.772-21.719-22.262-21.719c-4.887,0-9.773,1.629-13.031,4.344
				c-5.43-1.086-11.401-2.715-17.375-5.431c5.974-14.659,10.859-29.862,15.203-44.522c1.629,0.543,3.258,1.629,4.344,2.172
				c4.888,2.172,10.316,3.801,15.203,4.887c0.543,11.945,9.773,21.176,21.72,21.176c11.945,0,22.262-9.773,22.262-21.719
				s-9.773-21.719-22.262-21.719c-4.888,0-9.773,1.629-13.031,4.344c-5.431-1.086-11.402-2.715-17.375-5.43
				c-1.629-1.086-3.801-1.629-5.431-2.715c3.802-13.574,7.06-27.148,9.23-39.637c0.543,0,1.086,0,1.086,0.543
				c4.887,1.086,9.23,1.629,13.574,2.172c2.715,8.688,10.859,14.66,20.633,14.66c11.945,0,22.262-9.773,22.262-21.719
				s-9.772-21.719-22.262-21.719c-7.602,0-14.117,3.801-17.918,9.23c-4.344-0.543-8.688-1.086-13.031-2.172h-0.543
				c7.603-39.637,9.773-67.871,9.773-67.871s116.194,12.488,158.547,0c69.5-20.633,131.941-95.563,131.941-95.563
				S1276.324,152.574,1270.895,212.844z M845.75,486.5c2.172,2.172,3.258,5.43,3.258,8.688c0,7.06-5.973,13.031-13.031,13.031
				c-6.516,0-11.944-4.887-13.03-10.858c4.344,0.543,7.602,0.543,7.602,0.543c6.517,2.715,14.117,1.086,16.289-3.802
				C847.379,491.93,846.836,489.215,845.75,486.5z M880.5,434.375c2.172,2.172,3.258,5.43,3.258,8.688
				c0,7.06-5.973,13.031-13.031,13.031c-6.516,0-11.944-4.887-13.03-10.858c4.344,0.543,7.602,0.543,7.602,0.543
				c6.517,2.715,14.117,1.086,16.289-3.802C882.129,439.805,882.129,437.09,880.5,434.375z M907.105,373.563
				c2.172,2.172,3.258,5.431,3.258,8.688c0,7.06-5.974,13.031-13.031,13.031c-6.516,0-11.945-4.888-13.031-10.859
				c4.344,0.543,7.603,0.543,7.603,0.543c6.516,2.716,14.116,1.086,16.288-3.801C908.734,378.992,908.191,376.277,907.105,373.563z
				 M933.711,312.75c2.172,2.172,3.258,5.43,3.258,8.688c0,7.059-5.973,13.031-13.031,13.031c-6.516,0-11.944-4.887-13.03-10.859
				c4.344,0.543,7.602,0.543,7.602,0.543c6.517,2.715,14.117,1.086,16.289-3.801C935.34,318.18,934.797,315.465,933.711,312.75z
				 M929.91,258.453c7.059,1.629,14.117-1.086,15.203-5.973c0-0.543,0-0.543,0-1.086c0,0.543,0,0.543,0,1.086
				c0,7.059-5.974,13.031-13.031,13.031c-4.344,0-8.688-2.172-10.859-5.973C926.652,258.996,929.91,258.453,929.91,258.453z
				 M935.34,239.449c0,0-3.258,0.543-8.145,0.543c1.629-0.543,3.258-1.086,5.43-1.086c4.344,0,7.602,2.172,10.316,4.887
				C940.77,241.621,938.055,240.535,935.34,239.449z"/>
		</g>
	</g>
	<path id="line_1_" display="inline" fill="#1E1E1E" d="M629.105,569.031c0,0,115.651-16.832,211.215-26.063
		c98.819-9.229,140.629-368.676,140.629-368.676l17.375,0.543c0,0-45.609,362.703-149.316,376.82
		c-78.188,10.858-223.16,26.063-223.16,26.063L629.105,569.031z"/>
</g>
<g id="_x31__3_" display="none">
	<g id="icon_9_" display="inline">
		<g>
			<path fill="#1E1E1E" d="M1296.414,411.57c3.801-27.148-13.574-60.271-68.957-70.043c-17.918-3.258-34.75-5.973-70.043-5.973
				c-19.547,0-50.496-9.773-85.789-23.891l2.715-1.629c4.344-2.715,5.43-7.602,3.258-11.945c-2.715-4.344-7.602-5.43-11.944-2.715
				l-13.574,8.145c-5.43-2.172-11.402-4.887-16.832-7.602l4.344-2.715c4.345-2.715,5.431-7.602,3.259-11.945
				c-2.716-4.344-7.603-5.43-11.945-2.715l-14.66,8.688c-4.887-2.172-9.773-4.887-14.66-7.059l5.974-3.801
				c4.344-2.715,5.43-7.602,3.258-11.945c-2.715-4.344-8.146-5.43-11.945-2.715l-15.746,9.23c-5.43-2.715-10.858-5.43-16.289-7.602
				l5.974-3.258c4.344-2.715,5.43-7.602,3.258-11.945c-2.715-4.344-8.146-5.43-11.945-2.715l-15.203,9.23
				c-5.973-3.258-11.944-5.973-17.375-8.688l3.258-2.172c4.345-2.715,5.431-7.602,3.259-11.945
				c-2.716-4.344-7.603-5.43-11.945-2.715l-13.031,7.602c-24.977-12.488-42.352-21.176-45.608-21.176
				c-29.32,0-23.349,22.805-23.349,22.805s-38.008,45.609-76.016,40.18c-57.013-8.145-86.332-69.5-95.563-69.5
				c-9.23,0-49.41,52.125-58.641,103.707C600.328,393.109,602.5,433.832,602.5,433.832v17.375v11.402
				c0,0,3.801,22.805,35.293,22.805c45.609,0,594.008,0,601.609,0c29.319-0.543,46.694-27.148,52.668-46.152
				c5.973-19.547,5.973-28.776,5.973-28.776S1296.957,411.027,1296.414,411.57z M1233.43,468.582c-12.487,0-466.953,0-589.121,0
				c-28.233,0-23.891-17.375-23.891-17.375s605.41,0,624.957,0s35.293-13.574,35.293-13.574S1266.551,469.125,1233.43,468.582z
				 M1276.867,426.773c-1.086,0.543-1.629,1.086-2.715,1.629c-5.431,3.801-13.031,4.887-19.547,5.973c-2.716,0-8.146,0-15.746,0
				c-34.75,0-116.738,0-210.129,0c0,0-1.63-15.746,17.375-22.805c19.004-7.06,80.901-16.289,105.336-17.375
				c32.034-1.629,68.414-38.551,68.414-38.551s0,0-0.543,0l-9.773-1.629c0,0-38.008,28.233-58.641,28.776
				c-30.949,1.086-115.109,15.746-128.685,28.777c-13.575,13.03-17.375,22.805-17.375,22.805c-15.203,0-30.948,0-46.694,0
				c0,0,21.719-25.52,39.637-38.008c19.547-13.574,168.32-42.353,168.32-42.353l0,0c-8.688,0-17.918-0.543-28.234-2.172h-0.543
				c0,0-19.547,2.715-45.066,7.602h0.543l-22.805,4.345c-31.492,5.974-65.699,14.66-81.988,23.892
				c-21.719,12.487-52.668,46.151-52.668,46.151c-158.004,0-315.465,0-315.465,0s0.543-11.945,2.172-28.777l0,0l0,0
				c0.543-5.43,1.086-11.401,1.629-17.374v-0.543l0,0c2.172-21.72,4.887-47.239,8.146-68.958
				c3.258-18.461,8.688-35.293,15.746-48.867l0,0v-0.543c9.229-19.004,19.547-30.949,24.977-30.949
				c7.06,0,42.353,57.555,93.392,57.555c60.27,0,99.362-63.527,99.362-63.527s10.859,5.43,28.777,14.117l-10.316,5.973
				c-4.344,2.715-5.43,7.602-3.258,11.945c2.715,4.344,7.603,5.43,11.945,2.715l19.547-11.945c5.43,2.715,11.401,5.43,17.918,8.688
				l-8.146,4.887c-4.344,2.715-5.43,7.602-3.258,11.945c2.715,4.344,8.146,5.43,11.945,2.715l17.918-10.859
				c5.43,2.715,10.859,4.887,16.289,7.602l-8.146,4.887c-4.344,2.715-5.43,7.602-3.258,11.945c2.715,4.344,8.146,5.43,11.945,2.715
				l17.918-10.316c4.887,2.172,9.772,4.887,14.66,7.059l-9.23,5.43c-4.344,2.715-5.43,7.602-3.258,11.945
				c2.715,4.344,7.603,5.43,11.945,2.715l19.004-11.402c5.43,2.715,10.858,5.43,16.289,7.602l-9.23,5.43
				c-4.344,2.715-5.43,7.602-3.258,11.945c2.715,4.344,7.603,5.43,11.945,2.715l19.004-11.402c5.43,2.715,10.858,4.887,16.289,7.602
				c27.69,13.031,49.41,19.004,68.414,21.719l28.233,2.173c15.203,0,28.777-1.087,42.896-0.544c2.715,0,5.973,0.544,9.772,1.63
				h0.543l0,0c19.004,4.344,48.324,19.004,59.728,38.008C1278.496,391.48,1287.184,414.285,1276.867,426.773z M865.297,266.598
				l-17.375-11.402l-5.973,5.973l17.375,11.402c-14.117,12.488-56.469,42.352-99.363,40.18
				c-19.004-0.543-63.527-22.805-63.527-22.805s3.802,4.887,5.974,8.145c0.543,0.543,0.543,1.086,1.086,2.172
				c-11.945-21.719-48.867-45.066-48.867-45.066l-7.602,13.574v0.543c0.543,0,42.895,26.063,42.895,43.98c0,9.773,0,10.859,0,34.75
				c0,36.379-66.242,39.638-66.785,39.638c0,0,0,0,0,0.543l-1.629,17.374l0,0c0,0,85.789-7.059,85.789-57.555
				c0,0,106.965,43.438,157.461,52.125c73.844,12.488,87.418-4.887,87.418-22.806c0-50.495-35.293-52.125-35.293-52.125
				s28.234,49.41-17.375,46.152c-51.039-3.801-192.754-40.18-192.754-40.18c0-4.887,0-10.859,0-17.375
				c0-2.715-0.543-5.43-1.629-8.145c0.543,1.629,1.086,2.172,1.086,2.172s34.75,16.289,53.211,17.375
				c58.641,2.715,105.336-46.152,105.336-46.152s21.176,19.004,73.844,41.809c46.152,20.09,130.855,43.438,130.855,43.438l0,0
				c7.602-1.629,15.203-3.258,22.262-4.345c-5.973-1.629-98.276-23.347-148.229-46.151
				C888.645,287.23,865.297,266.598,865.297,266.598z"/>
		</g>
	</g>
</g>
</svg>
