<?xml version="1.0" encoding="utf-8"?>
<!-- Generator: Adobe Illustrator 13.0.0, SVG Export Plug-In . SVG Version: 6.00 Build 14948)  -->
<!DOCTYPE svg PUBLIC "-//W3C//DTD SVG 1.1//EN" "http://www.w3.org/Graphics/SVG/1.1/DTD/svg11.dtd">
<svg version="1.1" id="Layer_1" xmlns="http://www.w3.org/2000/svg" xmlns:xlink="http://www.w3.org/1999/xlink" x="0px" y="0px"
	 width="300px" height="300px" viewBox="800 197.5 300 300" enable-background="new 800 197.5 300 300" xml:space="preserve">
<path fill="#FFFFFF" d="M883.398,416.688h120.288c19.612,0,36.189-15.163,36.189-34.772v-86.931c0-2.427-2.628-3.639-5.055-3.639
	H860.958c-2.426,0-4.447,1.618-4.447,4.043l-6.671,86.325C849.839,401.323,863.585,416.688,883.398,416.688z"/>
<path fill="none" stroke="#3D3D3D" stroke-width="2" stroke-miterlimit="10" d="M883.398,416.688h120.288
	c19.612,0,36.189-15.163,36.189-34.772v-86.931c0-2.427-2.628-3.639-5.055-3.639H860.958c-2.426,0-4.447,1.618-4.447,4.043
	l-6.671,86.325C849.839,401.323,863.585,416.688,883.398,416.688z"/>
<path fill="#FFFFFF" d="M894.518,416.688h120.287c19.609,0,35.178-15.163,35.178-34.772v-86.931c0-2.427-1.617-3.639-4.043-3.639
	H863.182c-2.426,0-5.256,1.213-5.256,3.639v86.931C857.925,401.525,874.705,416.688,894.518,416.688z"/>
<g>
	<g>
		<g>
			<defs>
				<path id="SVGID_1_" d="M894.518,416.688h120.287c19.609,0,35.178-15.163,35.178-34.772v-86.931c0-2.427-1.617-3.639-4.043-3.639
					H863.182c-2.426,0-5.256,1.213-5.256,3.639v86.931C857.925,401.525,874.705,416.688,894.518,416.688z"/>
			</defs>
			<clipPath id="SVGID_2_">
				<use xlink:href="#SVGID_1_"  overflow="visible"/>
			</clipPath>
			<path clip-path="url(#SVGID_2_)" fill="#19647E" d="M1072.222,404.559h-15.971c-1.416-4.044-5.862-8.896-11.523-8.896
				c-5.663,0-10.108,4.852-11.525,8.896h-21.428c-1.416-4.044-5.864-8.896-11.524-8.896c-5.661,0-10.107,4.852-11.523,8.896h-21.43
				c-1.414-4.044-5.862-8.896-11.522-8.896c-5.661,0-10.109,4.852-11.524,8.896h-21.632c-1.415-4.044-5.863-8.896-11.523-8.896
				c-5.458,0-10.108,4.852-11.523,8.896h-21.43c-1.415-4.044-5.863-8.896-11.523-8.896c-5.661,0-10.108,4.852-11.523,8.896H839.73
				v6.064h15.567c1.617,6.065,6.065,8.087,11.321,8.087s9.705-2.021,11.322-8.087h22.036c1.618,6.065,6.065,8.087,11.321,8.087
				s9.705-2.021,11.322-8.087h22.036c1.617,6.065,6.064,8.087,11.321,8.087c5.258,0,9.705-2.021,11.321-8.087h22.036
				c1.617,6.065,6.066,8.087,11.32,8.087c5.257,0,9.705-2.021,11.323-8.087h22.036c1.615,6.065,6.064,8.087,11.32,8.087
				c5.257,0,9.703-2.021,11.321-8.087h16.174v-6.064H1072.222z"/>
		</g>
	</g>
	<g>
		<g>
			<defs>
				<path id="SVGID_3_" d="M894.518,416.688h120.287c19.609,0,35.178-15.163,35.178-34.772v-86.931c0-2.427-1.617-3.639-4.043-3.639
					H863.182c-2.426,0-5.256,1.213-5.256,3.639v86.931C857.925,401.525,874.705,416.688,894.518,416.688z"/>
			</defs>
			<clipPath id="SVGID_4_">
				<use xlink:href="#SVGID_3_"  overflow="visible"/>
			</clipPath>
			<path clip-path="url(#SVGID_4_)" fill="#19647E" d="M1092.438,380.299h-15.971c-1.417-6.066-5.863-8.896-11.524-8.896
				c-5.458,0-10.107,2.83-11.521,8.896h-21.632c-1.417-6.066-5.863-8.896-11.524-8.896c-5.46,0-10.108,2.83-11.524,8.896h-21.43
				c-1.414-6.066-5.862-8.896-11.523-8.896c-5.66,0-10.106,2.83-11.522,8.896h-21.631c-1.415-6.066-5.864-8.896-11.524-8.896
				c-5.661,0-10.108,2.83-11.523,8.896h-21.43c-1.415-6.066-5.862-8.896-11.523-8.896c-5.458,0-10.107,2.83-11.522,8.896h-15.163
				v6.064h15.365c1.617,4.043,6.064,8.086,11.32,8.086c5.257,0,9.704-4.043,11.322-8.086h22.037
				c1.617,4.043,6.064,8.086,11.32,8.086c5.256,0,9.705-4.043,11.322-8.086h22.037c1.617,4.043,6.063,8.086,11.319,8.086
				c5.256,0,9.705-4.043,11.321-8.086h22.038c1.616,4.043,6.064,8.086,11.321,8.086c5.256,0,9.705-4.043,11.32-8.086h22.036
				c1.618,4.043,6.063,8.086,11.321,8.086c5.256,0,9.705-4.043,11.32-8.086h16.173v-6.064H1092.438z"/>
		</g>
	</g>
	<g>
		<g>
			<defs>
				<path id="SVGID_5_" d="M894.518,416.688h120.287c19.609,0,35.178-15.163,35.178-34.772v-86.931c0-2.427-1.617-3.639-4.043-3.639
					H863.182c-2.426,0-5.256,1.213-5.256,3.639v86.931C857.925,401.525,874.705,416.688,894.518,416.688z"/>
			</defs>
			<clipPath id="SVGID_6_">
				<use xlink:href="#SVGID_5_"  overflow="visible"/>
			</clipPath>
			<path clip-path="url(#SVGID_6_)" fill="#19647E" d="M1072.222,354.018h-15.971c-1.416-6.066-5.862-8.896-11.523-8.896
				c-5.663,0-10.108,2.83-11.525,8.896h-21.428c-1.416-6.066-5.864-8.896-11.524-8.896c-5.661,0-10.107,2.83-11.523,8.896h-21.43
				c-1.414-6.066-5.862-8.896-11.522-8.896c-5.661,0-10.109,2.83-11.524,8.896h-21.632c-1.415-6.066-5.863-8.896-11.523-8.896
				c-5.458,0-10.108,2.83-11.523,8.896h-21.43c-1.415-6.066-5.863-8.896-11.523-8.896c-5.661,0-10.108,2.83-11.523,8.896H839.73
				v6.064h15.567c1.617,4.044,6.065,8.087,11.321,8.087s9.705-4.043,11.322-8.087h22.036c1.618,4.044,6.065,8.087,11.321,8.087
				s9.705-4.043,11.322-8.087h22.036c1.617,4.044,6.064,8.087,11.321,8.087c5.258,0,9.705-4.043,11.321-8.087h22.036
				c1.617,4.044,6.066,8.087,11.32,8.087c5.257,0,9.705-4.043,11.323-8.087h22.036c1.615,4.044,6.064,8.087,11.32,8.087
				c5.257,0,9.703-4.043,11.321-8.087h16.174v-6.064H1072.222z"/>
		</g>
	</g>
	<g>
		<g>
			<defs>
				<path id="SVGID_7_" d="M894.518,416.688h120.287c19.609,0,35.178-15.163,35.178-34.772v-86.931c0-2.427-1.617-3.639-4.043-3.639
					H863.182c-2.426,0-5.256,1.213-5.256,3.639v86.931C857.925,401.525,874.705,416.688,894.518,416.688z"/>
			</defs>
			<clipPath id="SVGID_8_">
				<use xlink:href="#SVGID_7_"  overflow="visible"/>
			</clipPath>
			<path clip-path="url(#SVGID_8_)" fill="#EEC643" d="M1072.222,303.476h-15.971c-1.416-4.043-5.862-8.896-11.523-8.896
				c-5.663,0-10.108,4.852-11.525,8.896h-21.428c-1.416-4.043-5.864-8.896-11.524-8.896c-5.661,0-10.107,4.852-11.523,8.896h-21.43
				c-1.414-4.043-5.862-8.896-11.522-8.896c-5.661,0-10.109,4.852-11.524,8.896h-21.632c-1.415-4.043-5.863-8.896-11.523-8.896
				c-5.458,0-10.108,4.852-11.523,8.896h-21.43c-1.415-4.043-5.863-8.896-11.523-8.896c-5.661,0-10.108,4.852-11.523,8.896H839.73
				v8.086h15.567c1.617,4.043,6.065,8.087,11.321,8.087s9.705-4.042,11.322-8.087h22.036c1.618,4.043,6.065,8.087,11.321,8.087
				s9.705-4.042,11.322-8.087h22.036c1.617,4.043,6.064,8.087,11.321,8.087c5.258,0,9.705-4.042,11.321-8.087h22.036
				c1.617,4.043,6.066,8.087,11.32,8.087c5.257,0,9.705-4.042,11.323-8.087h22.036c1.615,4.043,6.064,8.087,11.32,8.087
				c5.257,0,9.703-4.042,11.321-8.087h16.174v-8.086H1072.222L1072.222,303.476z"/>
		</g>
	</g>
	<g>
		<g>
			<defs>
				<path id="SVGID_9_" d="M894.518,416.688h120.287c19.609,0,35.178-15.163,35.178-34.772v-86.931c0-2.427-1.617-3.639-4.043-3.639
					H863.182c-2.426,0-5.256,1.213-5.256,3.639v86.931C857.925,401.525,874.705,416.688,894.518,416.688z"/>
			</defs>
			<clipPath id="SVGID_10_">
				<use xlink:href="#SVGID_9_"  overflow="visible"/>
			</clipPath>
			<path clip-path="url(#SVGID_10_)" fill="#19647E" d="M1092.438,327.735h-15.971c-1.417-4.043-5.863-8.895-11.524-8.895
				c-5.458,0-10.107,4.852-11.521,8.895h-21.632c-1.417-4.043-5.863-8.895-11.524-8.895c-5.46,0-10.108,4.852-11.524,8.895h-21.43
				c-1.414-4.043-5.862-8.895-11.523-8.895c-5.66,0-10.106,4.852-11.522,8.895h-21.631c-1.415-4.043-5.864-8.895-11.524-8.895
				c-5.661,0-10.108,4.852-11.523,8.895h-21.43c-1.415-4.043-5.862-8.895-11.523-8.895c-5.458,0-10.107,4.852-11.522,8.895h-15.163
				v8.087h15.365c1.617,4.043,6.064,8.087,11.32,8.087c5.257,0,9.704-4.043,11.322-8.087h22.037
				c1.617,4.043,6.064,8.087,11.32,8.087c5.256,0,9.705-4.043,11.322-8.087h22.037c1.617,4.043,6.063,8.087,11.319,8.087
				c5.256,0,9.705-4.043,11.321-8.087h22.038c1.616,4.043,6.064,8.087,11.321,8.087c5.256,0,9.705-4.043,11.32-8.087h22.036
				c1.618,4.043,6.063,8.087,11.321,8.087c5.256,0,9.705-4.043,11.32-8.087h16.173v-8.087H1092.438z"/>
		</g>
	</g>
</g>
<path fill="#EEC643" d="M1045.939,291.346H863.182c-2.426,0-5.256,1.213-5.256,3.639v10.512h192.057v-10.512
	C1049.982,292.558,1048.365,291.346,1045.939,291.346z"/>
<path fill="none" stroke="#3D3D3D" stroke-width="2" stroke-miterlimit="10" d="M894.518,416.688h120.287
	c19.609,0,35.178-15.163,35.178-34.772v-86.931c0-2.427-1.617-3.639-4.043-3.639H863.182c-2.426,0-5.256,1.213-5.256,3.639v86.931
	C857.925,401.525,874.705,416.688,894.518,416.688z"/>
<rect x="916.553" y="323.692" fill="#EEC643" width="78.847" height="50.541"/>
<rect x="916.553" y="323.692" fill="none" stroke="#3D3D3D" stroke-width="2" stroke-miterlimit="10" width="78.847" height="50.541"/>
<g>
	<g>
		<polyline fill="none" stroke="#3D3D3D" stroke-width="2" stroke-miterlimit="10" points="983.268,360.082 983.268,366.146 
			977.204,366.146 		"/>
		
			<line fill="none" stroke="#3D3D3D" stroke-width="2" stroke-miterlimit="10" stroke-dasharray="7,2" x1="973.159" y1="366.146" x2="936.77" y2="366.146"/>
		<polyline fill="none" stroke="#3D3D3D" stroke-width="2" stroke-miterlimit="10" points="934.749,366.146 928.683,366.146 
			928.683,360.082 		"/>
		
			<line fill="none" stroke="#3D3D3D" stroke-width="2" stroke-miterlimit="10" stroke-dasharray="6,2" x1="928.683" y1="356.038" x2="928.683" y2="341.888"/>
		<polyline fill="none" stroke="#3D3D3D" stroke-width="2" stroke-miterlimit="10" points="928.683,339.865 928.683,333.801 
			934.749,333.801 		"/>
		
			<line fill="none" stroke="#3D3D3D" stroke-width="2" stroke-miterlimit="10" stroke-dasharray="7,2" x1="938.792" y1="333.801" x2="975.182" y2="333.801"/>
		<polyline fill="none" stroke="#3D3D3D" stroke-width="2" stroke-miterlimit="10" points="977.204,333.801 983.268,333.801 
			983.268,339.865 		"/>
		
			<line fill="none" stroke="#3D3D3D" stroke-width="2" stroke-miterlimit="10" stroke-dasharray="6,2" x1="983.268" y1="343.909" x2="983.268" y2="358.06"/>
	</g>
</g>
<path fill="#FFFFFF" d="M826.792,284.27c-3.841-2.224-5.257-7.278-2.831-11.322c2.426-4.042,7.278-5.256,11.321-2.83
	c3.841,2.225,25.878,19.609,23.654,23.451C856.308,297.613,830.633,286.494,826.792,284.27z"/>
<path fill="none" stroke="#3D3D3D" stroke-width="2" stroke-miterlimit="10" d="M826.792,284.27
	c-3.841-2.224-5.257-7.278-2.831-11.322c2.426-4.042,7.278-5.256,11.321-2.83c3.841,2.225,25.878,19.609,23.654,23.451
	C856.308,297.613,830.633,286.494,826.792,284.27z"/>
<circle fill="#3D3D3D" cx="832.049" cy="277.801" r="3.437"/>
<line fill="none" stroke="#3D3D3D" stroke-width="2" stroke-miterlimit="10" x1="870.056" y1="291.346" x2="870.056" y2="301.454"/>
<line fill="none" stroke="#3D3D3D" stroke-width="2" stroke-miterlimit="10" x1="878.142" y1="291.346" x2="878.142" y2="301.454"/>
<line fill="none" stroke="#3D3D3D" stroke-width="2" stroke-miterlimit="10" x1="888.25" y1="291.346" x2="888.25" y2="301.454"/>
<line fill="none" stroke="#3D3D3D" stroke-width="2" stroke-miterlimit="10" x1="896.337" y1="291.346" x2="896.337" y2="301.454"/>
<line fill="none" stroke="#3D3D3D" stroke-width="2" stroke-miterlimit="10" x1="906.445" y1="291.346" x2="906.445" y2="301.454"/>
<line fill="none" stroke="#3D3D3D" stroke-width="2" stroke-miterlimit="10" x1="914.532" y1="291.346" x2="914.532" y2="301.454"/>
<line fill="none" stroke="#3D3D3D" stroke-width="2" stroke-miterlimit="10" x1="922.619" y1="291.346" x2="922.619" y2="301.454"/>
<line fill="none" stroke="#3D3D3D" stroke-width="2" stroke-miterlimit="10" x1="932.728" y1="291.346" x2="932.728" y2="301.454"/>
<line fill="none" stroke="#3D3D3D" stroke-width="2" stroke-miterlimit="10" x1="940.813" y1="291.346" x2="940.813" y2="301.454"/>
<line fill="none" stroke="#3D3D3D" stroke-width="2" stroke-miterlimit="10" x1="950.922" y1="291.346" x2="950.922" y2="301.454"/>
<line fill="none" stroke="#3D3D3D" stroke-width="2" stroke-miterlimit="10" x1="959.01" y1="291.346" x2="959.01" y2="301.454"/>
<line fill="none" stroke="#3D3D3D" stroke-width="2" stroke-miterlimit="10" x1="967.095" y1="291.346" x2="967.095" y2="301.454"/>
<line fill="none" stroke="#3D3D3D" stroke-width="2" stroke-miterlimit="10" x1="977.204" y1="291.346" x2="977.204" y2="301.454"/>
<line fill="none" stroke="#3D3D3D" stroke-width="2" stroke-miterlimit="10" x1="985.29" y1="291.346" x2="985.29" y2="301.454"/>
<line fill="none" stroke="#3D3D3D" stroke-width="2" stroke-miterlimit="10" x1="995.399" y1="291.346" x2="995.399" y2="301.454"/>
<line fill="none" stroke="#3D3D3D" stroke-width="2" stroke-miterlimit="10" x1="1003.483" y1="291.346" x2="1003.483" y2="301.454"/>
<line fill="none" stroke="#3D3D3D" stroke-width="2" stroke-miterlimit="10" x1="1011.57" y1="291.346" x2="1011.57" y2="301.454"/>
<line fill="none" stroke="#3D3D3D" stroke-width="2" stroke-miterlimit="10" x1="1021.679" y1="291.346" x2="1021.679" y2="301.454"/>
<line fill="none" stroke="#3D3D3D" stroke-width="2" stroke-miterlimit="10" x1="1029.767" y1="291.346" x2="1029.767" y2="301.454"/>
<line fill="none" stroke="#3D3D3D" stroke-width="2" stroke-miterlimit="10" x1="1039.875" y1="291.346" x2="1039.875" y2="301.454"/>
</svg>
