<?xml version="1.0" encoding="utf-8"?>
<!-- Generator: Adobe Illustrator 13.0.0, SVG Export Plug-In . SVG Version: 6.00 Build 14948)  -->
<!DOCTYPE svg PUBLIC "-//W3C//DTD SVG 1.0//EN" "http://www.w3.org/TR/2001/REC-SVG-20010904/DTD/svg10.dtd">
<svg version="1.0" id="Layer_1" xmlns="http://www.w3.org/2000/svg" xmlns:xlink="http://www.w3.org/1999/xlink" x="0px" y="0px"
	 width="100px" height="100px" viewBox="0 0 100 100" enable-background="new 0 0 100 100" xml:space="preserve">
<polygon fill="#EEC643" points="47.256,74.896 17.044,60.807 10,75.911 16.042,78.73 20.267,69.668 26.309,72.486 22.083,81.55 
	28.125,84.368 32.351,75.3 38.396,78.118 34.167,87.182 40.212,90 "/>
<path fill="#19647E" d="M50,54.107V11.253c-6.862,2.327-13.425,7.666-16.309,13.854l-8.196,17.578L50,54.107z"/>
<polygon fill="#EEC643" points="22.679,48.724 19.863,54.766 50,68.822 50,61.465 "/>
<rect x="56.667" y="60" fill="#EEC643" width="33.333" height="6.666"/>
<rect x="56.667" y="10.002" fill="#19647E" width="33.333" height="43.334"/>
<polygon fill="#EEC643" points="56.667,73.333 56.667,90 63.333,90 63.333,80 70,80 70,90 76.667,90 76.667,80 83.333,80 83.333,90 
	90,90 90,73.333 "/>
</svg>
