<?xml version="1.0" encoding="utf-8"?>
<!-- Generator: Adobe Illustrator 13.0.0, SVG Export Plug-In . SVG Version: 6.00 Build 14948)  -->
<!DOCTYPE svg PUBLIC "-//W3C//DTD SVG 1.1//EN" "http://www.w3.org/Graphics/SVG/1.1/DTD/svg11.dtd">
<svg version="1.1" id="Layer_1" xmlns="http://www.w3.org/2000/svg" xmlns:xlink="http://www.w3.org/1999/xlink" x="0px" y="0px"
	 width="300px" height="300px" viewBox="0 0 300 300" enable-background="new 0 0 300 300" xml:space="preserve">
<g>
	<path fill="#19647E" d="M268.202,74.274c-6.77-5.669-23.577-20.51-28.59-27.495c-5.019-6.978-8.95-9.816-15.72-14.398
		c-6.015-4.075-32.248-12.967-43.99-17.191c-7.317,4.485-18.787,6.802-30.198,6.802c-11.411,0-22.894-2.317-30.209-6.802
		c-11.73,4.225-37.977,13.116-43.992,17.191c-6.763,4.583-10.688,7.42-15.713,14.398c-5.019,6.991-21.819,21.832-28.583,27.502
		c-6.763,5.669-13.299,13.533-13.299,13.533s10.683,15.05,17.002,20.296c6.334,5.233,21.826,16.794,24.665,17.016
		c2.832,0.221,4.03-1.133,8.592-5.787c4.55-4.654,14.321-15.407,14.321-15.407s1.523,17.705,2.617,25.34
		c1.094,7.636,1.523,35.132,2.18,44.519c0.664,9.387,1.537,28.368,0,39.941c-1.529,11.562-3.925,26.181-3.925,32.079
		c0,5.884-1.093,19.201-1.093,22.691c0,3.489,0.658,6.327,3.932,7.421s32.085,5.89,63.505,5.89v-0.006
		c31.421,0,60.232-4.797,63.506-5.884c3.268-1.094,3.919-3.932,3.919-7.421c0-3.496-1.088-16.808-1.088-22.699
		c0-5.891-2.401-20.51-3.925-32.077c-1.529-11.567-0.658-30.556,0-39.936c0.65-9.387,1.094-36.883,2.18-44.524
		c1.088-7.629,2.618-25.334,2.618-25.334s9.764,10.753,14.326,15.401c4.551,4.66,5.748,6.008,8.594,5.793
		c2.83-0.222,18.324-11.79,24.656-17.022c6.327-5.239,17.003-20.295,17.003-20.295S274.972,79.95,268.202,74.274z"/>
</g>
</svg>
