<?xml version="1.0" encoding="utf-8"?>
<!-- Generator: Adobe Illustrator 13.0.0, SVG Export Plug-In . SVG Version: 6.00 Build 14948)  -->
<!DOCTYPE svg PUBLIC "-//W3C//DTD SVG 1.1//EN" "http://www.w3.org/Graphics/SVG/1.1/DTD/svg11.dtd">
<svg version="1.1" id="Layer_1" xmlns="http://www.w3.org/2000/svg" xmlns:xlink="http://www.w3.org/1999/xlink" x="0px" y="0px"
	 width="300px" height="300px" viewBox="0 0 300 300" enable-background="new 0 0 300 300" xml:space="preserve">
<g>
	<path fill="#19647E" d="M276.289,135.422c-6.348-34.912-14.786-59.131-18.205-68.108l-48.323,33.495L42.848,66.169
		c-3.092,7.982-12.027,32.842-18.642,69.253c-8.132,44.721-9.875,83.053-13.363,107.448c-3.48,24.396,102.231,31.356,139.405,31.356
		c37.173,0,142.886-6.961,139.404-31.356C286.165,218.475,284.423,180.143,276.289,135.422z"/>
	<path fill="#EEC643" d="M254.986,56.73l-4.836-20.637c0,0-47.051,2.901-99.902,2.901c-52.853,0-99.902-2.901-99.902-2.901
		L45.66,56.076l161.826,33.591L254.986,56.73z"/>
</g>
</svg>
