<?xml version="1.0" encoding="utf-8"?>
<!-- Generator: Adobe Illustrator 13.0.0, SVG Export Plug-In . SVG Version: 6.00 Build 14948)  -->
<!DOCTYPE svg PUBLIC "-//W3C//DTD SVG 1.1//EN" "http://www.w3.org/Graphics/SVG/1.1/DTD/svg11.dtd">
<svg version="1.1" id="Layer_1" xmlns="http://www.w3.org/2000/svg" xmlns:xlink="http://www.w3.org/1999/xlink" x="0px" y="0px"
	 width="300px" height="300px" viewBox="0 0 300 300" enable-background="new 0 0 300 300" xml:space="preserve">
<g>
	<g>
		<path fill="#19647E" d="M109.222,15.535h96.166h4.78l0.262,5.367l12.654,260.076l0.287,5.941h-5.329h-32.424h-4.233l-0.75-4.685
			l-23.33-146.121l-23.331,146.121l-0.747,4.685h-4.237H96.567h-5.329l0.29-5.941l12.654-260.076l0.262-5.367H109.222
			L109.222,15.535z M200.61,26.843h-86.606L101.898,275.61h22.861l27.564-172.645h9.968l27.562,172.645h22.86L200.61,26.843z"/>
	</g>
	<g>
		<rect x="112.013" y="38.149" fill="#19647E" width="90.59" height="11.311"/>
	</g>
	<g>
		<rect x="152.245" y="54.905" fill="#19647E" width="10.122" height="34.128"/>
	</g>
	<g>
		<path fill="#EEC643" d="M201.71,49.457h-88.805L101.901,275.61h22.86l27.564-172.645h9.967l27.563,172.645h22.86L201.71,49.457
			L201.71,49.457z M162.367,54.905v34.128h-10.122V54.905H162.367z"/>
	</g>
	<g>
		<polygon fill="#EEC643" points="113.453,38.149 201.158,38.149 200.61,26.843 114.004,26.843 		"/>
	</g>
</g>
</svg>
