<?xml version="1.0" encoding="utf-8"?>
<!-- Generator: Adobe Illustrator 13.0.0, SVG Export Plug-In . SVG Version: 6.00 Build 14948)  -->
<!DOCTYPE svg PUBLIC "-//W3C//DTD SVG 1.1//EN" "http://www.w3.org/Graphics/SVG/1.1/DTD/svg11.dtd">
<svg version="1.1" id="Layer_1" xmlns="http://www.w3.org/2000/svg" xmlns:xlink="http://www.w3.org/1999/xlink" x="0px" y="0px"
	 width="300px" height="300px" viewBox="0 0 300 300" enable-background="new 0 0 300 300" xml:space="preserve">
<g>
	
		<polygon fill="none" stroke="#19647E" stroke-width="3" stroke-linecap="round" stroke-linejoin="round" stroke-miterlimit="10" points="
		67.013,119.486 44.125,73.692 33.647,81.84 55.462,125.49 	"/>
	
		<polygon fill="none" stroke="#19647E" stroke-width="3" stroke-linecap="round" stroke-linejoin="round" stroke-miterlimit="10" points="
		247.624,119.486 270.51,73.692 280.988,81.84 259.162,125.49 	"/>
	<path fill="none" stroke="#19647E" stroke-width="3" stroke-linecap="round" stroke-linejoin="round" stroke-miterlimit="10" d="
		M110.029,30.91c0,26.114,21.176,47.282,47.291,47.282c26.105,0,47.287-21.166,47.287-47.282h-10.916
		c0,20.097-16.293,36.376-36.371,36.376c-20.092,0-36.373-16.279-36.373-36.376H110.029L110.029,30.91z"/>
	<path fill="none" stroke="#19647E" stroke-width="3" stroke-linecap="round" stroke-linejoin="round" stroke-miterlimit="10" d="
		M193.691,30.91c-24.254,10.045-50.258,9.308-72.744,0c0,20.097,16.281,36.376,36.369,36.376
		C177.398,67.286,193.691,51.002,193.691,30.91L193.691,30.91z"/>
	<path fill="none" stroke="#19647E" stroke-width="3" stroke-linecap="round" stroke-linejoin="round" stroke-miterlimit="10" d="
		M259.162,125.49l21.824-43.648l-65.474-50.929l-10.909-0.004c0,26.117-21.182,47.282-47.287,47.282
		c-26.117,0-47.292-21.166-47.292-47.282l-10.917,0.004L33.643,81.84l21.815,43.65l27.972-14.557v159.998
		c50.365-10.019,100.342-9.39,147.771,0.052V110.933L259.162,125.49z"/>
	<path fill="none" stroke="#19647E" stroke-width="3" stroke-linecap="round" stroke-linejoin="round" stroke-miterlimit="10" d="
		M83.434,270.931L83.434,270.931c47.428,9.449,97.402,10.069,147.771,0.058v-0.006C183.785,261.541,133.799,260.916,83.434,270.931z
		"/>
	<path fill="none" stroke="#19647E" stroke-width="3" stroke-linecap="round" stroke-linejoin="round" stroke-miterlimit="10" d="
		M83.434,256.383v14.55c50.365-10.019,100.352-9.39,147.771,0.054v-14.553C183.785,246.996,133.799,246.364,83.434,256.383z"/>
	<polygon fill="#EEC643" points="131.854,209.145 167.455,121.842 131.854,121.842 131.854,107.301 190.046,107.301 
		148.226,209.145 	"/>
</g>
</svg>
