<?xml version="1.0" encoding="utf-8"?>
<!-- Generator: Adobe Illustrator 13.0.0, SVG Export Plug-In . SVG Version: 6.00 Build 14948)  -->
<!DOCTYPE svg PUBLIC "-//W3C//DTD SVG 1.1//EN" "http://www.w3.org/Graphics/SVG/1.1/DTD/svg11.dtd">
<svg version="1.1" id="Layer_1" xmlns="http://www.w3.org/2000/svg" xmlns:xlink="http://www.w3.org/1999/xlink" x="0px" y="0px"
	 width="80px" height="80px" viewBox="0 0 80 80" enable-background="new 0 0 80 80" xml:space="preserve">
<path fill="#19647E" d="M59.5,35c-1.2-1.7-11-2.9-11.6-4.5c-0.801-2.3,3.8-4.8,3-10.4c-0.4-3.1-3.4-8-6.2-10.2
	c-2-1.6-3.2-1.8-4.7-1.8s-2.8,0.2-4.7,1.8c-2.8,2.2-5.8,7.1-6.2,10.2c-0.8,5.7,3.8,8.2,3,10.4c-0.6,1.6-10.3,2.8-11.6,4.5
	c-1.8,2.4-7.6,13.7-8.2,17.4c0.9,5.5,6.2,19.399,6.2,19.399c1.5,0.101,4.2-0.6,5.2-1.5c0,0-3.5-13.8-3.4-15.6
	c0.5-1.4,3.9-8.9,4.7-8.9c0.4,0,1.6,3.8,1.6,9.4c0,3.1-1.5,7.6-1.8,10.5c-0.1,0.899,1.5,3.1,2.4,3.899c3.3,1.2,8.6,2.101,12.4,2
	V32.8c0-0.5-1.2-1.6-1.2-1.6C37.7,30.5,37,29.7,36,29c-1.8-1.2-4.2-4.8-2.6-8c1.1-2.3,2.3-3.6,3.9-4.9c1.1-0.9,1.8-1,2.7-1
	c0.9,0,1.6,0.1,2.7,1c1.6,1.3,2.8,2.7,3.899,4.9c1.601,3.2-0.8,6.8-2.6,8c-1,0.7-1.7,1.4-2.4,2.2c0,0-1.2,1.1-1.2,1.6v38.8
	c3.8,0.101,9.1-0.8,12.4-2c0.9-0.8,2.5-3,2.4-3.899c-0.4-3-1.8-7.4-1.8-10.5c0-5.601,1.199-9.4,1.6-9.4c0.8,0,4.2,7.4,4.7,8.9
	c0.1,1.8-3.4,15.6-3.4,15.6c1,0.9,3.7,1.601,5.2,1.5c0,0,5.3-13.899,6.2-19.399C67.1,48.7,61.3,37.5,59.5,35z"/>
</svg>
