<?xml version="1.0" encoding="utf-8"?>
<!-- Generator: Adobe Illustrator 13.0.0, SVG Export Plug-In . SVG Version: 6.00 Build 14948)  -->
<!DOCTYPE svg PUBLIC "-//W3C//DTD SVG 1.1//EN" "http://www.w3.org/Graphics/SVG/1.1/DTD/svg11.dtd">
<svg version="1.1" id="Layer_1" xmlns="http://www.w3.org/2000/svg" xmlns:xlink="http://www.w3.org/1999/xlink" x="0px" y="0px"
	 width="300px" height="300px" viewBox="0 0 300 300" enable-background="new 0 0 300 300" xml:space="preserve">
<g id="Layer_x0020_1">
	<path fill="#EEC643" d="M31.616,252.197h237.287v-31.95c0-4.444-1.822-8.487-4.758-11.422c-2.933-2.935-6.978-4.757-11.422-4.757
		H47.795c-4.443,0-8.487,1.822-11.422,4.757c-2.935,2.935-4.757,6.978-4.757,11.422V252.197L31.616,252.197z M274.296,262.983
		H26.224c-2.979,0-5.394-2.415-5.394-5.393v-37.344c0-7.421,3.031-14.163,7.917-19.048c4.884-4.885,11.627-7.917,19.048-7.917
		h204.929c7.422,0,14.164,3.033,19.049,7.917c4.885,4.885,7.917,11.627,7.917,19.048v37.344
		C279.689,260.568,277.274,262.983,274.296,262.983L274.296,262.983z"/>
	<path fill="#19647E" d="M185.553,193.282h60.49v-78.718v-36.75H54.478v36.75v32.808h25.455v-32.808
		c0-2.978,2.416-5.394,5.394-5.394h94.835c2.979,0,5.394,2.416,5.394,5.394v78.718H185.553z M251.437,204.068H180.16
		c-2.979,0-5.394-2.414-5.394-5.392v-78.719h-84.05v32.81c0,2.978-2.414,5.393-5.394,5.393H49.083c-2.978,0-5.393-2.414-5.393-5.393
		v-38.202V72.42c0-2.977,2.415-5.393,5.393-5.393h202.353c2.979,0,5.395,2.415,5.395,5.393v42.145v84.112
		C256.831,201.653,254.416,204.068,251.437,204.068L251.437,204.068z"/>
	<path fill="#333333" d="M61.83,181.144c0,2.967,2.405,5.371,5.372,5.371c2.966,0,5.371-2.404,5.371-5.371l0.002-28.376
		c0-2.968-2.405-5.374-5.371-5.374c-2.968,0-5.372,2.406-5.372,5.374L61.83,181.144z"/>
	<path fill="#333333" d="M251.437,83.355h16.853c2.979,0,5.393,2.416,5.393,5.394v47.925c0,2.979-2.413,5.393-5.393,5.393h-16.853
		c-2.979,0-5.394-2.414-5.394-5.393V88.749C246.043,85.771,248.458,83.355,251.437,83.355z M262.896,94.142h-6.065v37.139h6.065
		V94.142z"/>
	<path fill="#333333" d="M208.903,42.93c0-2.979-2.415-5.394-5.394-5.394s-5.394,2.415-5.394,5.394V72.42
		c0,2.978,2.413,5.394,5.394,5.394c2.978,0,5.394-2.416,5.394-5.394V42.93z"/>
	<path fill="#333333" d="M210.405,148.523c0,2.98,2.413,5.393,5.394,5.393c2.978,0,5.393-2.412,5.393-5.393V120.61
		c0-2.977-2.414-5.392-5.393-5.392s-5.394,2.415-5.394,5.392V148.523z"/>
	<path fill="#19647E" d="M85.93,108.994h96.628c3.036,0,5.497,2.431,5.497,5.43v79.249h61.634v-56.992v-22.258v-25.99V77.426
		h-43.338H54.5v36.997v33.029h25.937v-33.029C80.436,111.425,82.896,108.994,85.93,108.994L85.93,108.994z M218.871,154.041
		c-3.034,0-5.495-2.43-5.495-5.43v-28.102c0-2.997,2.459-5.428,5.495-5.428c3.034,0,5.494,2.43,5.494,5.428v28.102
		C224.365,151.611,221.905,154.041,218.871,154.041z"/>
	<path fill="#19647E" d="M81.93,108.994h96.628c3.036,0,5.497,2.431,5.497,5.43v79.249h61.634v-56.992v-22.258v-25.99V77.426
		h-43.338H50.5v36.997v33.029h25.937v-33.029C76.436,111.425,78.896,108.994,81.93,108.994L81.93,108.994z M214.871,154.041
		c-3.034,0-5.495-2.43-5.495-5.43v-28.102c0-2.997,2.459-5.428,5.495-5.428c3.034,0,5.494,2.43,5.494,5.428v28.102
		C220.365,151.611,217.905,154.041,214.871,154.041z"/>
	<path fill="#19647E" d="M81.93,110.994h96.628c3.036,0,5.497,2.431,5.497,5.43v79.249h61.634v-56.992v-22.258v-25.99V79.426
		h-43.338H50.5v36.997v33.029h25.937v-33.029C76.436,113.425,78.896,110.994,81.93,110.994L81.93,110.994z M214.871,156.041
		c-3.034,0-5.495-2.43-5.495-5.43v-28.102c0-2.997,2.459-5.428,5.495-5.428c3.034,0,5.494,2.43,5.494,5.428v28.102
		C220.365,153.611,217.905,156.041,214.871,156.041z"/>
	<path fill="#EEC643" d="M180.16,204.068H47.795c-4.443,0-8.487,1.822-11.422,4.757c-2.935,2.936-4.756,6.979-4.756,11.423v31.95
		h237.287v-31.95c0-4.443-1.822-8.487-4.756-11.423c-2.936-2.935-6.979-4.757-11.424-4.757h-1.287H180.16L180.16,204.068z"/>
	<polygon fill="#EBE5DF" points="256.83,114.564 256.83,131.28 262.896,131.28 262.896,94.142 256.83,94.142 	"/>
</g>
</svg>
