<?xml version="1.0" encoding="utf-8"?>
<!-- Generator: Adobe Illustrator 13.0.0, SVG Export Plug-In . SVG Version: 6.00 Build 14948)  -->
<!DOCTYPE svg PUBLIC "-//W3C//DTD SVG 1.1//EN" "http://www.w3.org/Graphics/SVG/1.1/DTD/svg11.dtd">
<svg version="1.1" id="office:icons_1_" xmlns="http://www.w3.org/2000/svg" xmlns:xlink="http://www.w3.org/1999/xlink" x="0px"
	 y="0px" width="300px" height="300px" viewBox="800 197.5 300 300" enable-background="new 800 197.5 300 300"
	 xml:space="preserve">
<g id="row4_1_">
	<g id="target" display="none">
		<g display="inline">
			<path fill="#141414" d="M832.176,286.145c-5.973,19.547-9.229,40.18-9.229,61.355c0,112.395,91.219,203.613,203.612,203.613
				c112.395,0,203.613-91.219,203.613-203.613c0-112.394-91.762-203.613-204.156-203.613c-66.784,0-125.969,32.035-162.891,81.445
				l30.406,16.289c30.949-39.094,78.729-64.07,132.484-64.07c93.391,0,169.405,76.016,169.405,169.406
				c0,93.39-75.473,169.949-169.405,169.949c-93.392,0-169.406-76.017-169.406-169.406c0-15.746,2.172-30.406,5.973-45.066
				L832.176,286.145z M1026.016,76.016c-92.305,0-173.75,46.695-222.617,117.281l29.863,16.289
				c42.896-60.27,113.48-99.363,192.754-99.363c130.855,0,237.277,106.422,237.277,237.277
				c0,130.855-106.422,237.277-237.277,237.277c-130.854,0-237.277-106.422-237.277-237.277c0-27.148,4.887-53.211,13.031-77.645
				l-30.406-16.289c-10.859,29.32-16.832,60.813-16.832,93.934c0,149.859,121.625,271.484,271.483,271.484
				c149.859,0,271.485-121.625,271.485-271.484C1297.5,197.641,1175.875,76.016,1026.016,76.016z M893.531,319.266
				c-2.172,9.23-3.258,18.461-3.258,28.234c0,74.93,60.813,135.742,135.741,135.742c74.93,0,135.742-60.813,135.742-135.742
				c0-74.929-60.813-135.742-135.741-135.742c-40.724,0-77.103,17.918-102.078,46.152l30.948,16.832
				c18.462-17.918,43.438-29.32,71.13-29.32c55.926,0,101.534,45.609,101.534,101.535s-45.608,101.535-101.534,101.535
				c-55.927,0-101.535-45.609-101.535-101.535c0-3.801,0-7.602,0.543-11.402L893.531,319.266z M1034.703,337.184L730.641,173.75
				l9.773-29.863l-52.125-67.871v84.703L602.5,194.926l85.789,16.832l21.176-10.859l308.406,165.605L1034.703,337.184z"/>
		</g>
	</g>
	<g id="note" display="none">
		<g display="inline">
			<path fill="#141414" d="M996.152,115.652H764.848v69.5h231.849v-69.5H996.152z M764.848,463.152h69.5v-69.5h-69.5V463.152z
				 M764.848,579.348h69.5v-69.5h-69.5V579.348z M764.848,347.5h69.5V278h-69.5V347.5z M1042.848,0H672v695h556V162.348L1042.848,0z
				 M1204.652,671.652H695.348V23.348h338.271l9.229,7.602v154.203h162.349v486.5L1204.652,671.652L1204.652,671.652z
				 M857.152,440.348h278V417h-278V440.348z M857.152,324.152h278v-23.348h-278V324.152z M857.152,556h278v-23.348h-278V556z"/>
		</g>
	</g>
	<g id="phone" display="none">
		<g display="inline">
			<path fill="#141414" d="M1123.75,0h-347.5c-23.891,0-43.438,19.547-43.438,43.438v608.125c0,23.892,19.547,43.438,43.438,43.438
				h347.5c23.891,0,43.438-19.547,43.438-43.438V43.438C1167.188,19.547,1147.641,0,1123.75,0z M863.125,608.125H776.25v-43.438
				h86.875V608.125z M863.125,542.969H776.25v-43.438h86.875V542.969z M863.125,477.813H776.25v-43.438h86.875V477.813z
				 M863.125,412.656H776.25v-43.438h86.875V412.656z M993.438,608.125h-86.875v-43.438h86.875V608.125z M993.438,542.969h-86.875
				v-43.438h86.875V542.969z M993.438,477.813h-86.875v-43.438h86.875V477.813z M993.438,412.656h-86.875v-43.438h86.875V412.656z
				 M1123.75,608.125h-86.875v-43.438h86.875V608.125z M1123.75,542.969h-86.875v-43.438h86.875V542.969z M1123.75,477.813h-86.875
				v-43.438h86.875V477.813z M1123.75,412.656h-86.875v-43.438h86.875V412.656z M1123.75,325.781h-347.5V65.156h347.5V325.781z"/>
		</g>
	</g>
	<g id="calendar_1_" display="none">
		<g id="calendar2" display="inline">
			<g>
				<path fill="#141414" d="M775.707,124.34c27.148,0,48.867-21.719,48.867-48.867V24.434H726.84v51.039
					C726.84,102.621,748.559,124.34,775.707,124.34z M1248.09,49.953h-49.41V74.93c0,41.266-33.121,74.387-74.387,74.387
					s-74.387-33.121-74.387-74.387V49.953h-24.978c0,0,2.172,10.316,0,24.977c-4.344,29.32-21.719,74.387-74.387,74.387
					c-54.84,0-70.586-45.066-74.387-74.387c-1.63-14.66,0.543-24.977,0.543-24.977h-25.521V74.93
					c0,41.266-33.121,74.387-74.387,74.387s-74.387-33.121-74.387-74.387V49.953H651.91c-27.148,0-49.41,22.262-49.41,49.41v521.25
					c0,27.147,22.262,49.41,49.41,49.41h595.637c27.148,0,49.41-22.263,49.41-49.41V99.363
					C1297.5,72.215,1275.238,49.953,1248.09,49.953z M1248.09,621.156H651.91V223.703h595.637v397.453H1248.09z M1123.207,124.34
					c27.148,0,48.867-21.719,48.867-48.867V24.434h-97.734v51.039C1074.34,102.621,1096.059,124.34,1123.207,124.34z
					 M949.457,124.34c27.148,0,48.867-21.719,48.867-48.867V24.434H900.59v51.039C900.59,102.621,922.309,124.34,949.457,124.34z"/>
			</g>
		</g>
		<g id="_x31_7" display="inline">
		</g>
		
			<text transform="matrix(1 0 0 1 738.9966 525.4678)" display="inline" fill="#141414" font-family="'Arial-Black'" font-size="297.8569">17</text>
	</g>
	<path id="paper_x5F_clip" display="none" fill="#141414" d="M780.594,409.398c0,0-28.233,21.719-6.516,42.895
		c21.176,21.719,42.352-5.973,42.352-5.973l215.017-216.646c0,0,50.496-65.699,88.504-26.063
		c38.008,39.636-25.521,89.59-25.521,89.59L812.629,577.176c0,0-65.699,73.301-127.598,10.859
		c-61.899-62.442,10.858-128.685,10.858-128.685l317.095-319.266c0,0,101.535-117.824,195.469-23.348
		c93.934,94.476-24.434,195.469-24.434,195.469L943.484,554.914c0,0-27.148,22.805-6.517,42.895
		c20.091,20.634,42.896-7.059,42.896-7.059l275.828-278.543c0,0,104.25-115.109-11.945-232.391
		c-116.195-117.282-230.762-12.488-230.762-12.488L632.363,450.121c0,0-76.017,84.703,14.66,175.922
		c90.676,91.219,174.293,14.66,174.293,14.66l326.323-328.496c0,0,83.617-68.414,7.603-144.973
		c-76.016-76.559-142.801,9.23-142.801,9.23L780.594,409.398z"/>
	<g id="Globe" display="none">
		<g display="inline">
			<path fill="#141414" d="M943.484,365.418L943.484,365.418C944.027,365.961,944.027,365.961,943.484,365.418L943.484,365.418z
				 M934.254,603.238c-1.086-4.345-3.258-10.316-3.258-16.832c0,0,0,0-0.543,0c-1.629-2.715-2.715,17.375-2.172,36.922
				c0.543,0.543,0.543,1.086,2.715,1.629C931.539,618.441,936.426,610.297,934.254,603.238z M928.824,629.301L928.824,629.301
				c0,0.543,0,1.086,0,1.629h1.086C929.91,630.387,929.367,629.844,928.824,629.301z M941.313,364.332c0,1.629-0.543,2.172,0,2.172
				c0.543-0.543,1.086-1.086,1.086-1.629C942.398,364.875,941.855,364.875,941.313,364.332z M928.824,623.328
				c-0.543-0.543-0.543-0.543-1.086-1.086c-1.086,1.086-1.629,1.629-2.715,2.715c1.629,3.258,2.172,2.172,4.344,4.344
				C928.824,627.129,928.824,625.5,928.824,623.328z M942.941,364.875L942.941,364.875c0,0.543,0.543,0.543,0.543,0.543
				S942.941,365.418,942.941,364.875z M775.707,215.016c-0.543,2.172-0.543,1.629-1.086,2.172c0.543,0,1.629,0.543,2.715,0.543
				C777.336,217.188,776.793,216.102,775.707,215.016z M774.078,218.273c0.543-0.543,0.543-0.543,0.543-0.543
				C774.078,217.73,773.535,217.73,774.078,218.273z M1028.73,181.352v1.086c-1.63,0.543-1.63,0-2.716,0.543
				c2.173,1.629,1.087,0,0,2.172h6.517v-0.543C1030.359,183.523,1030.359,181.895,1028.73,181.352z M1026.559,180.266
				c1.086,0.543,0,0.543,1.629,0.543C1028.188,180.809,1027.645,180.809,1026.559,180.266z M1035.789,169.949
				c-0.543,0.543-0.543,1.086-1.086,1.629C1036.875,170.492,1035.789,169.949,1035.789,169.949z M1148.727,283.43
				c-1.086,0-1.629,0.543-2.172,0.543c-0.543-3.801-2.172-3.801-3.258-5.973c-1.086-1.086-2.172-1.629-2.715-3.258
				c1.086-0.543,1.629-1.086,2.715-2.172v-0.543c0-0.543-0.543-0.543-1.086-1.086c-1.629,1.086-3.258,1.629-4.887,2.172
				c1.086,1.086,2.172,1.629,3.258,2.172v1.629c-2.715,0-1.629-1.086-2.715,1.629c1.086,1.629,0.543,2.172,0,3.801
				c2.715,1.086,4.887,2.715,10.316,2.715l0,0l0.543-0.543C1148.184,284.516,1148.184,283.973,1148.727,283.43L1148.727,283.43
				C1149.27,283.43,1148.727,283.43,1148.727,283.43z M1136.238,282.887c-1.629-0.543-2.715,0-3.801,0.543
				c0.543-0.543,0.543-0.543,1.086-1.086c0.543-1.086,0.543-1.629,1.086-3.801c-2.172-1.086-4.344-2.715-5.974-4.887
				c-2.172,3.258-3.801,6.516-4.887,10.859c1.629,0.543,2.715,1.086,3.801,0.543c0-0.543,0-1.086-0.543-1.086
				c1.63,0,3.259,0,4.345,0c-1.086,0.543-2.172,1.086-3.802,1.086c0,0.543,0.543,1.086,0.543,1.629c1.63,0.543,1.087,0,1.63,1.086
				c4.344-1.086,3.801-2.715,7.602-3.801c0-0.543,0-0.543,0-0.543C1136.781,283.43,1136.781,282.887,1136.238,282.887z
				 M1050.449,96.648c0.543-0.543,2.172-1.086,3.258-2.172c1.086-1.629,1.086-1.086,0-2.715c1.086-0.543,3.258-1.629,4.344-2.172
				c0.543-0.543,0.543-0.543,0.543-2.715l-68.957,1.086c1.086,3.258,2.715,4.887,5.974,5.973v1.086c-6.517,0-7.06-2.172-9.23-5.973
				h-4.887c0,2.172,0,2.715-1.086,3.801c-0.543,0.543-4.345,0-5.974,1.086c-1.086-1.086-1.629-1.629-2.172-3.801
				c-4.344,0.543-15.203,0-18.461,2.172c-1.086,1.629-2.172,3.258-3.258,4.887c-3.258,1.629-7.602,0-10.316,2.172
				c-1.086,0.543-2.172,0.543-3.258,1.086c1.629,3.258,5.43,3.258,8.146,2.172c0,2.172,0,2.715-1.086,3.801
				c-5.974,1.086-12.488,2.172-18.461,3.258c-0.544,1.086-0.544,2.172-1.087,2.715c1.63,1.086,3.259,2.172,4.888,3.258
				c1.629,1.086,2.715,0,5.973,0c-2.172,1.629-5.43,2.172-9.229,2.172c1.629,2.172,3.801,3.258,4.887,5.973
				c9.23-1.086,29.32-5.43,31.492,8.145c1.086-1.086,0.543,0,1.086-2.172c1.629,2.172,1.086,5.43,4.887,8.145l-2.172,2.172
				c0,2.172,0,2.715,1.086,3.801c2.172,1.086,4.344,0,7.06,2.172c1.086,0.543,2.172,0.543,3.258,1.086v2.172
				c-2.172-0.543-4.888-0.543-7.06-1.086c-1.086,3.801-2.172,3.801-4.887,4.887c2.172,2.715,2.715,2.172,3.258,4.887
				c3.801,0,4.344-0.543,5.974-2.172c1.086-2.172,0.543-1.086-1.087-2.715v-1.086c1.63,0.543,2.716,0.543,4.888,1.086
				c0.543,2.172,0,2.715,1.086,3.801c-2.715,3.258-3.801,4.887-8.146,7.059c0.543,15.203,9.23,17.918,14.117,29.863
				c2.172-0.543,2.172,0,3.258-1.086c4.888,0.543,5.974,2.715,5.974,4.887c2.172-0.543,2.715-0.543,4.344-2.172
				c1.629-2.715,5.974-18.461,7.06-21.719c3.801-1.629,8.145,0,11.401-2.172c0.543-1.086,1.629-2.715,2.172-3.801
				c1.629-0.543,3.259-0.543,4.888-1.086c1.086-1.086,1.086-4.344,2.172-4.887h9.229c3.258-1.086,5.431-3.801,8.146-4.887h4.887
				c2.715-1.086,3.258-4.344,5.973-5.973c0-4.344-1.629-11.402-4.344-13.031c1.086-0.543,4.344-1.086,5.43-2.172
				c2.172-3.801-1.086-3.258,3.802-3.258c-1.087-3.258-2.173-2.715-3.802-4.887h-1.086c2.172-1.086,1.086-0.543,4.344,0v-5.973
				h-1.086v-2.172c1.629-0.543,3.259-1.086,5.974-1.086v-2.715h-4.345c1.087-1.086,0.543-0.543,2.173-1.086
				c-1.63-2.715-1.087-1.629-4.888-2.172c2.172-2.172,9.773-7.602,8.146-9.773c2.172-3.801,9.772-5.43,13.031-8.145h1.629v-2.172
				C1067.281,90.676,1060.766,95.563,1050.449,96.648z M1015.156,137.914c1.629,0.543,1.086,0,1.629,0.543
				C1015.156,137.914,1015.699,138.457,1015.156,137.914z M1030.902,139.543h-4.345v-1.629h4.345V139.543z M1042.848,143.344h2.715
				C1043.934,143.887,1043.934,143.887,1042.848,143.344z M1035.789,169.949c-0.543,0.543-0.543,1.086-1.086,1.629
				C1036.875,170.492,1035.789,169.949,1035.789,169.949z M1028.73,181.352v1.086c-1.63,0.543-1.63,0-2.716,0.543
				c2.173,1.629,1.087,0,0,2.172h6.517v-0.543C1030.359,183.523,1030.359,181.895,1028.73,181.352z M1026.559,180.266
				c1.086,0.543,0,0.543,1.629,0.543C1028.188,180.809,1027.645,180.809,1026.559,180.266z M956.516,242.164
				c0,1.629,0,0.543,1.629,0.543v-0.543H956.516z M943.484,365.418L943.484,365.418
				C944.027,365.961,944.027,365.961,943.484,365.418L943.484,365.418z M942.941,364.875L942.941,364.875
				c0,0.543,0.543,0.543,0.543,0.543S942.941,365.418,942.941,364.875z M941.313,364.332c0,1.629-0.543,2.172,0,2.172
				c0.543-0.543,1.086-1.086,1.086-1.629C942.398,364.875,941.855,364.875,941.313,364.332z M934.797,260.082
				c1.086,0.543,2.715-2.172,2.715-3.258C936.426,257.91,935.34,258.996,934.797,260.082z M934.797,588.578v2.172h1.086v-2.172
				H934.797z M934.254,603.238c-1.086-4.345-3.258-10.316-3.258-16.832c0,0,0,0-0.543,0c-1.629-2.715-2.715,17.375-2.172,36.922
				c0.543,0.543,0.543,1.086,2.715,1.629C931.539,618.441,936.426,610.297,934.254,603.238z M928.824,629.301L928.824,629.301
				c0,0.543,0,1.086,0,1.629h1.086C929.91,630.387,929.367,629.844,928.824,629.301z M928.824,623.328
				c-0.543-0.543-0.543-0.543-1.086-1.086c-1.086,1.086-1.629,1.629-2.715,2.715c1.629,3.258,2.172,2.172,4.344,4.344
				C928.824,627.129,928.824,625.5,928.824,623.328z M775.707,215.016c-0.543,2.172-0.543,1.629-1.086,2.172
				c0.543,0,1.629,0.543,2.715,0.543C777.336,217.188,776.793,216.102,775.707,215.016z M774.078,218.273
				c0.543-0.543,0.543-0.543,0.543-0.543C774.078,217.73,773.535,217.73,774.078,218.273z M763.219,217.188
				c-0.543,0.543-0.543,0.543-1.086,1.086c-1.629,0.543,1.629,0.543,1.629,0.543c0.543-0.543,0-0.543,1.629-0.543v-1.086H763.219z
				 M1148.727,283.43c-1.086,0-1.629,0.543-2.172,0.543c-0.543-3.801-2.172-3.801-3.258-5.973c-1.086-1.086-2.172-1.629-2.715-3.258
				c1.086-0.543,1.629-1.086,2.715-2.172v-0.543c0-0.543-0.543-0.543-1.086-1.086c-1.629,1.086-3.258,1.629-4.887,2.172
				c1.086,1.086,2.172,1.629,3.258,2.172v1.629c-2.715,0-1.629-1.086-2.715,1.629c1.086,1.629,0.543,2.172,0,3.801
				c2.715,1.086,4.887,2.715,10.316,2.715l0,0l0.543-0.543C1148.184,284.516,1148.184,283.973,1148.727,283.43L1148.727,283.43
				C1149.27,283.43,1148.727,283.43,1148.727,283.43z M1136.238,282.887c-1.629-0.543-2.715,0-3.801,0.543
				c0.543-0.543,0.543-0.543,1.086-1.086c0.543-1.086,0.543-1.629,1.086-3.801c-2.172-1.086-4.344-2.715-5.974-4.887
				c-2.172,3.258-3.801,6.516-4.887,10.859c1.629,0.543,2.715,1.086,3.801,0.543c0-0.543,0-1.086-0.543-1.086
				c1.63,0,3.259,0,4.345,0c-1.086,0.543-2.172,1.086-3.802,1.086c0,0.543,0.543,1.086,0.543,1.629c1.63,0.543,1.087,0,1.63,1.086
				c4.344-1.086,3.801-2.715,7.602-3.801c0-0.543,0-0.543,0-0.543C1136.781,283.43,1136.781,282.887,1136.238,282.887z
				 M1050.449,96.648c0.543-0.543,2.172-1.086,3.258-2.172c1.086-1.629,1.086-1.086,0-2.715c1.086-0.543,3.258-1.629,4.344-2.172
				c0.543-0.543,0.543-0.543,0.543-2.715l-68.957,1.086c1.086,3.258,2.715,4.887,5.974,5.973v1.086c-6.517,0-7.06-2.172-9.23-5.973
				h-4.887c0,2.172,0,2.715-1.086,3.801c-0.543,0.543-4.345,0-5.974,1.086c-1.086-1.086-1.629-1.629-2.172-3.801
				c-4.344,0.543-15.203,0-18.461,2.172c-1.086,1.629-2.172,3.258-3.258,4.887c-3.258,1.629-7.602,0-10.316,2.172
				c-1.086,0.543-2.172,0.543-3.258,1.086c1.629,3.258,5.43,3.258,8.146,2.172c0,2.172,0,2.715-1.086,3.801
				c-5.974,1.086-12.488,2.172-18.461,3.258c-0.544,1.086-0.544,2.172-1.087,2.715c1.63,1.086,3.259,2.172,4.888,3.258
				c1.629,1.086,2.715,0,5.973,0c-2.172,1.629-5.43,2.172-9.229,2.172c1.629,2.172,3.801,3.258,4.887,5.973
				c9.23-1.086,29.32-5.43,31.492,8.145c1.086-1.086,0.543,0,1.086-2.172c1.629,2.172,1.086,5.43,4.887,8.145l-2.172,2.172
				c0,2.172,0,2.715,1.086,3.801c2.172,1.086,4.344,0,7.06,2.172c1.086,0.543,2.172,0.543,3.258,1.086v2.172
				c-2.172-0.543-4.888-0.543-7.06-1.086c-1.086,3.801-2.172,3.801-4.887,4.887c2.172,2.715,2.715,2.172,3.258,4.887
				c3.801,0,4.344-0.543,5.974-2.172c1.086-2.172,0.543-1.086-1.087-2.715v-1.086c1.63,0.543,2.716,0.543,4.888,1.086
				c0.543,2.172,0,2.715,1.086,3.801c-2.715,3.258-3.801,4.887-8.146,7.059c0.543,15.203,9.23,17.918,14.117,29.863
				c2.172-0.543,2.172,0,3.258-1.086c4.888,0.543,5.974,2.715,5.974,4.887c2.172-0.543,2.715-0.543,4.344-2.172
				c1.629-2.715,5.974-18.461,7.06-21.719c3.801-1.629,8.145,0,11.401-2.172c0.543-1.086,1.629-2.715,2.172-3.801
				c1.629-0.543,3.259-0.543,4.888-1.086c1.086-1.086,1.086-4.344,2.172-4.887h9.229c3.258-1.086,5.431-3.801,8.146-4.887h4.887
				c2.715-1.086,3.258-4.344,5.973-5.973c0-4.344-1.629-11.402-4.344-13.031c1.086-0.543,4.344-1.086,5.43-2.172
				c2.172-3.801-1.086-3.258,3.802-3.258c-1.087-3.258-2.173-2.715-3.802-4.887h-1.086c2.172-1.086,1.086-0.543,4.344,0v-5.973
				h-1.086v-2.172c1.629-0.543,3.259-1.086,5.974-1.086v-2.715h-4.345c1.087-1.086,0.543-0.543,2.173-1.086
				c-1.63-2.715-1.087-1.629-4.888-2.172c2.172-2.172,9.773-7.602,8.146-9.773c2.172-3.801,9.772-5.43,13.031-8.145h1.629v-2.172
				C1067.281,90.676,1060.766,95.563,1050.449,96.648z M1015.156,137.914c1.629,0.543,1.086,0,1.629,0.543
				C1015.156,137.914,1015.699,138.457,1015.156,137.914z M1030.902,139.543h-4.345v-1.629h4.345V139.543z M1042.848,143.344h2.715
				C1043.934,143.887,1043.934,143.887,1042.848,143.344z M1035.789,169.949c-0.543,0.543-0.543,1.086-1.086,1.629
				C1036.875,170.492,1035.789,169.949,1035.789,169.949z M1028.73,181.352v1.086c-1.63,0.543-1.63,0-2.716,0.543
				c2.173,1.629,1.087,0,0,2.172h6.517v-0.543C1030.359,183.523,1030.359,181.895,1028.73,181.352z M1026.559,180.266
				c1.086,0.543,0,0.543,1.629,0.543C1028.188,180.809,1027.645,180.809,1026.559,180.266z M956.516,242.164
				c0,1.629,0,0.543,1.629,0.543v-0.543H956.516z M943.484,365.418L943.484,365.418
				C944.027,365.961,944.027,365.961,943.484,365.418L943.484,365.418z M942.941,364.875L942.941,364.875
				c0,0.543,0.543,0.543,0.543,0.543S942.941,365.418,942.941,364.875z M941.313,364.332c0,1.629-0.543,2.172,0,2.172
				c0.543-0.543,1.086-1.086,1.086-1.629C942.398,364.875,941.855,364.875,941.313,364.332z M934.797,260.082
				c1.086,0.543,2.715-2.172,2.715-3.258C936.426,257.91,935.34,258.996,934.797,260.082z M934.797,588.578v2.172h1.086v-2.172
				H934.797z M934.254,603.238c-1.086-4.345-3.258-10.316-3.258-16.832c0,0,0,0-0.543,0c-1.629-2.715-2.715,17.375-2.172,36.922
				c0.543,0.543,0.543,1.086,2.715,1.629C931.539,618.441,936.426,610.297,934.254,603.238z M928.824,629.301L928.824,629.301
				c0,0.543,0,1.086,0,1.629h1.086C929.91,630.387,929.367,629.844,928.824,629.301z M928.824,623.328
				c-0.543-0.543-0.543-0.543-1.086-1.086c-1.086,1.086-1.629,1.629-2.715,2.715c1.629,3.258,2.172,2.172,4.344,4.344
				C928.824,627.129,928.824,625.5,928.824,623.328z M775.707,215.016c-0.543,2.172-0.543,1.629-1.086,2.172
				c0.543,0,1.629,0.543,2.715,0.543C777.336,217.188,776.793,216.102,775.707,215.016z M774.078,218.273
				c0.543-0.543,0.543-0.543,0.543-0.543C774.078,217.73,773.535,217.73,774.078,218.273z M763.219,217.188
				c-0.543,0.543-0.543,0.543-1.086,1.086c-1.629,0.543,1.629,0.543,1.629,0.543c0.543-0.543,0-0.543,1.629-0.543v-1.086H763.219z
				 M1050.449,96.648c0.543-0.543,2.172-1.086,3.258-2.172c1.086-1.629,1.086-1.086,0-2.715c1.086-0.543,3.258-1.629,4.344-2.172
				c0.543-0.543,0.543-0.543,0.543-2.715l-68.957,1.086c1.086,3.258,2.715,4.887,5.974,5.973v1.086c-6.517,0-7.06-2.172-9.23-5.973
				h-4.887c0,2.172,0,2.715-1.086,3.801c-0.543,0.543-4.345,0-5.974,1.086c-1.086-1.086-1.629-1.629-2.172-3.801
				c-4.344,0.543-15.203,0-18.461,2.172c-1.086,1.629-2.172,3.258-3.258,4.887c-3.258,1.629-7.602,0-10.316,2.172
				c-1.086,0.543-2.172,0.543-3.258,1.086c1.629,3.258,5.43,3.258,8.146,2.172c0,2.172,0,2.715-1.086,3.801
				c-5.974,1.086-12.488,2.172-18.461,3.258c-0.544,1.086-0.544,2.172-1.087,2.715c1.63,1.086,3.259,2.172,4.888,3.258
				c1.629,1.086,2.715,0,5.973,0c-2.172,1.629-5.43,2.172-9.229,2.172c1.629,2.172,3.801,3.258,4.887,5.973
				c9.23-1.086,29.32-5.43,31.492,8.145c1.086-1.086,0.543,0,1.086-2.172c1.629,2.172,1.086,5.43,4.887,8.145l-2.172,2.172
				c0,2.172,0,2.715,1.086,3.801c2.172,1.086,4.344,0,7.06,2.172c1.086,0.543,2.172,0.543,3.258,1.086v2.172
				c-2.172-0.543-4.888-0.543-7.06-1.086c-1.086,3.801-2.172,3.801-4.887,4.887c2.172,2.715,2.715,2.172,3.258,4.887
				c3.801,0,4.344-0.543,5.974-2.172c1.086-2.172,0.543-1.086-1.087-2.715v-1.086c1.63,0.543,2.716,0.543,4.888,1.086
				c0.543,2.172,0,2.715,1.086,3.801c-2.715,3.258-3.801,4.887-8.146,7.059c0.543,15.203,9.23,17.918,14.117,29.863
				c2.172-0.543,2.172,0,3.258-1.086c4.888,0.543,5.974,2.715,5.974,4.887c2.172-0.543,2.715-0.543,4.344-2.172
				c1.629-2.715,5.974-18.461,7.06-21.719c3.801-1.629,8.145,0,11.401-2.172c0.543-1.086,1.629-2.715,2.172-3.801
				c1.629-0.543,3.259-0.543,4.888-1.086c1.086-1.086,1.086-4.344,2.172-4.887h9.229c3.258-1.086,5.431-3.801,8.146-4.887h4.887
				c2.715-1.086,3.258-4.344,5.973-5.973c0-4.344-1.629-11.402-4.344-13.031c1.086-0.543,4.344-1.086,5.43-2.172
				c2.172-3.801-1.086-3.258,3.802-3.258c-1.087-3.258-2.173-2.715-3.802-4.887h-1.086c2.172-1.086,1.086-0.543,4.344,0v-5.973
				h-1.086v-2.172c1.629-0.543,3.259-1.086,5.974-1.086v-2.715h-4.345c1.087-1.086,0.543-0.543,2.173-1.086
				c-1.63-2.715-1.087-1.629-4.888-2.172c2.172-2.172,9.773-7.602,8.146-9.773c2.172-3.801,9.772-5.43,13.031-8.145h1.629v-2.172
				C1067.281,90.676,1060.766,95.563,1050.449,96.648z M1015.156,137.914c1.629,0.543,1.086,0,1.629,0.543
				C1015.156,137.914,1015.699,138.457,1015.156,137.914z M1030.902,139.543h-4.345v-1.629h4.345V139.543z M1042.848,143.344h2.715
				C1043.934,143.887,1043.934,143.887,1042.848,143.344z M934.797,260.082c1.086,0.543,2.715-2.172,2.715-3.258
				C936.426,257.91,935.34,258.996,934.797,260.082z M934.797,588.578v2.172h1.086v-2.172H934.797z M956.516,242.164
				c0,1.629,0,0.543,1.629,0.543v-0.543H956.516z M763.219,217.188c-0.543,0.543-0.543,0.543-1.086,1.086
				c-1.629,0.543,1.629,0.543,1.629,0.543c0.543-0.543,0-0.543,1.629-0.543v-1.086H763.219z M1136.238,282.887
				c-1.629-0.543-2.715,0-3.801,0.543c0.543-0.543,0.543-0.543,1.086-1.086c0.543-1.086,0.543-1.629,1.086-3.801
				c-2.172-1.086-4.344-2.715-5.974-4.887c-2.172,3.258-3.801,6.516-4.887,10.859c1.629,0.543,2.715,1.086,3.801,0.543
				c0-0.543,0-1.086-0.543-1.086c1.63,0,3.259,0,4.345,0c-1.086,0.543-2.172,1.086-3.802,1.086c0,0.543,0.543,1.086,0.543,1.629
				c1.63,0.543,1.087,0,1.63,1.086c4.344-1.086,3.801-2.715,7.602-3.801c0-0.543,0-0.543,0-0.543
				C1136.781,283.43,1136.781,282.887,1136.238,282.887z M1148.727,283.43c-1.086,0-1.629,0.543-2.172,0.543
				c-0.543-3.801-2.172-3.801-3.258-5.973c-1.086-1.086-2.172-1.629-2.715-3.258c1.086-0.543,1.629-1.086,2.715-2.172v-0.543
				c0-0.543-0.543-0.543-1.086-1.086c-1.629,1.086-3.258,1.629-4.887,2.172c1.086,1.086,2.172,1.629,3.258,2.172v1.629
				c-2.715,0-1.629-1.086-2.715,1.629c1.086,1.629,0.543,2.172,0,3.801c2.715,1.086,4.887,2.715,10.316,2.715l0,0l0.543-0.543
				C1148.184,284.516,1148.184,283.973,1148.727,283.43L1148.727,283.43C1149.27,283.43,1148.727,283.43,1148.727,283.43z"/>
			<path fill="#141414" d="M950,0C758.332,0,602.5,155.832,602.5,347.5S758.332,695,950,695s347.5-155.832,347.5-347.5
				S1141.668,0,950,0z M950,651.563c-0.543,0-1.629,0-2.172,0c1.629-5.973,7.059-14.659,11.945-17.918
				c-1.086-4.887-2.716-4.887-7.06-7.059c1.086-4.344,1.086-3.801,2.715-7.059h4.345c0.543-3.802,1.086-7.06,2.715-9.773
				c2.172-3.801,0-2.172,4.344-1.629c0.543-0.543,1.086-1.086,1.629-1.086v-2.715h-5.43c1.086-7.06,3.258-4.345,8.145-7.06v-8.145
				c5.974-0.543,10.859-1.086,14.117-4.345c1.629-0.543,2.715-1.086,4.344-1.629c0-6.516-0.543-11.944-4.344-15.203v-2.715
				c5.43,3.258,6.516,3.802,12.488,4.345c3.258-4.888,7.059-13.574,11.402-17.919c0.543-0.543,1.086-1.086,1.086-1.629v1.629
				c7.059-3.801,8.688-14.659,8.145-26.063c3.258-1.629,23.891-11.945,24.977-13.574c8.146-13.031,5.974-21.176,7.06-36.922
				c0-1.086,15.746-23.348,17.918-26.063c-1.629-11.402-14.66-19.004-24.978-22.263h-9.772c-1.629-1.086-2.172-5.973-4.344-7.059
				h-8.688c-4.344-2.172,1.086-3.258-7.059-4.344c-1.629-11.945-5.431-16.832-9.773-24.978c-4.344-1.086-8.688-3.801-12.488-1.629
				c-2.715-1.086-1.086,0.543-1.629-2.715c-3.258-0.543-2.715-1.629-5.43,0c-1.629-1.629-2.172-3.801-2.715-7.059
				c-2.172-0.543-4.344-1.086-7.06-1.086v-3.258c-7.602-3.802-23.348-2.173-30.948-8.688v2.172
				c-1.629-0.543-2.172-0.543-2.172-1.086c-0.543,0.543-1.086,1.629-1.63,2.172v1.086c-4.344-2.172-1.629-1.086-1.629-5.43
				c-9.229,1.086-15.746,7.059-17.918,15.202c-4.344-2.172-7.602-7.059-12.487-4.344c-8.146-1.086-6.517-3.258-11.402-7.059
				c0-9.773,1.086-13.031-1.086-17.375c-2.715-1.086-7.602-1.086-12.488-1.086c1.086-3.801,2.715-11.402,4.887-14.66
				c-0.543-2.172-0.543-2.715-1.086-3.801c-8.688,1.086-5.973,6.516-11.401,9.773c-2.172,1.086-3.258,0.543-4.888,2.172
				c-2.172,0-2.715,0-4.344-1.086c-10.315-4.887-3.801-20.09-5.973-24.977c1.086-7.602,5.43-7.602,9.229-11.945
				c8.146,0.543,5.431,2.172,13.574,2.172c-0.543-2.172,0-1.629-1.086-2.715v-1.086c7.06,0,9.773,1.629,14.66,1.086
				c1.629,5.973,2.715,9.23,4.887,14.66c0.543,0.543,1.086,0.543,2.172,1.086c3.259-8.145-3.258-11.945-1.086-20.09
				c1.629-5.43,9.23-8.688,12.488-14.117c0.543-1.086-0.543-7.059-2.172-9.23v-0.543c2.172,1.086,1.629,1.629,4.887,2.172
				c0.543-5.43,3.258-6.516,3.258-9.23c1.086-3.258,3.802-2.172,7.06-4.887c3.258-1.629,0.543-1.086,2.172-2.715
				c2.172-4.887,8.688-6.516,12.488-9.773h3.258v1.086c-2.172,1.086-3.258,2.172-5.974,3.258c0.544,1.629,0,1.086,1.087,2.172
				c1.086,0.543,2.172,1.086,3.258,2.172c3.258-1.629,4.887-3.801,9.229-4.887c0.543-1.629,0-1.086,1.086-2.172v-2.715
				c-1.629,0.543-3.258,1.086-5.973,1.086c-0.543-2.715,0.543-1.629-2.172-2.172c0-6.516,0-6.516,1.086-10.859
				c-1.086-1.086-0.543,0-1.086-2.172c-3.259,0-5.431,0.543-7.06,2.172h-1.086l1.086-1.086c3.258-6.516,11.945-1.086,17.375-3.258
				c3.258-1.086,3.801-4.344,5.974-5.973c4.344-2.715,5.973-1.086,5.973-4.887c-2.715-5.973-10.315-7.059-14.117-11.945
				c-0.543-2.715-0.543-0.543,1.086-3.258c-3.801-2.715-8.145-9.23-8.145-15.203c-3.259,1.629-4.888,4.887-7.06,7.059
				c-2.172,1.086-4.344-1.086-5.973-3.258c-1.629-2.172-0.543-3.801,0-5.973c-3.801-2.172-8.688-8.145-13.031-5.973
				c-16.832,0-4.344,6.516-11.402,13.031c1.63,2.172,2.716,5.973,4.888,8.146c-0.543,7.059-2.715,5.973-4.888,9.772
				c-0.543,4.344-1.629,8.688-2.172,13.031c-6.516-1.086-2.715-3.258-4.344-4.887h-3.258c2.172-0.543,0.543-5.973,0-7.059
				c-3.258-3.801,1.629,8.145-2.715,5.973c-4.887-2.715-11.945-7.059-16.832-10.859c-1.086-1.086-13.031-14.66-13.574-16.832
				c5.973-6.516,8.146-11.402,14.117-16.832c0.543-0.543,3.801-0.543,5.973-1.086c-0.543-2.172-0.543-2.172-1.086-3.258
				c-1.629-1.086-3.258-1.086-5.973-1.086v-1.086h1.086c1.086-0.543,4.344,0.543,7.059,1.086c0.543-1.086,1.086-2.172,2.172-2.715
				c0.543-0.543,2.173,0.543,3.259,1.086c2.172-1.086,1.086,0,1.086-2.172c0.543-0.543,5.973-2.172,9.229-3.258
				c-1.086-4.887-3.801-3.801-1.086-8.145c-0.543-5.43-2.715-3.258-5.973-7.059c-3.801,0.543-5.973,8.688-8.146,13.031h-2.172
				c-0.543-1.086-0.543-2.172-1.086-3.258c-1.086-2.172,0-2.715,1.086-5.973c-1.629-0.543-1.629-0.543-4.344-1.086
				c-0.543,2.172,0,2.172-1.086,3.258v2.172c-2.172-2.172-3.258-3.801-4.888-5.973c-1.086-1.629,0.544-3.258,2.173-4.887
				c-3.259-1.629-6.517-3.258-8.146-5.973c-0.543-1.086,0-1.086,0-3.801c2.715,0,3.801,0,4.887-1.086
				c2.716-1.086,2.173,0,3.259-2.715l1.086-1.086h-1.086c-1.63-2.172-2.173-1.629-4.345-3.258c-13.03,0-4.887,4.344-7.059,11.945
				c-1.086,2.715-3.258,4.344-4.344,8.145c2.172,1.629,4.887,2.172,8.145,2.715c-1.086,1.629-5.973,9.23-5.973,11.945h-1.086
				c-1.086-2.172-1.086-4.344-3.258-5.973v-1.086c-3.258,1.086-3.258,1.086-3.802,3.801c-3.258-0.543-5.973,1.086-9.229,0
				c-3.801-1.086-8.688-7.059-13.574-4.887c-1.086,0.543-2.172,0.543-3.258,1.086c2.172,2.715,1.086,1.086,3.801,1.086
				c-1.629,2.172-3.258,3.801-2.172,5.973v1.086c-2.172-1.629-3.801-3.258-5.973-4.887c-1.086-0.543-3.258,0-4.888,1.086
				c-6.516,0-4.344-1.086-4.887-5.973c-11.945,1.086-15.746-5.43-26.604-2.172c-1.629-3.258-3.802-4.344-5.974-7.059
				c-2.715,1.086-2.172,2.172-3.258,3.258c-2.172-0.543-4.344-0.543-5.973-1.086c-1.087,0.543-4.345,3.801-5.431,3.801
				c-1.086-0.543-2.172-0.543-3.258-1.086c-1.086,1.086-2.172,2.172-3.258,2.715c-4.344,1.086,12.488,10.859,14.117,11.945
				c-5.43-2.172-10.316-1.086-14.66-1.629c-9.773-2.172-19.547,0.543-23.891-4.344c-6.517,1.086-11.945,4.344-16.832,7.059v3.801
				c-2.172,0-3.258,0-4.888,1.086c0,0-1.086,0.543-1.629,0.543c1.629,3.801,5.974,7.059,10.859,7.059
				c-0.543,1.086-0.543,1.629-1.086,2.715c-4.345,0-3.802,0-5.431-2.715c-2.715,1.086-5.973,2.172-8.145,3.801
				c1.086,2.715,2.172,3.258,3.801,5.43c3.801-0.543,8.146-0.543,11.945-1.086c0,2.172,0,2.715-1.086,3.801
				c-2.172,1.629-5.43,1.086-6.516,1.629c-2.716,1.629-0.544,2.172-3.802,4.344c1.086,3.801,2.172,3.801,2.715,8.145
				c2.173,0,3.259-0.543,4.345-1.086c0.543,1.629,1.086,2.172,1.086,4.344c4.887-0.543,5.43,0.543,10.858,1.086
				c-0.543,0.543-0.543,0.543-1.086,1.086c-0.543,7.059-7.059,8.688-11.944,11.945v1.629c7.059-3.258,17.918-8.146,21.176-15.203
				c0.543-0.543,0.543-0.543,1.086-1.086h-1.629V208.5c1.629-1.086,2.172-1.086,2.715-3.801c1.629-0.543,1.086,0,1.629-1.086h1.086
				v5.43c3.258-0.543,6.516-2.715,9.23-4.344h1.086c-0.543-0.543-0.543-1.086-1.086-1.629c1.086,0,20.09,4.887,22.805,7.059
				c7.059,4.887,3.258,12.488,13.574,9.773c-1.086,0.543-1.629,1.086-2.715,1.629c1.086,1.629-8.146-2.715-13.574-4.887
				c1.629,4.344,1.086,8.688,6.516,8.688c0.543,3.801,1.629,3.258-1.086,4.887c1.629,4.344,8.688,7.602,11.402,13.031
				c3.801,9.23-2.715,18.461,0,27.691c1.086,3.258,3.258,3.801,4.887,5.973c-1.629,2.172,1.086,8.145,3.258,10.859
				c2.715,2.172,5.43,3.801,8.146,5.973c3.258,5.43,1.629,7.602,7.059,10.859c0,2.715,0,4.344-1.086,5.973
				c1.629,2.715,3.801,2.172,4.887,3.801c0.544,2.172,0.544,3.801,1.087,5.973c1.086,1.629,3.801,3.801,4.887,5.973h2.172
				c-0.543-5.43-8.688-22.262-13.031-27.148v-1.086c4.344,1.086,24.977,30.949,23.348,33.664c0,9.23,11.945,14.66,19.548,16.832
				c4.344-0.543,8.145-0.543,12.487-1.086c4.344,2.172-2.172,9.772,10.859,7.603c2.715,5.43,5.43,7.059,5.43,15.203
				c5.43,2.172,14.66,6.516,17.918,10.858c3.801-2.172,1.629,0,1.629-4.345c0.543-0.543,1.086-1.086,1.086-1.086
				c2.716,0.543,2.716,0.543,4.345,1.086c13.573,18.462-16.289,38.009-5.431,48.324c-1.086,3.802-1.629,3.802-4.344,5.431
				c1.086,12.487,8.688,12.487,12.488,20.633c0.543,3.258,1.086,6.516,1.629,9.773c5.973,14.116,11.402,22.805,23.891,30.405
				c3.258,30.406-4.344,62.441-9.772,85.246c-0.543,2.172-0.543,4.344-0.543,6.517c2.715-0.544,4.344-1.087,6.516-1.63
				c-0.543-2.172-0.543-3.801-0.543-3.801c3.258,0.543,3.801,1.086,5.973,2.172v1.086c-2.715,0.543-3.801,0.543-5.43,1.086
				c2.172,13.031,8.146,52.668,9.773,66.785c-5.431,0-10.859,0-16.289-0.543c-0.543-4.344-1.086-11.945-1.63-20.09v5.43
				c-1.086-1.086-1.629-1.629-2.715-2.715c-0.543,1.086-1.086,1.629-1.629,2.715c-1.086,1.629,1.086,11.402,1.629,12.488v2.172
				C769.191,638.531,645.938,507.133,645.938,347.5c0-167.777,136.285-304.063,304.063-304.063
				c103.707,0,194.926,51.582,249.766,130.855c0,3.801-0.543,4.887-1.086,9.773c-1.629-0.543-1.086,0-1.629-1.086
				c-2.172,0-3.258,0.543-4.887,1.086c-0.543,3.258-0.543,3.258,0,6.516c-1.086-0.543-3.801-1.086-4.344-1.629
				c-2.716,1.629-0.543,2.172-1.63,4.344c-0.543,0.543,0,0-1.086,0c-5.43-2.172-3.801-8.145-10.315-9.773v-1.629
				c4.887,1.629,10.858,6.516,15.746,2.715c1.086-1.086,1.629-1.629,2.715-2.715c-1.086-7.059-18.461-14.66-24.978-12.488
				c0.543-0.543,1.086-1.086,1.629-1.629c-1.629-3.801-4.344-2.172-5.43-4.344c-2.715,0.543-4.344,1.629-5.43,3.801
				c-1.629-1.086,0.543-0.543-1.086-1.629v-1.629c-6.517,3.258-12.488,4.887-21.177,7.059c1.086,2.172,1.086,1.629,2.715,2.715
				c-8.145,13.031-18.461,22.805-30.405,29.863c0.543,3.258,2.715,5.973,1.086,8.145c1.086,2.715,1.629,2.172,1.629,5.43
				c4.887,1.086,7.602,0,10.859-2.715c3.258,3.801,3.801,7.602,3.801,12.488c5.43-0.543,5.43-2.172,10.315-3.801
				c0-2.715,0-5.973,1.087-7.059c1.086-2.172,2.172-2.172,4.887-2.715c0.543-3.801-0.543-5.43-3.801-8.145
				c0.543-4.887,2.172-8.688,5.43-10.859c1.086-0.543,2.172-0.543,3.801-1.086c0,0,2.172-6.516,2.715-7.059
				c1.629,0.543,3.801,0.543,5.431,1.086c-1.087,4.887-3.802,7.602-7.603,9.773c0,5.43,2.172,9.773,1.629,10.859
				c0.543,0.543,2.172,1.086,2.715,1.629c3.259-0.543,3.259-0.543,4.345-2.715c4.887,0,5.43,1.086,9.229,1.629
				c-3.801,2.715-8.145,2.172-13.574,2.715l-1.086,1.086c0.543,1.629,1.086,3.801,1.629,5.43c-0.543,1.086-0.543,0-1.086,1.629
				c-2.715-0.543-2.172-1.086-4.887-1.629c-1.629,4.344-4.887,8.688-5.43,12.488c-7.06,0-19.004,1.629-19.547,1.086h-1.63
				c0-2.172,1.087-10.859,1.087-10.859v-2.715c-2.173,0.543-3.802,1.629-6.517,2.715c0.543,2.715,0,8.145,2.715,10.859
				c-2.172,4.887-5.973,1.629-9.229,3.801c-1.629,1.086-0.543,3.258-1.629,4.344c-1.629,1.629-11.945,6.516-11.945,6.516
				c-2.715,0.543-1.629,0-1.629,1.629c-1.629,2.172-2.715,2.172-6.516,1.629l-1.087,1.086c0.543,2.172,6.517,8.688,8.146,9.773
				v7.059c-5.43-1.086-14.117-1.629-18.461-1.086c-0.543,3.258-1.086,17.375,1.086,20.09c2.172,1.629,7.602,3.801,9.229,2.715
				c10.316-0.543,8.688-7.059,11.945-11.945c3.257-4.886,7.059-2.172,6.516-9.23c4.345-0.543,9.23,0.543,11.945-2.715
				c4.344,1.629,7.059,5.43,10.316,8.688c0-0.543,0.543-0.543,0.543-1.086c1.629,0,3.258,0.543,5.43,0.543
				c-0.543,0.543,0,0-1.629,0.543c0.543,2.715,0.543,2.172,2.172,2.715c0.543,0.543,2.715,0,3.801-0.543h0.543
				c-1.086-1.629-1.086-1.086-2.172-2.172h-1.629c0.543,0,1.086-0.543,1.086-0.543c-3.258-2.715-5.973-6.516-9.772-8.688
				c0-2.172,0-2.715,1.086-3.801v-1.086c2.715,1.629,3.258,4.887,5.43,6.516c2.172,1.629,5.973,2.172,8.146,4.344
				c0.543,0,1.086-0.543,1.629-0.543h1.629c-0.543,1.086-1.086,1.629-1.629,2.172v4.887c0,0.543,0,0.543,0.543,0.543
				c2.172,1.629,4.344,2.715,5.43,4.887c0,0,0.543,0,0.543,0.543c0.543,0,1.086,0,1.086-0.543l-2.172,2.172v0.543l0,0
				c0.543,0.543,0.543,0,1.086,1.629c5.431-0.543,4.888-2.715,8.146-2.715c-1.086-2.715-1.629-2.715-4.344-3.801v-3.801
				c3.801-1.086,3.801-1.629,6.516-2.715c2.172,6.516,1.086,7.602,4.887,13.574c5.43,1.629,12.488,3.801,16.289,0h1.086
				c0,5.973,1.086,8.145-1.629,11.945c-0.543,1.086-0.543,1.629-1.086,2.715c-6.516-0.543-13.574,2.172-16.289,1.629
				c-4.344-0.543-10.859-6.516-14.66-4.344c-2.172,1.086-2.715,2.172-2.715,5.43c-9.23-0.543-12.488-5.43-20.09-8.145
				c0-2.172,0-2.715,1.086-3.801c0-3.801,0-5.43-1.629-7.059c-8.688-3.801-31.492,8.145-35.836,3.801
				c-3.258,1.629-7.06,6.516-9.23,9.23c-2.172,3.258,0,7.602-1.629,11.945c-1.629,3.801-9.229,4.887-10.859,9.23
				c-4.887,9.773-4.887,12.488-3.801,23.891c0.543,4.887-4.344,6.516-2.715,11.944c0.543,0.543,59.184-0.543,60.271-0.543
				c-0.543,1.629-1.087,3.258-1.087,4.887c0,2.173-52.125,2.716-52.125,4.345c1.63,2.715,1.087,5.974,2.716,9.229
				c2.172,3.801,9.229,5.974,11.944,9.23c3.258-0.543,3.801-2.172,5.431-2.715c2.715-0.543,3.258,1.629,4.344,1.629
				c3.801,0.543,12.488-3.258,13.574-5.43c7.059,0,6.516,1.629,8.145,6.516c1.629-0.543,1.629,0,2.715-1.086
				c12.488,1.086,0.543,10.316,5.431,19.004c1.086,1.629,4.344,3.801,5.43,5.43c3.258,4.888,1.086,10.859,2.715,17.375
				c0,0.543,2.172,2.715,1.629,3.802c-1.086,4.344-8.688,11.401-5.43,19.004c1.629,3.801,5.973,8.688,7.602,13.03
				c-2.715,10.859,4.888,17.375,7.603,25.521c1.086,3.801-1.086,4.887,0,7.059c0.543,1.086,0.543,1.629,1.086,2.715
				c19.004-0.543,21.176-2.172,29.32-14.659c2.715-3.802,5.973-5.431,3.801-11.945c2.715-1.086,4.887-1.629,7.602-2.715
				c0-5.431-1.086-9.773-2.715-13.574c4.888-3.258,9.23-8.145,14.117-11.945c0-9.772-1.086-26.063-3.801-27.147
				c1.086-7.603,4.887-8.146,7.602-12.488v-3.801c2.715-4.888,10.316-8.146,13.574-12.488c0.543-1.086,1.086-8.146,1.629-19.547
				c1.086-45.609-0.543-155.832-2.715-177.551c27.147,46.695,43.979,101.535,43.979,160.719
				C1254.063,515.277,1117.777,651.563,950,651.563z M946.199,598.352h-1.086c-0.543,0.543-0.543,0.543-1.086,1.086v-2.172
				C945.656,598.352,945.113,597.809,946.199,598.352z M897.332,276.914V278c-2.715-3.258-0.543-7.059-1.086-10.316
				c1.086-0.543,2.715-1.086,3.258-1.629h2.715c-0.543,1.086-2.715,1.629-3.258,2.715
				C896.789,271.484,899.504,274.199,897.332,276.914z M900.59,263.34c-1.629,0.543-1.086,0-1.629,0.543
				c-2.715-0.543-2.172-0.543-3.258-2.172c-2.715,0.543-3.258,1.086-5.973,1.629v-0.543h-0.543c1.086-2.715,3.801-3.258,5.973-5.43
				c2.715,1.086,3.801,2.715,6.516,3.801C901.133,261.711,900.59,262.797,900.59,263.34z M911.449,269.855h-3.258
				c-0.543,1.629,0,1.629-1.086,2.715v1.629c-1.63-1.629-3.259-4.344-4.345-7.059c0.543-1.086,0.543,0,0.543-1.629
				c3.802,1.086,3.259,1.086,7.603,1.629v2.715H911.449z M911.992,274.742c-1.086,2.715-2.715,2.172-4.344,3.801
				c-1.629-0.543-1.629,0-2.716-0.543h-1.086c1.086-1.086,3.802-1.086,5.974-3.258H911.992z M913.078,273.656v-0.543
				c1.086-0.543,3.258-1.086,4.344-1.629h1.629v1.086c-1.629,0.543-3.258,0.543-4.344,1.629h-1.629V273.656z M825.117,257.91v0.543
				h-1.629c-0.543-1.086-0.543-2.172-1.086-3.258C823.488,256.281,824.031,256.824,825.117,257.91z M802.313,191.668
				c1.086-2.715,1.63-2.172,3.259-3.801c1.629,0.543,0.543,0,1.629,0.543c-2.172,1.086-3.258,0.543-4.345,3.258H802.313z
				 M803.398,233.477c-2.172-0.543-1.086-0.543-2.716,0c-1.629-2.172-2.715-4.887-2.715-5.43
				C801.77,229.133,801.77,230.762,803.398,233.477z M1206.281,363.246c-3.258,0-5.431-0.543-7.603-1.086v-4.344L1206.281,363.246z
				 M1141.668,338.27c-0.543-2.715-0.543-4.887-0.543-7.602c-1.629-3.801-4.887-8.688-5.973-13.031h2.172
				c1.086,3.258,2.715,2.715,3.801,4.344v2.715c1.086,1.086,2.172,2.172,2.715,2.715v6.516c1.086,2.715,5.43,5.43,7.059,8.145
				c1.087,2.172,0.543,6.516,1.63,8.145v2.715h-0.543c-1.63-3.801-5.431-4.344-7.06-7.602v-4.887
				C1143.84,339.355,1142.754,338.813,1141.668,338.27z M1134.609,390.395c-1.629,0-2.172,0-2.715,0.543
				c-1.63-2.172-1.087-4.344-0.543-6.516h2.715c1.086,1.629-0.543,0.543,1.629,1.629
				C1134.609,388.223,1134.609,388.766,1134.609,390.395z"/>
		</g>
		<g display="inline">
			<path fill="#141414" d="M950,0C758.332,0,602.5,155.832,602.5,347.5S758.332,695,950,695s347.5-155.832,347.5-347.5
				S1141.668,0,950,0z M950,651.563c-0.543,0-1.629,0-2.172,0c1.629-5.973,7.059-14.659,11.945-17.918
				c-1.086-4.887-2.716-4.887-7.06-7.059c1.086-4.344,1.086-3.801,2.715-7.059h4.345c0.543-3.802,1.086-7.06,2.715-9.773
				c2.172-3.801,0-2.172,4.344-1.629c0.543-0.543,1.086-1.086,1.629-1.086v-2.715h-5.43c1.086-7.06,3.258-4.345,8.145-7.06v-8.145
				c5.974-0.543,10.859-1.086,14.117-4.345c1.629-0.543,2.715-1.086,4.344-1.629c0-6.516-0.543-11.944-4.344-15.203v-2.715
				c5.43,3.258,6.516,3.802,12.488,4.345c3.258-4.888,7.059-13.574,11.402-17.919c0.543-0.543,1.086-1.086,1.086-1.629v1.629
				c7.059-3.801,8.688-14.659,8.145-26.063c3.258-1.629,23.891-11.945,24.977-13.574c8.146-13.031,5.974-21.176,7.06-36.922
				c0-1.086,15.746-23.348,17.918-26.063c-1.629-11.402-14.66-19.004-24.978-22.263h-9.772c-1.629-1.086-2.172-5.973-4.344-7.059
				h-8.688c-4.344-2.172,1.086-3.258-7.059-4.344c-1.629-11.945-5.431-16.832-9.773-24.978c-4.344-1.086-8.688-3.801-12.488-1.629
				c-2.715-1.086-1.086,0.543-1.629-2.715c-3.258-0.543-2.715-1.629-5.43,0c-1.629-1.629-2.172-3.801-2.715-7.059
				c-2.172-0.543-4.344-1.086-7.06-1.086v-3.258c-7.602-3.802-23.348-2.173-30.948-8.688v2.172
				c-1.629-0.543-2.172-0.543-2.172-1.086c-0.543,0.543-1.086,1.629-1.63,2.172v1.086c-4.344-2.172-1.629-1.086-1.629-5.43
				c-9.229,1.086-15.746,7.059-17.918,15.202c-4.344-2.172-7.602-7.059-12.487-4.344c-8.146-1.086-6.517-3.258-11.402-7.059
				c0-9.773,1.086-13.031-1.086-17.375c-2.715-1.086-7.602-1.086-12.488-1.086c1.086-3.801,2.715-11.402,4.887-14.66
				c-0.543-2.172-0.543-2.715-1.086-3.801c-8.688,1.086-5.973,6.516-11.401,9.773c-2.172,1.086-3.258,0.543-4.888,2.172
				c-2.172,0-2.715,0-4.344-1.086c-10.315-4.887-3.801-20.09-5.973-24.977c1.086-7.602,5.43-7.602,9.229-11.945
				c8.146,0.543,5.431,2.172,13.574,2.172c-0.543-2.172,0-1.629-1.086-2.715v-1.086c7.06,0,9.773,1.629,14.66,1.086
				c1.629,5.973,2.715,9.23,4.887,14.66c0.543,0.543,1.086,0.543,2.172,1.086c3.259-8.145-3.258-11.945-1.086-20.09
				c1.629-5.43,9.23-8.688,12.488-14.117c0.543-1.086-0.543-7.059-2.172-9.23v-0.543c2.172,1.086,1.629,1.629,4.887,2.172
				c0.543-5.43,3.258-6.516,3.258-9.23c1.086-3.258,3.802-2.172,7.06-4.887c3.258-1.629,0.543-1.086,2.172-2.715
				c2.172-4.887,8.688-6.516,12.488-9.773h3.258v1.086c-2.172,1.086-3.258,2.172-5.974,3.258c0.544,1.629,0,1.086,1.087,2.172
				c1.086,0.543,2.172,1.086,3.258,2.172c3.258-1.629,4.887-3.801,9.229-4.887c0.543-1.629,0-1.086,1.086-2.172v-2.715
				c-1.629,0.543-3.258,1.086-5.973,1.086c-0.543-2.715,0.543-1.629-2.172-2.172c0-6.516,0-6.516,1.086-10.859
				c-1.086-1.086-0.543,0-1.086-2.172c-3.259,0-5.431,0.543-7.06,2.172h-1.086l1.086-1.086c3.258-6.516,11.945-1.086,17.375-3.258
				c3.258-1.086,3.801-4.344,5.974-5.973c4.344-2.715,5.973-1.086,5.973-4.887c-2.715-5.973-10.315-7.059-14.117-11.945
				c-0.543-2.715-0.543-0.543,1.086-3.258c-3.801-2.715-8.145-9.23-8.145-15.203c-3.259,1.629-4.888,4.887-7.06,7.059
				c-2.172,1.086-4.344-1.086-5.973-3.258c-1.629-2.172-0.543-3.801,0-5.973c-3.801-2.172-8.688-8.145-13.031-5.973
				c-16.832,0-4.344,6.516-11.402,13.031c1.63,2.172,2.716,5.973,4.888,8.146c-0.543,7.059-2.715,5.973-4.888,9.772
				c-0.543,4.344-1.629,8.688-2.172,13.031c-6.516-1.086-2.715-3.258-4.344-4.887h-3.258c2.172-0.543,0.543-5.973,0-7.059
				c-3.258-3.801,1.629,8.145-2.715,5.973c-4.887-2.715-11.945-7.059-16.832-10.859c-1.086-1.086-13.031-14.66-13.574-16.832
				c5.973-6.516,8.146-11.402,14.117-16.832c0.543-0.543,3.801-0.543,5.973-1.086c-0.543-2.172-0.543-2.172-1.086-3.258
				c-1.629-1.086-3.258-1.086-5.973-1.086v-1.086h1.086c1.086-0.543,4.344,0.543,7.059,1.086c0.543-1.086,1.086-2.172,2.172-2.715
				c0.543-0.543,2.173,0.543,3.259,1.086c2.172-1.086,1.086,0,1.086-2.172c0.543-0.543,5.973-2.172,9.229-3.258
				c-1.086-4.887-3.801-3.801-1.086-8.145c-0.543-5.43-2.715-3.258-5.973-7.059c-3.801,0.543-5.973,8.688-8.146,13.031h-2.172
				c-0.543-1.086-0.543-2.172-1.086-3.258c-1.086-2.172,0-2.715,1.086-5.973c-1.629-0.543-1.629-0.543-4.344-1.086
				c-0.543,2.172,0,2.172-1.086,3.258v2.172c-2.172-2.172-3.258-3.801-4.888-5.973c-1.086-1.629,0.544-3.258,2.173-4.887
				c-3.259-1.629-6.517-3.258-8.146-5.973c-0.543-1.086,0-1.086,0-3.801c2.715,0,3.801,0,4.887-1.086
				c2.716-1.086,2.173,0,3.259-2.715l1.086-1.086h-1.086c-1.63-2.172-2.173-1.629-4.345-3.258c-13.03,0-4.887,4.344-7.059,11.945
				c-1.086,2.715-3.258,4.344-4.344,8.145c2.172,1.629,4.887,2.172,8.145,2.715c-1.086,1.629-5.973,9.23-5.973,11.945h-1.086
				c-1.086-2.172-1.086-4.344-3.258-5.973v-1.086c-3.258,1.086-3.258,1.086-3.802,3.801c-3.258-0.543-5.973,1.086-9.229,0
				c-3.801-1.086-8.688-7.059-13.574-4.887c-1.086,0.543-2.172,0.543-3.258,1.086c2.172,2.715,1.086,1.086,3.801,1.086
				c-1.629,2.172-3.258,3.801-2.172,5.973v1.086c-2.172-1.629-3.801-3.258-5.973-4.887c-1.086-0.543-3.258,0-4.888,1.086
				c-6.516,0-4.344-1.086-4.887-5.973c-11.945,1.086-15.746-5.43-26.604-2.172c-1.629-3.258-3.802-4.344-5.974-7.059
				c-2.715,1.086-2.172,2.172-3.258,3.258c-2.172-0.543-4.344-0.543-5.973-1.086c-1.087,0.543-4.345,3.801-5.431,3.801
				c-1.086-0.543-2.172-0.543-3.258-1.086c-1.086,1.086-2.172,2.172-3.258,2.715c-4.344,1.086,12.488,10.859,14.117,11.945
				c-5.43-2.172-10.316-1.086-14.66-1.629c-9.773-2.172-19.547,0.543-23.891-4.344c-6.517,1.086-11.945,4.344-16.832,7.059v3.801
				c-2.172,0-3.258,0-4.888,1.086c0,0-1.086,0.543-1.629,0.543c1.629,3.801,5.974,7.059,10.859,7.059
				c-0.543,1.086-0.543,1.629-1.086,2.715c-4.345,0-3.802,0-5.431-2.715c-2.715,1.086-5.973,2.172-8.145,3.801
				c1.086,2.715,2.172,3.258,3.801,5.43c3.801-0.543,8.146-0.543,11.945-1.086c0,2.172,0,2.715-1.086,3.801
				c-2.172,1.629-5.43,1.086-6.516,1.629c-2.716,1.629-0.544,2.172-3.802,4.344c1.086,3.801,2.172,3.801,2.715,8.145
				c2.173,0,3.259-0.543,4.345-1.086c0.543,1.629,1.086,2.172,1.086,4.344c4.887-0.543,5.43,0.543,10.858,1.086
				c-0.543,0.543-0.543,0.543-1.086,1.086c-0.543,7.059-7.059,8.688-11.944,11.945v1.629c7.059-3.258,17.918-8.146,21.176-15.203
				c0.543-0.543,0.543-0.543,1.086-1.086h-1.629V208.5c1.629-1.086,2.172-1.086,2.715-3.801c1.629-0.543,1.086,0,1.629-1.086h1.086
				v5.43c3.258-0.543,6.516-2.715,9.23-4.344h1.086c-0.543-0.543-0.543-1.086-1.086-1.629c1.086,0,20.09,4.887,22.805,7.059
				c7.059,4.887,3.258,12.488,13.574,9.773c-1.086,0.543-1.629,1.086-2.715,1.629c1.086,1.629-8.146-2.715-13.574-4.887
				c1.629,4.344,1.086,8.688,6.516,8.688c0.543,3.801,1.629,3.258-1.086,4.887c1.629,4.344,8.688,7.602,11.402,13.031
				c3.801,9.23-2.715,18.461,0,27.691c1.086,3.258,3.258,3.801,4.887,5.973c-1.629,2.172,1.086,8.145,3.258,10.859
				c2.715,2.172,5.43,3.801,8.146,5.973c3.258,5.43,1.629,7.602,7.059,10.859c0,2.715,0,4.344-1.086,5.973
				c1.629,2.715,3.801,2.172,4.887,3.801c0.544,2.172,0.544,3.801,1.087,5.973c1.086,1.629,3.801,3.801,4.887,5.973h2.172
				c-0.543-5.43-8.688-22.262-13.031-27.148v-1.086c4.344,1.086,24.977,30.949,23.348,33.664c0,9.23,11.945,14.66,19.548,16.832
				c4.344-0.543,8.145-0.543,12.487-1.086c4.344,2.172-2.172,9.772,10.859,7.603c2.715,5.43,5.43,7.059,5.43,15.203
				c5.43,2.172,14.66,6.516,17.918,10.858c3.801-2.172,1.629,0,1.629-4.345c0.543-0.543,1.086-1.086,1.086-1.086
				c2.716,0.543,2.716,0.543,4.345,1.086c13.573,18.462-16.289,38.009-5.431,48.324c-1.086,3.802-1.629,3.802-4.344,5.431
				c1.086,12.487,8.688,12.487,12.488,20.633c0.543,3.258,1.086,6.516,1.629,9.773c5.973,14.116,11.402,22.805,23.891,30.405
				c3.258,30.406-4.344,62.441-9.772,85.246c-0.543,2.172-0.543,4.344-0.543,6.517c2.715-0.544,4.344-1.087,6.516-1.63
				c-0.543-2.172-0.543-3.801-0.543-3.801c3.258,0.543,3.801,1.086,5.973,2.172v1.086c-2.715,0.543-3.801,0.543-5.43,1.086
				c2.172,13.031,8.146,52.668,9.773,66.785c-5.431,0-10.859,0-16.289-0.543c-0.543-4.344-1.086-11.945-1.63-20.09v5.43
				c-1.086-1.086-1.629-1.629-2.715-2.715c-0.543,1.086-1.086,1.629-1.629,2.715c-1.086,1.629,1.086,11.402,1.629,12.488v2.172
				C769.191,638.531,645.938,507.133,645.938,347.5c0-167.777,136.285-304.063,304.063-304.063
				c103.707,0,194.926,51.582,249.766,130.855c0,3.801-0.543,4.887-1.086,9.773c-1.629-0.543-1.086,0-1.629-1.086
				c-2.172,0-3.258,0.543-4.887,1.086c-0.543,3.258-0.543,3.258,0,6.516c-1.086-0.543-3.801-1.086-4.344-1.629
				c-2.716,1.629-0.543,2.172-1.63,4.344c-0.543,0.543,0,0-1.086,0c-5.43-2.172-3.801-8.145-10.315-9.773v-1.629
				c4.887,1.629,10.858,6.516,15.746,2.715c1.086-1.086,1.629-1.629,2.715-2.715c-1.086-7.059-18.461-14.66-24.978-12.488
				c0.543-0.543,1.086-1.086,1.629-1.629c-1.629-3.801-4.344-2.172-5.43-4.344c-2.715,0.543-4.344,1.629-5.43,3.801
				c-1.629-1.086,0.543-0.543-1.086-1.629v-1.629c-6.517,3.258-12.488,4.887-21.177,7.059c1.086,2.172,1.086,1.629,2.715,2.715
				c-8.145,13.031-18.461,22.805-30.405,29.863c0.543,3.258,2.715,5.973,1.086,8.145c1.086,2.715,1.629,2.172,1.629,5.43
				c4.887,1.086,7.602,0,10.859-2.715c3.258,3.801,3.801,7.602,3.801,12.488c5.43-0.543,5.43-2.172,10.315-3.801
				c0-2.715,0-5.973,1.087-7.059c1.086-2.172,2.172-2.172,4.887-2.715c0.543-3.801-0.543-5.43-3.801-8.145
				c0.543-4.887,2.172-8.688,5.43-10.859c1.086-0.543,2.172-0.543,3.801-1.086c0,0,2.172-6.516,2.715-7.059
				c1.629,0.543,3.801,0.543,5.431,1.086c-1.087,4.887-3.802,7.602-7.603,9.773c0,5.43,2.172,9.773,1.629,10.859
				c0.543,0.543,2.172,1.086,2.715,1.629c3.259-0.543,3.259-0.543,4.345-2.715c4.887,0,5.43,1.086,9.229,1.629
				c-3.801,2.715-8.145,2.172-13.574,2.715l-1.086,1.086c0.543,1.629,1.086,3.801,1.629,5.43c-0.543,1.086-0.543,0-1.086,1.629
				c-2.715-0.543-2.172-1.086-4.887-1.629c-1.629,4.344-4.887,8.688-5.43,12.488c-7.06,0-19.004,1.629-19.547,1.086h-1.63
				c0-2.172,1.087-10.859,1.087-10.859v-2.715c-2.173,0.543-3.802,1.629-6.517,2.715c0.543,2.715,0,8.145,2.715,10.859
				c-2.172,4.887-5.973,1.629-9.229,3.801c-1.629,1.086-0.543,3.258-1.629,4.344c-1.629,1.629-11.945,6.516-11.945,6.516
				c-2.715,0.543-1.629,0-1.629,1.629c-1.629,2.172-2.715,2.172-6.516,1.629l-1.087,1.086c0.543,2.172,6.517,8.688,8.146,9.773
				v7.059c-5.43-1.086-14.117-1.629-18.461-1.086c-0.543,3.258-1.086,17.375,1.086,20.09c2.172,1.629,7.602,3.801,9.229,2.715
				c10.316-0.543,8.688-7.059,11.945-11.945c3.257-4.886,7.059-2.172,6.516-9.23c4.345-0.543,9.23,0.543,11.945-2.715
				c4.344,1.629,7.059,5.43,10.316,8.688c0-0.543,0.543-0.543,0.543-1.086c1.629,0,3.258,0.543,5.43,0.543
				c-0.543,0.543,0,0-1.629,0.543c0.543,2.715,0.543,2.172,2.172,2.715c0.543,0.543,2.715,0,3.801-0.543h0.543
				c-1.086-1.629-1.086-1.086-2.172-2.172h-1.629c0.543,0,1.086-0.543,1.086-0.543c-3.258-2.715-5.973-6.516-9.772-8.688
				c0-2.172,0-2.715,1.086-3.801v-1.086c2.715,1.629,3.258,4.887,5.43,6.516c2.172,1.629,5.973,2.172,8.146,4.344
				c0.543,0,1.086-0.543,1.629-0.543h1.629c-0.543,1.086-1.086,1.629-1.629,2.172v4.887c0,0.543,0,0.543,0.543,0.543
				c2.172,1.629,4.344,2.715,5.43,4.887c0,0,0.543,0,0.543,0.543c0.543,0,1.086,0,1.086-0.543l-2.172,2.172v0.543l0,0
				c0.543,0.543,0.543,0,1.086,1.629c5.431-0.543,4.888-2.715,8.146-2.715c-1.086-2.715-1.629-2.715-4.344-3.801v-3.801
				c3.801-1.086,3.801-1.629,6.516-2.715c2.172,6.516,1.086,7.602,4.887,13.574c5.43,1.629,12.488,3.801,16.289,0h1.086
				c0,5.973,1.086,8.145-1.629,11.945c-0.543,1.086-0.543,1.629-1.086,2.715c-6.516-0.543-13.574,2.172-16.289,1.629
				c-4.344-0.543-10.859-6.516-14.66-4.344c-2.172,1.086-2.715,2.172-2.715,5.43c-9.23-0.543-12.488-5.43-20.09-8.145
				c0-2.172,0-2.715,1.086-3.801c0-3.801,0-5.43-1.629-7.059c-8.688-3.801-31.492,8.145-35.836,3.801
				c-3.258,1.629-7.06,6.516-9.23,9.23c-2.172,3.258,0,7.602-1.629,11.945c-1.629,3.801-9.229,4.887-10.859,9.23
				c-4.887,9.773-4.887,12.488-3.801,23.891c0.543,4.887-4.344,6.516-2.715,11.944c0.543,0.543,59.184-0.543,60.271-0.543
				c-0.543,1.629-1.087,3.258-1.087,4.887c0,2.173-52.125,2.716-52.125,4.345c1.63,2.715,1.087,5.974,2.716,9.229
				c2.172,3.801,9.229,5.974,11.944,9.23c3.258-0.543,3.801-2.172,5.431-2.715c2.715-0.543,3.258,1.629,4.344,1.629
				c3.801,0.543,12.488-3.258,13.574-5.43c7.059,0,6.516,1.629,8.145,6.516c1.629-0.543,1.629,0,2.715-1.086
				c12.488,1.086,0.543,10.316,5.431,19.004c1.086,1.629,4.344,3.801,5.43,5.43c3.258,4.888,1.086,10.859,2.715,17.375
				c0,0.543,2.172,2.715,1.629,3.802c-1.086,4.344-8.688,11.401-5.43,19.004c1.629,3.801,5.973,8.688,7.602,13.03
				c-2.715,10.859,4.888,17.375,7.603,25.521c1.086,3.801-1.086,4.887,0,7.059c0.543,1.086,0.543,1.629,1.086,2.715
				c19.004-0.543,21.176-2.172,29.32-14.659c2.715-3.802,5.973-5.431,3.801-11.945c2.715-1.086,4.887-1.629,7.602-2.715
				c0-5.431-1.086-9.773-2.715-13.574c4.888-3.258,9.23-8.145,14.117-11.945c0-9.772-1.086-26.063-3.801-27.147
				c1.086-7.603,4.887-8.146,7.602-12.488v-3.801c2.715-4.888,10.316-8.146,13.574-12.488c0.543-1.086,1.086-8.146,1.629-19.547
				c1.086-45.609-0.543-155.832-2.715-177.551c27.147,46.695,43.979,101.535,43.979,160.719
				C1254.063,515.277,1117.777,651.563,950,651.563z M946.199,598.352h-1.086c-0.543,0.543-0.543,0.543-1.086,1.086v-2.172
				C945.656,598.352,945.113,597.809,946.199,598.352z M897.332,276.914V278c-2.715-3.258-0.543-7.059-1.086-10.316
				c1.086-0.543,2.715-1.086,3.258-1.629h2.715c-0.543,1.086-2.715,1.629-3.258,2.715
				C896.789,271.484,899.504,274.199,897.332,276.914z M900.59,263.34c-1.629,0.543-1.086,0-1.629,0.543
				c-2.715-0.543-2.172-0.543-3.258-2.172c-2.715,0.543-3.258,1.086-5.973,1.629v-0.543h-0.543c1.086-2.715,3.801-3.258,5.973-5.43
				c2.715,1.086,3.801,2.715,6.516,3.801C901.133,261.711,900.59,262.797,900.59,263.34z M911.449,269.855h-3.258
				c-0.543,1.629,0,1.629-1.086,2.715v1.629c-1.63-1.629-3.259-4.344-4.345-7.059c0.543-1.086,0.543,0,0.543-1.629
				c3.802,1.086,3.259,1.086,7.603,1.629v2.715H911.449z M911.992,274.742c-1.086,2.715-2.715,2.172-4.344,3.801
				c-1.629-0.543-1.629,0-2.716-0.543h-1.086c1.086-1.086,3.802-1.086,5.974-3.258H911.992z M913.078,273.656v-0.543
				c1.086-0.543,3.258-1.086,4.344-1.629h1.629v1.086c-1.629,0.543-3.258,0.543-4.344,1.629h-1.629V273.656z M825.117,257.91v0.543
				h-1.629c-0.543-1.086-0.543-2.172-1.086-3.258C823.488,256.281,824.031,256.824,825.117,257.91z M802.313,191.668
				c1.086-2.715,1.63-2.172,3.259-3.801c1.629,0.543,0.543,0,1.629,0.543c-2.172,1.086-3.258,0.543-4.345,3.258H802.313z
				 M803.398,233.477c-2.172-0.543-1.086-0.543-2.716,0c-1.629-2.172-2.715-4.887-2.715-5.43
				C801.77,229.133,801.77,230.762,803.398,233.477z M1206.281,363.246c-3.258,0-5.431-0.543-7.603-1.086v-4.344L1206.281,363.246z
				 M1141.668,338.27c-0.543-2.715-0.543-4.887-0.543-7.602c-1.629-3.801-4.887-8.688-5.973-13.031h2.172
				c1.086,3.258,2.715,2.715,3.801,4.344v2.715c1.086,1.086,2.172,2.172,2.715,2.715v6.516c1.086,2.715,5.43,5.43,7.059,8.145
				c1.087,2.172,0.543,6.516,1.63,8.145v2.715h-0.543c-1.63-3.801-5.431-4.344-7.06-7.602v-4.887
				C1143.84,339.355,1142.754,338.813,1141.668,338.27z M1134.609,390.395c-1.629,0-2.172,0-2.715,0.543
				c-1.63-2.172-1.087-4.344-0.543-6.516h2.715c1.086,1.629-0.543,0.543,1.629,1.629
				C1134.609,388.223,1134.609,388.766,1134.609,390.395z"/>
		</g>
	</g>
</g>
<g id="row3_1_">
	<g id="card" display="none">
		<g display="inline">
			<path fill="#141414" d="M1075.993,256.416h-26.006h-43.492H893.504h-8.743h-34.749h-8.743h-17.263
				c-11.208,0-17.486,6.053-17.486,17.487v144.601c0,11.434,9.191,20.626,20.401,20.626h245.933
				c11.209,0,20.401-9.192,20.401-20.626V273.229C1093.479,261.796,1087.427,256.416,1075.993,256.416z M888.572,302.374
				c12.331,0,22.419,13.227,22.419,29.817c0,16.366-10.088,29.817-22.419,29.817c-12.33,0-22.418-13.228-22.418-29.817
				C866.154,315.825,876.018,302.374,888.572,302.374z M844.184,396.98c0,0,2.466-19.729,7.846-23.315
				c5.605-3.811,21.522-6.277,21.522-6.277s10.313,11.209,14.572,11.209c4.26,0,14.796-11.209,14.796-11.209
				s15.917,2.467,21.522,6.277c6.501,4.483,8.071,23.315,8.071,23.315H844.184z M1058.73,369.406h-95.728v-8.744h95.728V369.406z
				 M1058.73,343.4h-95.728v-8.744h95.728V343.4z M1058.73,317.17h-95.728v-8.744h95.728V317.17z"/>
		</g>
	</g>
	<g id="tie">
		<g>
			<path fill="#19647E" d="M898.885,416.261l110.076-62.324l-9.191-28.247l-89.227,53.581L898.885,416.261z M915.026,365.37
				l82.053-47.975l-9.64-29.593l-58.737,33.628L915.026,365.37z M933.186,307.53l43.269-24.885h-35.422L933.186,307.53z
				 M985.646,270.315l14.796-66.135h-72.86l14.348,66.135H985.646z M1018.152,382.408l-109.852,62.549l7.398,6.501l105.368-59.858
				L1018.152,382.408z M865.705,373.217v20.177h20.177l33.628-90.123L865.705,373.217z M1024.206,401.24L923.77,458.408
				l37.439,32.731l73.085-58.962L1024.206,401.24z M1012.1,363.577l-117.698,67.032l-0.448,1.568l6.501,5.605l114.56-65.015
				L1012.1,363.577z"/>
		</g>
	</g>
	<g id="address_x5F_book_1_" display="none">
		<g id="_x32_" display="inline">
			<path fill="#141414" d="M1055.144,414.691v47.752h28.696v-47.752H1055.144z M1055.144,357.3v47.752h28.696V357.3H1055.144z
				 M1055.144,242.516v47.751h28.696v-47.751H1055.144z M1055.144,299.908v47.751h28.696v-47.751H1055.144z M838.13,226.375
				c0-6.053,0.448-12.554,6.501-12.554h219.928c-3.812-6.501-8.743-9.641-17.038-9.641H849.115
				c-12.106,0-22.194,9.865-22.194,22.195v33.18h5.604c9.192,0,16.59,7.398,16.59,16.59s-7.398,16.59-16.59,16.59h-5.38v10.985
				h5.605c9.191,0,16.59,7.398,16.59,16.59c0,9.192-7.398,16.59-16.59,16.59h-5.605v10.761h5.605c9.191,0,16.59,7.398,16.59,16.59
				c0,9.191-7.398,16.59-16.59,16.59h-5.605v10.984h5.605c9.191,0,16.59,7.398,16.59,16.59c0,9.192-7.398,16.591-16.59,16.591
				h-5.605v10.984h5.605c9.191,0,16.59,7.398,16.59,16.591c0,9.191-7.398,16.59-16.59,16.59h-5.605
				c0,12.33,9.864,22.194,22.195,22.194h178.677c12.331,0,17.936-16.59,17.936-28.696V232.876h-191.68
				C848.219,232.876,838.13,232.428,838.13,226.375z M977.574,376.804c2.019-1.121,4.483-0.448,5.381,1.346l14.348,23.315
				c1.121,1.794,0.673,4.26-1.345,5.38l0,0l-8.743,4.933l-18.159-30.041L977.574,376.804z M930.944,300.356
				c2.018-1.121,4.259-0.448,5.38,1.345l14.572,23.988c1.121,1.793,0.673,4.035-1.345,5.156l0,0l-8.743,4.932l-18.607-30.714
				L930.944,300.356z M919.734,306.634l18.607,30.713c-4.483,2.69-2.242,8.295,0.448,14.124c0,0.225,13.003,21.298,13.003,21.522
				c6.726,8.743,10.313,12.778,14.572,10.537l18.159,29.816c-5.156,3.14-30.714,4.933-57.841-40.354
				C901.127,329.276,914.802,310.22,919.734,306.634z M832.525,270.315h-10.985c-3.139,0-5.605,2.466-5.605,5.605
				c0,3.138,2.467,5.604,5.605,5.604h10.985c3.139,0,5.604-2.466,5.604-5.604C838.13,272.781,835.664,270.315,832.525,270.315z
				 M832.525,314.48h-10.985c-3.139,0-5.605,2.466-5.605,5.604c0,2.915,2.467,5.381,5.605,5.381h10.985
				c3.139,0,5.604-2.466,5.604-5.381C838.13,316.946,835.664,314.48,832.525,314.48z M832.525,446.975h-10.985
				c-3.139,0-5.605,2.466-5.605,5.604s2.467,5.604,5.605,5.604h10.985c3.139,0,5.604-2.466,5.604-5.604
				S835.664,446.975,832.525,446.975z M832.525,358.645h-10.985c-3.139,0-5.605,2.467-5.605,5.605c0,3.138,2.467,5.604,5.605,5.604
				h10.985c3.139,0,5.604-2.466,5.604-5.604C838.13,361.111,835.664,358.645,832.525,358.645z M832.525,402.81h-10.985
				c-3.139,0-5.605,2.466-5.605,5.604s2.467,5.381,5.605,5.381h10.985c3.139,0,5.604-2.467,5.604-5.381
				C838.13,405.275,835.664,402.81,832.525,402.81z"/>
		</g>
	</g>
	<g id="photostat_x5F_machine" display="none">
		<g display="inline">
			<path fill="#141414" d="M1021.739,303.271h-42.371l36.318-18.159l-6.053-12.106l-60.307,24.212l-1.345-30.265H876.69v54.478
				h145.049V303.271z M967.486,399.896h-30.265l-11.209-12.105H876.69v42.37h145.049v-42.371h-43.268L967.486,399.896z
				 M1021.739,359.99v-11.658l71.74-19.28l-3.139-11.657l-68.602,18.383v-8.295H876.69v6.726l-64.117-37.664l-6.053,10.313
				l70.17,41.25v33.628h145.049v-9.191l71.74-19.28l-3.139-11.658L1021.739,359.99z"/>
		</g>
	</g>
	<g id="drawer" display="none">
		<g display="inline">
			<path fill="#141414" d="M856.065,298.114h188.093v-19.728H856.065V298.114z M1034.07,238.705l29.592,49.545v-79.138H836.113
				v79.138l39.681-49.545H1034.07z M806.52,307.979v178.005h286.959V307.979H806.52z M915.475,347.66h69.274v39.681h-69.274V347.66z
				 M1014.342,436.662v19.729H885.658v-19.729v-19.729h19.729v19.729h89.002v-19.729h19.729v19.729H1014.342z M875.794,258.657
				v9.864h148.411v-9.864H875.794z"/>
		</g>
	</g>
	<g id="telephone" display="none">
		<g display="inline">
			<path fill="#141414" d="M926.908,241.171v194.37h-92.589v-194.37H806.52v231.361h286.959V241.171H926.908z M982.507,435.541
				h-18.607v-18.384h18.607V435.541z M982.507,398.55h-18.607v-18.607h18.607V398.55z M982.507,361.56h-18.607v-18.607h18.607
				V361.56z M1019.498,435.541h-18.607v-18.384h18.607V435.541z M1019.498,398.55h-18.607v-18.607h18.607V398.55z M1019.498,361.56
				h-18.607v-18.607h18.607V361.56z M1056.488,435.541h-18.607v-18.384h18.607V435.541z M1056.488,398.55h-18.607v-18.607h18.607
				V398.55z M1056.488,361.56h-18.607v-18.607h18.607V361.56z M1065.681,315.153H954.708v-36.991h110.973V315.153z M862.118,426.35
				h36.991c10.313,0,18.607-8.295,18.607-18.607V241.171c0-10.313-8.295-18.607-18.607-18.607h-36.991
				c-10.313,0-18.607,8.295-18.607,18.607v166.571C843.511,418.055,851.806,426.35,862.118,426.35z"/>
		</g>
	</g>
</g>
<g id="row2_1_" display="none">
	<g id="dustbin" display="inline">
		<g>
			<path fill="#141414" d="M1124.836,598.352l28.234-155.832l-89.047,155.832H1124.836z M928.824,187.867l-159.09,279.086
				l12.487,68.414L978.777,188.41h-49.953V187.867z M719.781,187.867l17.918,99.363l56.469-99.363H719.781z M696.977,96.648v68.414
				h524.509V96.648H696.977z M836.52,187.867l-88.504,156.375l11.945,66.242L886.473,188.41H836.52V187.867z M1021.672,598.352
				l150.945-264.969l23.348-128.684L973.348,598.352H1021.672z M1021.129,187.867l-228.59,403.969l1.086,6.516h45.066
				l232.391-410.483L1021.129,187.867L1021.129,187.867z M1112.891,187.867L880.5,598.352h49.41l232.391-410.483L1112.891,187.867
				L1112.891,187.867z"/>
		</g>
	</g>
	<g id="computer" display="inline">
		<g>
			<path fill="#141414" d="M715.438,431.66c-11.401,0-20.633,9.229-20.633,20.633s9.23,20.633,20.633,20.633
				c11.403,0,20.634-9.229,20.634-20.633C736.613,440.891,727.383,431.66,715.438,431.66z M1297.5,484.871V193.84H893.531v291.031
				h177.551v64.613H958.145v32.578h258.453v-32.578H1103.66v-64.613H1297.5z M925.566,452.293V226.418h339.354v226.418H925.566
				V452.293z M602.5,582.063h226.418V112.938H602.5V582.063z M715.438,501.16c-26.604,0-48.323-21.719-48.323-48.324
				c0-26.604,21.719-48.324,48.323-48.324c26.605,0,48.324,21.72,48.324,48.324C764.305,479.441,742.586,501.16,715.438,501.16z
				 M796.34,339.355h-32.578v-32.578h32.578V339.355z M635.078,145.516h161.805v16.289H635.078V145.516z M635.078,193.84h161.805
				v16.289H635.078V193.84z M635.078,242.707h161.805v16.289H635.078V242.707z M635.078,307.32h32.578v32.578h-32.578V307.32z"/>
		</g>
	</g>
	<g id="archive" display="inline">
		<g>
			<path fill="#141414" d="M860.41,246.508H748.016v22.262H860.41V246.508z M860.41,403.426H748.016v22.262H860.41V403.426z
				 M860.41,358.902H748.016v22.262H860.41V358.902z M860.41,201.984H748.016v22.262H860.41V201.984z M804.484,534.281
				c-21.72,0-39.638,17.375-39.638,39.094s17.375,39.094,39.638,39.094c21.719,0,39.637-17.375,39.637-39.094
				C843.578,551.656,826.203,534.281,804.484,534.281z M860.41,156.918H748.016v22.805H860.41V156.918z M1151.984,246.508H1039.59
				v22.262h112.396L1151.984,246.508L1151.984,246.508z M1151.984,358.902H1039.59v22.262h112.396L1151.984,358.902
				L1151.984,358.902z M1151.984,201.984H1039.59v22.262h112.396L1151.984,201.984L1151.984,201.984z M1190.535,0h-190.039
				c-15.203,0-27.691,12.488-27.691,27.691v639.617c0,15.203,12.488,27.691,27.691,27.691h190.039
				c15.203,0,27.691-12.488,27.691-27.691V27.691C1218.77,12.488,1206.281,0,1190.535,0z M1095.516,649.934
				c-43.438,0-78.729-35.293-78.729-78.188s35.293-78.188,78.729-78.188c43.438,0,78.73,35.294,78.73,78.188
				S1138.953,649.934,1095.516,649.934z M1174.246,448.492h-157.461v-336.64h157.461V448.492z M899.504,0H709.465
				c-15.203,0-27.69,12.488-27.69,27.691v639.617c0,15.203,12.487,27.691,27.69,27.691h190.039
				c15.203,0,27.691-12.488,27.691-27.691V27.691C927.195,12.488,914.707,0,899.504,0z M804.484,649.934
				c-43.438,0-78.73-35.293-78.73-78.188s35.293-78.188,78.73-78.188c43.437,0,78.729,35.294,78.729,78.188
				S847.922,649.934,804.484,649.934z M883.215,448.492H725.754v-336.64h157.461V448.492z M1151.984,156.918H1039.59v22.805h112.396
				L1151.984,156.918L1151.984,156.918z M1095.516,534.281c-21.719,0-39.637,17.375-39.637,39.094s17.375,39.094,39.637,39.094
				c21.72,0,39.638-17.375,39.638-39.094S1117.234,534.281,1095.516,534.281z M1151.984,403.426H1039.59v22.262h112.396
				L1151.984,403.426L1151.984,403.426z"/>
		</g>
	</g>
	<g id="mail" display="inline">
		<g>
			<path fill="#141414" d="M602.5,115.652v463.152h695V115.652H602.5z M1274.152,208.5L953.258,417l-327.41-208.5v-46.152
				l325.238,208.5l323.609-208.5V208.5H1274.152z"/>
		</g>
	</g>
	<path id="stop_watch_2_" display="inline" fill="#141414" d="M1297.5,347.5c0,191.668-155.832,347.5-347.5,347.5
		S602.5,539.168,602.5,347.5c0-186.238,146.602-337.727,330.125-346.957L960.316,0C1147.641,5.973,1297.5,159.09,1297.5,347.5z
		 M932.625,107.508V43.98c-85.789,4.887-162.348,45.609-215.016,106.965l45.608,45.609l-19.547,19.547l-43.438-43.438
		c-35.293,49.953-55.927,110.766-55.927,176.465c0,2.715,0.543,7.06,0.543,7.06h67.328v27.69h-65.156
		c6.517,56.469,28.777,110.223,62.441,153.117l34.207-34.207l19.547,19.547l-35.836,35.836
		c52.125,55.383,124.34,91.219,205.242,96.105v-75.474h27.691v76.017c82.53-2.716,156.918-38.552,210.129-94.478l-39.638-39.637
		l19.548-19.547l38.008,38.008c34.207-43.438,57.555-97.734,64.069-155.289h-70.586v-27.691h72.759c0-2.715,0.543-3.801,0.543-7.059
		c0-67.328-22.263-129.77-59.185-180.266l-45.608,45.609l-19.548-19.547l47.781-47.781
		c-53.211-60.813-130.854-100.449-218.272-103.707v63.527h-27.691v0.546H932.625z M961.945,356.188h97.19
		c7.603,0,14.117,5.974,14.117,14.117c0,8.145-5.973,14.117-14.117,14.117H948.371c-7.602,0-14.117-5.973-14.117-14.117V177.008
		c0-7.602,5.973-14.117,14.117-14.117c7.602,0,14.117,5.973,14.117,14.117v179.18H961.945z"/>
	<g id="pin" display="inline">
		<g>
			<path fill="#141414" d="M1053.707,419.172L802.313,274.199c-30.948-17.918-69.5-8.688-86.332,20.633s-5.43,67.328,25.521,85.246
				l251.396,144.973c30.948,17.918,69.5,8.688,86.332-20.633S1084.656,437.09,1053.707,419.172z M845.207,263.883l195.469,112.938
				l61.355-176.464l-134.656-78.188L845.207,263.883z M695.348,695l198.185-191.668l-83.617-48.324L695.348,695z M1180.219,103.707
				L1012.441,7.059c-23.349-13.574-52.125-6.516-64.613,15.746c-12.488,21.719-4.344,50.496,19.004,64.07l167.777,96.648
				c23.348,13.574,52.125,6.516,64.612-15.746C1211.71,145.515,1203.023,116.738,1180.219,103.707z"/>
		</g>
	</g>
</g>
<g id="row1_1_" display="none">
	<g id="chair" display="inline">
		<g>
			<path fill="#141414" d="M1093.887,0H806.113c-26.605,0-47.781,21.719-47.781,47.781l23.891,215.559
				c0,26.605,21.719,47.781,47.781,47.781h239.449c26.604,0,47.781-21.719,47.781-47.781l23.891-215.559
				C1141.668,21.719,1120.492,0,1093.887,0z M1117.777,335.555H782.223c-13.03,0-23.891,10.859-23.891,23.89
				c0,13.033,10.859,23.892,23.891,23.892h335.556c13.03,0,23.891-10.858,23.891-23.892
				C1141.669,346.414,1130.809,335.555,1117.777,335.555z M687.746,236.191c-3.258-13.031-16.832-20.633-29.32-16.832
				c-12.488,3.258-20.09,16.832-16.832,29.32l43.438,161.805c3.258,13.03,16.289,20.633,29.319,16.832
				c13.031-3.259,20.091-16.832,16.832-29.32L687.746,236.191z M1241.574,219.359c-13.031-3.258-26.063,4.344-29.32,16.832
				l-43.438,161.805c-3.259,13.031,4.344,26.063,16.832,29.32c13.03,3.258,26.063-4.345,29.319-16.832l43.438-161.805
				C1261.664,236.191,1254.063,222.617,1241.574,219.359z M1065.652,551.113H973.89V431.117c0-13.031-10.858-23.892-23.891-23.892
				s-23.892,10.859-23.892,23.892v119.996h-115.65c-15.746,0-28.234,10.858-28.234,23.891s12.488,23.891,28.234,23.891h254.652
				c15.746,0,28.233-10.858,28.233-23.891C1093.887,561.973,1080.855,551.113,1065.652,551.113z M841.949,623.328
				c-20.09,0-35.836,16.289-35.836,35.836c0,20.09,16.289,35.836,35.836,35.836c20.09,0,35.836-16.289,35.836-35.836
				C878.328,639.074,862.039,623.328,841.949,623.328z M938.055,623.328c-20.09,0-35.836,16.289-35.836,35.836
				c0,20.09,16.289,35.836,35.836,35.836c20.09,0,35.836-16.289,35.836-35.836C973.891,639.074,957.602,623.328,938.055,623.328z
				 M1033.617,623.328c-20.09,0-35.836,16.289-35.836,35.836c0,20.09,16.289,35.836,35.836,35.836
				c20.09,0,35.836-16.289,35.836-35.836C1069.996,639.074,1053.707,623.328,1033.617,623.328z"/>
		</g>
	</g>
	<g id="table" display="inline">
		<g>
			<path fill="#141414" d="M1235.602,242.707h-15.202V118.91h-216.103v123.797h-15.203v15.203h247.051v-15.203H1235.602z
				 M1204.652,226.961H1019.5v-92.305h185.152V226.961z M710.551,339.898h293.203v-30.949H710.551V339.898z M806.113,239.992
				h-48.867v-59.184l46.152-57.012v26.063l-30.949,46.152h92.848l-30.949-46.152V108.05h-30.948L741.5,171.578v68.414h-43.438
				v15.203h108.051V239.992z M1019.5,509.848h185.152V417H1019.5V509.848z M1081.398,447.949h61.897v15.203h-61.897V447.949z
				 M602.5,262.797v30.406h61.898v293.203h30.948V293.203h525.052v293.203h30.948V293.203h46.152v-30.949h-695L602.5,262.797
				L602.5,262.797z M1019.5,401.797h185.152v-92.848H1019.5V401.797z M1081.398,339.898h61.897v15.204h-61.897V339.898z"/>
		</g>
	</g>
	<g id="Printer" display="inline">
		<g>
			<path fill="#141414" d="M1093.344,531.566H806.656v20.633h286.145v-20.633H1093.344z M1093.344,490.844H806.656v20.633h286.145
				v-20.633H1093.344z M1236.145,224.789h-40.723V40.723c0-11.402-9.229-20.633-20.633-20.633H725.211
				c-11.402,0-20.633,9.23-20.633,20.633v184.066h-40.723c-35.836,0-61.355,32.035-61.355,61.355v265.512
				c0,11.401,24.977,40.723,61.355,40.723h40.723v61.355c0,11.401,9.229,20.633,20.633,20.633h449.578
				c11.402,0,20.633-9.23,20.633-20.633v-61.355h40.724c34.75,0,61.354-29.32,61.354-40.723V286.145
				C1297.5,258.453,1270.895,224.789,1236.145,224.789z M745.844,61.355h408.855v163.434H745.844V61.355z M1154.156,633.645H745.844
				V470.211h408.855v163.434H1154.156z M1164.473,347.5c-16.832,0-30.405-13.574-30.405-30.406
				c0-16.832,13.573-30.406,30.405-30.406s30.406,13.574,30.406,30.406C1194.879,333.926,1181.305,347.5,1164.473,347.5z
				 M1093.344,572.289H806.656v20.633h286.145v-20.633H1093.344z"/>
		</g>
	</g>
	<g id="pie_x5F_chart" display="inline">
		<g>
			<path fill="#141414" d="M950,90.133L950,90.133c0-2.172,0-13.031,0-67.328c-185.695-0.543-336.098,150.402-336.098,336.097
				C613.902,544.599,764.305,695,950,695s336.098-150.402,336.098-336.098c0-7.603,0-22.262,0-22.262H950V90.133z M988.551,0.543
				c-5.43,0-16.289-0.543-16.289-0.543v313.293c0,0,260.625,0,313.836,0C1286.098,138.457,1160.672,8.145,988.551,0.543z
				 M995.066,22.262c188.953,1.086,268.77,179.18,268.77,268.77c-31.492,0-268.77,0-268.77,0S995.066,87.961,995.066,22.262z"/>
		</g>
	</g>
	<g id="calculator" display="inline">
		<g>
			<path fill="#141414" d="M1184.563,0H715.438c-16.289,0-29.319,13.574-29.319,30.406v634.729c0,16.832,13.03,30.406,29.319,30.406
				h468.582c16.289,0,29.32-13.574,29.32-30.406V30.406C1213.883,13.574,1200.309,0,1184.563,0z M734.441,47.781h431.116v191.668
				H734.441V47.781z M1165.559,287.773v71.672h-48.323v-71.672H1165.559z M830.004,359.445v-71.672h48.324v71.672H830.004z
				 M877.785,383.879v71.672h-48.324v-71.672H877.785z M782.223,647.219h-48.323v-72.758h48.323V647.219z M782.766,551.656h-48.323
				v-72.758h48.323V551.656z M782.766,455.551h-48.323v-72.758h48.323V455.551z M782.766,359.445h-48.323v-71.672h48.323V359.445z
				 M830.004,478.898h48.324v72.758h-48.324V478.898z M878.328,647.219h-47.781v-72.758h48.324v72.758H878.328z M973.891,647.219
				h-48.323v-72.758h48.323V647.219z M973.891,551.656h-48.323v-72.758h48.323V551.656z M973.891,455.551h-48.323v-71.672h48.323
				V455.551z M973.891,359.445h-48.323v-71.672h48.323V359.445z M1069.996,647.219h-48.324v-72.758h48.324V647.219z
				 M1069.996,551.656h-48.324v-72.758h48.324V551.656z M1069.996,455.551h-48.324v-72.215h48.324V455.551z M1069.996,359.445
				h-48.324V287.23h48.324V359.445z M1117.234,382.793h48.323v72.758h-48.323V382.793z M1165.559,647.219h-48.323v-72.758h48.323
				V647.219z M1166.102,551.656h-48.323v-72.758h48.323V551.656z"/>
		</g>
	</g>
	<path id="briefcase_2_" display="inline" fill="#141414" d="M1245.918,660.25H654.082c-28.234,0-51.582-23.348-51.582-52.125
		V312.75c0,0,131.941,64.07,254.652,92.848v46.152h185.151v-46.152c123.254-28.777,254.652-92.848,254.652-92.848v295.375
		C1297.5,636.902,1274.695,660.25,1245.918,660.25z M859.867,371.934C737.156,342.613,602.5,266.598,602.5,266.598v-46.152
		c0-28.777,17.918-46.695,46.152-46.695H811v-69.5c0-28.777,20.633-69.5,48.867-69.5h182.979c28.234,0,46.152,40.723,46.152,69.5
		v69.5h162.348c28.234,0,46.152,17.918,46.152,46.152v46.152c0,0-134.656,76.559-257.367,105.878H859.867z M1042.848,104.25
		c0-14.117-8.688-23.348-23.348-23.348h-139c-14.117,0-22.262,3.801-23.348,23.348c-0.543,19.547,0,69.5,0,69.5h185.151
		C1042.848,173.75,1042.848,118.367,1042.848,104.25z"/>
</g>
</svg>
