<?xml version="1.0" encoding="utf-8"?>
<!-- Generator: Adobe Illustrator 13.0.0, SVG Export Plug-In . SVG Version: 6.00 Build 14948)  -->
<!DOCTYPE svg PUBLIC "-//W3C//DTD SVG 1.1//EN" "http://www.w3.org/Graphics/SVG/1.1/DTD/svg11.dtd">
<svg version="1.1" id="Layer_1" xmlns="http://www.w3.org/2000/svg" xmlns:xlink="http://www.w3.org/1999/xlink" x="0px" y="0px"
	 width="300px" height="300px" viewBox="0 0 300 300" enable-background="new 0 0 300 300" xml:space="preserve">
<g>
	<path fill="#EEC643" d="M145.814,23.553c-9.279-0.737-17.96-3.203-17.96-3.203s0.28,9.279-1.576,14.134
		c-1.855,4.855-7.283,9.139-8.42,9.991c-1.138,0.864-10.276,9.285-22.847,12.285c-12.571,2.993-20.413,3.705-28.134,11.141
		c-7.709,7.41-10.423,19.981-11.993,35.405c-1.563,15.424-3.425,28.7-5.281,44.544c-1.849,15.856-2.288,36.695-2.142,53.689
		c0.153,16.994-0.051,68.979-0.025,72.551c0.025,3.572,1.309,6.279,12.876,6.279c11.566,0,14.286-1.283,14.286-5.859
		c0-4.563-0.858-22.275,0.14-27.271c0.998-4.995,3-21.982,2.567-34.268c-0.419-12.278,1.004-22.847,1.284-25.999
		c0.286-3.133,1.424-17.985,1.284-20.984c-0.14-3,1.57-8.135,3.998-11.421c2.428-3.285,5.574-14.706,5.574-14.706
		s1.137,12.704,1.284,21.563c0.146,8.859,1.716,38.551,1.284,43.267c-0.419,4.716-2.567,32.132-4.423,38.271
		c-1.862,6.139-3.432,22.128-3.432,26.272c0,9.469,0.711,11.337,61.658,11.42V23.553z"/>
	<path fill="#19647E" d="M253.941,201.537c0.141-16.994-0.292-37.833-2.147-53.689c-1.855-15.844-3.712-29.12-5.288-44.544
		c-1.563-15.424-4.276-27.995-11.985-35.405c-7.716-7.436-15.57-8.147-28.129-11.141c-12.576-3-21.709-11.42-22.853-12.285
		c-1.145-0.852-6.571-5.135-8.428-9.991c-1.855-4.855-1.569-14.134-1.569-14.134s-8.675,2.466-17.941,3.203v257.101
		c60.922-0.096,61.634-1.951,61.634-11.42c0-4.145-1.563-20.134-3.42-26.272c-1.868-6.14-4.003-33.556-4.423-38.271
		c-0.432-4.716,1.131-34.407,1.277-43.267s1.29-21.563,1.29-21.563s3.14,11.421,5.567,14.706c2.428,3.286,4.131,8.421,3.991,11.421
		c-0.14,2.999,1.004,17.852,1.29,20.984c0.279,3.152,1.71,13.721,1.29,25.999c-0.432,12.285,1.563,29.272,2.555,34.268
		c1.004,4.995,0.152,22.707,0.152,27.271c0,4.576,2.708,5.859,14.274,5.859c11.572,0,12.862-2.707,12.888-6.279
		C253.992,270.517,253.789,218.531,253.941,201.537z"/>
</g>
</svg>
