<?xml version="1.0" encoding="utf-8"?>
<!-- Generator: Adobe Illustrator 13.0.0, SVG Export Plug-In . SVG Version: 6.00 Build 14948)  -->
<!DOCTYPE svg PUBLIC "-//W3C//DTD SVG 1.1//EN" "http://www.w3.org/Graphics/SVG/1.1/DTD/svg11.dtd">
<svg version="1.1" id="Layer_1" xmlns="http://www.w3.org/2000/svg" xmlns:xlink="http://www.w3.org/1999/xlink" x="0px" y="0px"
	 width="300px" height="300px" viewBox="0 0 300 300" enable-background="new 0 0 300 300" xml:space="preserve">
<g>
	<path fill="#EEC643" d="M180.282,153.996l9.12,38.074l-10.368,2.48l-3.354-13.956l-2.438,43.05l-10.646-0.609l3.896-68.748
		c-2.968,0.041-6.017,0.056-9.245,0.056c-22.053,0-37.59-0.858-47.68-1.718c-0.513,2.148-13.348,62.314-13.348,113.279
		c0,18.961,12.142,28.15,61.028,28.15c48.898,0,61.04-9.189,61.04-28.15c0-50.965-12.833-111.131-13.349-113.279
		C198.813,153.152,190.648,153.664,180.282,153.996z"/>
	<path fill="#19647E" d="M240.366,86.635c-2.218-6.667-10.519-60.001-14.816-67.847c-4.298-7.844-16.896-8.593-16.896-8.593
		s-14.954,42.51-51.407,77.938c-36.439-35.427-51.408-77.938-51.408-77.938s-12.585,0.749-16.882,8.593
		c-4.296,7.846-12.599,61.181-14.817,67.847c-2.231,6.667-2.231,7.859,2.662,14.526c4.477,6.112,16.91,26.126,25.35,34.234
		c0.776,0.735,1.512,1.386,2.204,1.914c1.262-22.663,1.927-34.665,5.668-53.044c-1.22,26.903-0.346,57.646,0.25,57.701
		c9.799,0.846,25.128,1.706,46.973,1.706c21.856,0,37.188-0.86,46.972-1.706c0.598-0.055,1.483-30.798,0.252-57.701
		c3.74,18.379,4.42,30.382,5.668,53.044c0.691-0.527,1.44-1.178,2.203-1.914c8.44-8.108,20.873-28.123,25.352-34.234
		C242.584,94.495,242.584,93.302,240.366,86.635z"/>
</g>
</svg>
