<?xml version="1.0" encoding="utf-8"?>
<!-- Generator: Adobe Illustrator 13.0.0, SVG Export Plug-In . SVG Version: 6.00 Build 14948)  -->
<!DOCTYPE svg PUBLIC "-//W3C//DTD SVG 1.1//EN" "http://www.w3.org/Graphics/SVG/1.1/DTD/svg11.dtd">
<svg version="1.1" id="Layer_1" xmlns="http://www.w3.org/2000/svg" xmlns:xlink="http://www.w3.org/1999/xlink" x="0px" y="0px"
	 width="300px" height="300px" viewBox="0 0 300 300" enable-background="new 0 0 300 300" xml:space="preserve">
<rect id="_529407912" x="29.582" y="29.449" fill="none" width="241.918" height="241.918"/>
<g id="_529405944">
	<polygon id="_529407552" fill="#EF5350" points="143.299,64.686 143.299,35.78 143.299,29.449 149.089,32.025 167.671,40.282 
		174.525,43.328 168.302,47.474 151.56,58.637 151.56,64.686 	"/>
	<polygon id="_529407432" fill="#FBC02D" points="46.21,74.627 254.869,74.627 254.869,271.367 46.21,271.367 	"/>
	<polygon id="_529407120" fill="#FFFDE7" points="64.882,104.436 93.115,104.436 93.115,133.531 64.882,133.531 	"/>
	<polygon id="_529407000" fill="#FFFDE7" points="112.578,104.436 140.808,104.436 140.808,133.531 112.578,133.531 	"/>
	<polygon id="_529406952" fill="#FFFDE7" points="160.274,104.436 188.504,104.436 188.504,133.531 160.274,133.531 	"/>
	<polygon id="_529406304" fill="#FFFDE7" points="207.967,104.436 236.197,104.436 236.197,133.531 207.967,133.531 	"/>
	<polygon id="_529406616" fill="#FFFDE7" points="64.882,162.413 93.115,162.413 93.115,191.507 64.882,191.507 	"/>
	<polygon id="_529406424" fill="#FFFDE7" points="112.578,162.413 140.808,162.413 140.808,191.507 112.578,191.507 	"/>
	<polygon id="_529406400" fill="#FFFDE7" points="160.274,162.413 188.504,162.413 188.504,191.507 160.274,191.507 	"/>
	<polygon id="_529406856" fill="#FFFDE7" points="207.967,162.413 236.197,162.413 236.197,191.507 207.967,191.507 	"/>
	<polygon id="_529405632" fill="#FFFDE7" points="207.967,220.389 236.197,220.389 236.197,249.484 207.967,249.484 	"/>
	<polygon id="_529405752" fill="#FFFDE7" points="64.882,220.389 93.115,220.389 93.115,249.484 64.882,249.484 	"/>
	<polygon id="_529406088" fill="#1B998B" points="123.712,271.362 123.712,217.705 177.369,217.705 177.369,271.362 
		165.446,271.362 135.636,271.362 	"/>
	<rect id="_529405728" x="76.019" y="62.118" fill="#1B998B" width="149.044" height="12.509"/>
</g>
<polyline fill="none" points="138.586,74.788 138.586,37.596 162.497,48.224 138.586,64.161 "/>
</svg>
