<?xml version="1.0" encoding="utf-8"?>
<!-- Generator: Adobe Illustrator 13.0.0, SVG Export Plug-In . SVG Version: 6.00 Build 14948)  -->
<!DOCTYPE svg PUBLIC "-//W3C//DTD SVG 1.1//EN" "http://www.w3.org/Graphics/SVG/1.1/DTD/svg11.dtd">
<svg version="1.1" id="Layer_1" xmlns="http://www.w3.org/2000/svg" xmlns:xlink="http://www.w3.org/1999/xlink" x="0px" y="0px"
	 width="300px" height="300px" viewBox="0 0 300 300" enable-background="new 0 0 300 300" xml:space="preserve">
<g>
	<path fill="#19647E" d="M117.009,89.003c9.221-0.763,21.207-1.525,32.239-1.525c11.031,0,23.019,0.762,32.228,1.525l0.048-0.596
		c0,0,10.044-32.668,9.399-39.15c-0.631-6.48-9.78-17.156-19.312-18.681c-9.532-1.524-18.932,1.275-22.363,1.275
		s-12.843-2.8-22.375-1.275c-9.531,1.525-18.681,12.201-19.313,18.681c-0.631,6.482,9.401,39.15,9.401,39.15L117.009,89.003z"/>
	<path fill="#19647E" d="M225.235,166.933c-10.306-15.356-43.735-67.767-44.403-68.791c-9.078-0.751-20.91-1.513-31.584-1.513
		c-10.687,0-22.518,0.762-31.596,1.513c-0.667,1.024-34.086,53.435-44.404,68.791c-10.425,15.501-46,79.813-46,79.813
		s22.112,25.662,122,25.662c99.888,0,122-25.662,122-25.662S235.66,182.434,225.235,166.933z"/>
</g>
</svg>
