<?xml version="1.0" encoding="utf-8"?>
<!-- Generator: Adobe Illustrator 13.0.0, SVG Export Plug-In . SVG Version: 6.00 Build 14948)  -->
<!DOCTYPE svg PUBLIC "-//W3C//DTD SVG 1.1//EN" "http://www.w3.org/Graphics/SVG/1.1/DTD/svg11.dtd">
<svg version="1.1" id="Layer_1" xmlns="http://www.w3.org/2000/svg" xmlns:xlink="http://www.w3.org/1999/xlink" x="0px" y="0px"
	 width="300px" height="300px" viewBox="0 0 300 300" enable-background="new 0 0 300 300" xml:space="preserve">
<g display="none">
	<g display="inline">
		<rect x="19.435" y="20.472" fill="#19647E" stroke="#FFFFFF" width="127.08" height="127.093"/>
		<rect x="55.844" y="17.724" fill="#FCFCFC" stroke="#FFFFFF" width="8.921" height="131.898"/>
		<rect x="101.184" y="17.724" fill="#FCFCFC" stroke="#FFFFFF" width="8.925" height="131.898"/>
	</g>
	<g display="inline">
		<rect x="155.111" y="20.472" fill="#EEC643" stroke="#FFFFFF" width="127.076" height="127.093"/>
		<rect x="153.051" y="56.884" fill="#FCFCFC" stroke="#FFFFFF" width="131.898" height="8.921"/>
		<rect x="153.051" y="102.225" fill="#FCFCFC" stroke="#FFFFFF" width="131.898" height="8.928"/>
	</g>
	<g display="inline">
		<rect x="156.141" y="154.779" fill="#19647E" stroke="#FFFFFF" width="127.08" height="127.086"/>
		<rect x="237.891" y="152.719" fill="#FCFCFC" stroke="#FFFFFF" width="8.921" height="131.895"/>
		<rect x="192.553" y="152.719" fill="#FCFCFC" stroke="#FFFFFF" width="8.93" height="131.895"/>
	</g>
	<g display="inline">
		<rect x="20.469" y="154.779" fill="#EEC643" stroke="#FFFFFF" width="127.076" height="127.086"/>
		<rect x="17.717" y="236.524" fill="#FCFCFC" stroke="#FFFFFF" width="131.898" height="8.922"/>
		<rect x="17.717" y="191.184" fill="#FCFCFC" stroke="#FFFFFF" width="131.898" height="8.933"/>
	</g>
</g>
<g id="combinatioon">
	<polygon fill="#EEC643" points="152.894,137.1 88.309,174.768 23.402,137.676 23.07,62.917 87.645,25.25 152.555,62.341 	"/>
	<polygon fill="#19647E" points="282.129,138.259 217.554,175.926 152.643,138.838 152.311,64.08 216.886,26.409 281.796,63.5 	"/>
	<polygon fill="#1B998B" points="217.218,250.69 152.643,288.361 87.736,251.268 87.401,176.513 151.975,138.841 216.886,175.933 	
		"/>
</g>
</svg>
