<?xml version="1.0" encoding="utf-8"?>
<!-- Generator: Adobe Illustrator 13.0.0, SVG Export Plug-In . SVG Version: 6.00 Build 14948)  -->
<!DOCTYPE svg PUBLIC "-//W3C//DTD SVG 1.1//EN" "http://www.w3.org/Graphics/SVG/1.1/DTD/svg11.dtd">
<svg version="1.1" id="Layer_1" xmlns="http://www.w3.org/2000/svg" xmlns:xlink="http://www.w3.org/1999/xlink" x="0px" y="0px"
	 width="1400px" height="500px" viewBox="0 0 1400 500" enable-background="new 0 0 1400 500" xml:space="preserve">
<linearGradient id="SVGID_1_" gradientUnits="userSpaceOnUse" x1="-682.0195" y1="2032.6484" x2="1060.0469" y2="2032.6484" gradientTransform="matrix(1 0 0 -1 517 2283.5)">
	<stop  offset="0" style="stop-color:#3A7BD5"/>
	<stop  offset="1" style="stop-color:#3A6073"/>
</linearGradient>
<rect x="-165.02" y="1.233" fill="url(#SVGID_1_)" width="1742.066" height="499.237"/>
<g>
	<circle opacity="0.02" fill="#FCFCFC" enable-background="new    " cx="272.251" cy="112.305" r="47.936"/>
	<circle opacity="0.02" fill="#FCFCFC" enable-background="new    " cx="-50.441" cy="292.357" r="38.582"/>
	<circle opacity="0.03" fill="#FCFCFC" enable-background="new    " cx="192.747" cy="285.342" r="22.214"/>
	<circle opacity="0.02" fill="#FCFCFC" enable-background="new    " cx="-50.441" cy="81.906" r="52.613"/>
	<circle opacity="0.02" fill="#FCFCFC" enable-background="new    " cx="467.502" cy="278.327" r="65.474"/>
	<path fill="none" enable-background="new    " d="M760.303,23.448c51.013,0,95.364,41.353,95.364,92.365
		s-41.352,92.364-92.364,92.364c-51.011,0-92.365-41.353-92.365-92.364S709.292,23.448,760.303,23.448z"/>
	<circle opacity="0.02" fill="#FCFCFC" enable-background="new    " cx="719.228" cy="354.023" r="46.768"/>
	<circle opacity="0.02" fill="#FCFCFC" enable-background="new    " cx="1147.961" cy="100.613" r="77.165"/>
	<circle display="none" opacity="0.1" fill="#FCFCFC" enable-background="new    " cx="440.612" cy="66.707" r="32.737"/>
	<circle opacity="0.03" fill="#FCFCFC" enable-background="new    " cx="973.755" cy="65.538" r="32.737"/>
	<circle opacity="0.03" fill="#FCFCFC" enable-background="new    " cx="1282.415" cy="264.297" r="77.166"/>
	<circle opacity="0.02" fill="#FCFCFC" enable-background="new    " cx="1353.734" cy="189.47" r="43.259"/>
	<circle opacity="0.03" fill="#FCFCFC" enable-background="new    " cx="963.231" cy="295.864" r="43.26"/>
</g>
</svg>
