<?xml version="1.0" encoding="utf-8"?>
<!-- Generator: Adobe Illustrator 13.0.0, SVG Export Plug-In . SVG Version: 6.00 Build 14948)  -->
<!DOCTYPE svg PUBLIC "-//W3C//DTD SVG 1.1//EN" "http://www.w3.org/Graphics/SVG/1.1/DTD/svg11.dtd">
<svg version="1.1" id="Layer_1" xmlns="http://www.w3.org/2000/svg" xmlns:xlink="http://www.w3.org/1999/xlink" x="0px" y="0px"
	 width="300px" height="300px" viewBox="0 0 300 300" enable-background="new 0 0 300 300" xml:space="preserve">
<g>
	<path fill="#EEC643" d="M111.121,228.869h88.498c1.578,0,2.862-1.185,2.862-2.638V78.887c0-1.455-1.278-2.639-2.862-2.639h-88.498
		c-1.578,0-2.858,1.184-2.858,2.639v147.341C108.268,227.685,109.545,228.869,111.121,228.869z"/>
	<path fill="none" stroke="#034078" stroke-width="7" d="M107.294,86.279c0-6.489,5.284-11.765,11.767-11.765h73.346
		c6.494,0,11.766,5.276,11.766,11.765v132.553c0,6.488-5.271,11.766-11.766,11.766h-32.655c0.829,0.946,1.362,2.178,1.362,3.555
		c0,2.967-2.402,5.368-5.376,5.368c-2.975,0-5.376-2.401-5.376-5.368c0-1.372,0.528-2.604,1.366-3.555h-32.664
		c-6.482,0-11.766-5.277-11.766-11.766L107.294,86.279L107.294,86.279z"/>
	<path fill="none" stroke="#034078" stroke-width="7" d="M107.016,254.699h97.441c7.772,0,14.089-6.316,14.089-14.089V64.503
		c0-7.775-6.316-14.092-14.089-14.092h-97.441c-7.765,0-14.09,6.325-14.09,14.092v176.11
		C92.928,248.383,99.242,254.699,107.016,254.699z"/>
</g>
</svg>
