<?xml version="1.0" encoding="utf-8"?>
<!-- Generator: Adobe Illustrator 13.0.0, SVG Export Plug-In . SVG Version: 6.00 Build 14948)  -->
<!DOCTYPE svg PUBLIC "-//W3C//DTD SVG 1.1//EN" "http://www.w3.org/Graphics/SVG/1.1/DTD/svg11.dtd">
<svg version="1.1" id="Layer_1" xmlns="http://www.w3.org/2000/svg" xmlns:xlink="http://www.w3.org/1999/xlink" x="0px" y="0px"
	 width="300px" height="300px" viewBox="0 0 300 300" enable-background="new 0 0 300 300" xml:space="preserve">
<g>
	<rect x="19.957" y="115.952" fill="#8F523E" width="240.467" height="161.828"/>
	<path fill="#794633" d="M136.445,123.762H21.294c0,0-3.953,20.91-0.728,23.691c2.661,2.307,4.068,2.201,7.866,2.201
		c8.393,0,15.194-6.805,15.194-15.194c0-0.629-0.048-1.252-0.124-1.856l0.333-0.909l0.177,0.01
		c-0.161,0.894-0.263,1.813-0.263,2.755c0,8.392,6.802,15.195,15.195,15.195c8.395,0,15.194-6.805,15.194-15.195
		c0-0.737-0.071-1.455-0.169-2.163l0.194-0.61l0.362,0.018c-0.168,0.894-0.263,1.812-0.263,2.755
		c0,8.389,6.806,15.194,15.195,15.194c8.393,0,15.198-6.805,15.198-15.194c0-0.792-0.081-1.556-0.194-2.308l0.113-0.465h0.467
		c-0.167,0.899-0.265,1.82-0.265,2.773c0,8.392,6.805,15.195,15.197,15.195c8.39,0,15.194-6.805,15.194-15.195
		c0-0.956-0.099-1.888-0.266-2.79L136.445,123.762z"/>
	<path fill="#794633" d="M136.567,123.762l-1.388,7.245l0.511,0.07c-0.245,1.086-0.387,2.219-0.387,3.382
		c0,8.391,6.803,15.196,15.193,15.196c8.171,0,14.82-6.455,15.164-14.537l0.17,0.026l0.015-0.154
		c0.28,8.144,6.956,14.67,15.167,14.67c7.118,0,13.076-4.898,14.726-11.505c1.652,6.602,7.608,11.505,14.724,11.505
		c7.897,0,14.383-6.023,15.124-13.727c0.733,7.704,7.225,13.727,15.119,13.727c8.001,0,14.534-6.188,15.139-14.03l0.085,0.44v-9.447
		C256.735,134.252,136.567,123.762,136.567,123.762"/>
	<rect x="112.479" y="234.213" fill="#794633" width="4.505" height="42.498"/>
	<rect x="99.598" y="234.213" fill="#794633" width="4.509" height="42.498"/>
	<rect x="88.329" y="234.213" fill="#794633" width="4.509" height="42.498"/>
	<rect x="134.443" y="234.213" fill="#794633" width="4.511" height="42.498"/>
	<rect x="145.648" y="234.213" fill="#794633" width="4.51" height="42.498"/>
	<rect x="123.175" y="234.213" fill="#794633" width="4.509" height="42.498"/>
	<rect x="75.449" y="234.213" fill="#794633" width="4.506" height="42.498"/>
	<rect x="64.181" y="234.213" fill="#794633" width="4.509" height="42.498"/>
	<rect x="51.301" y="234.213" fill="#794633" width="4.509" height="42.498"/>
	<rect x="40.031" y="234.213" fill="#794633" width="4.508" height="42.498"/>
	<rect x="30.594" y="235.381" fill="#794633" width="137.612" height="6.895"/>
	<rect x="151.517" y="133.956" fill="#794633" width="7.566" height="138.039"/>
	<rect x="19.957" y="136.708" fill="#794633" width="7.564" height="138.036"/>
	<rect x="24.607" y="115.952" fill="#CBAB77" width="11.973" height="161.828"/>
	<rect x="162.221" y="115.952" fill="#CBAB77" width="11.974" height="161.828"/>
	<rect x="30.594" y="226.076" fill="#CBAB77" width="137.612" height="9.298"/>
	<rect x="116.989" y="234.213" fill="#CBAB77" width="4.509" height="42.498"/>
	<rect x="104.113" y="234.213" fill="#CBAB77" width="4.509" height="42.498"/>
	<rect x="92.839" y="234.213" fill="#CBAB77" width="4.509" height="42.498"/>
	<rect x="138.955" y="234.213" fill="#CBAB77" width="4.51" height="42.498"/>
	<rect x="150.161" y="234.213" fill="#CBAB77" width="4.509" height="42.498"/>
	<rect x="127.688" y="234.213" fill="#CBAB77" width="4.506" height="42.498"/>
	<rect x="79.96" y="234.213" fill="#CBAB77" width="4.509" height="42.498"/>
	<rect x="68.69" y="234.213" fill="#CBAB77" width="4.508" height="42.498"/>
	<rect x="55.812" y="234.213" fill="#CBAB77" width="4.509" height="42.498"/>
	<rect x="44.542" y="234.213" fill="#CBAB77" width="4.509" height="42.498"/>
	<rect x="267.086" y="115.952" fill="#CBAB77" width="9.3" height="161.828"/>
	<rect x="19.957" y="271.994" fill="#CBAB77" width="259.349" height="5.971"/>
	<rect x="189.358" y="150.538" fill="#C36E57" width="59.055" height="121.449"/>
	<rect x="195.376" y="161.344" fill="#CBAB77" width="47.027" height="110.65"/>
	<rect x="234.563" y="161.344" fill="#AC9065" width="7.769" height="110.65"/>
	<rect x="213.426" y="186.811" fill="#AC9065" width="3.882" height="57.306"/>
	<rect x="195.306" y="161.344" fill="#AC9065" width="47.023" height="8.027"/>
	<rect x="195.306" y="186.811" fill="#AC9065" width="47.023" height="5.487"/>
	<rect x="195.306" y="248.944" fill="#AC9065" width="47.163" height="4.078"/>
	<polygon fill="#C36E57" points="244.03,186.811 244.03,181.984 220.84,181.984 216.931,181.984 193.738,181.984 193.738,186.811 
		216.931,186.811 216.931,244.116 193.738,244.116 193.738,248.944 244.03,248.944 244.03,244.116 220.84,244.116 220.84,186.811 	
		"/>
	<rect x="56.694" y="155.596" fill="#C36E57" width="83.635" height="60.629"/>
	<rect x="63.285" y="162.551" fill="#7D9EA5" width="70.46" height="47.955"/>
	<rect x="63.285" y="162.551" fill="#627E82" width="70.46" height="6.699"/>
	<rect x="127.045" y="162.81" fill="#627E82" width="6.699" height="47.757"/>
	<path fill="#E37355" d="M66.446,43.205H40.074l-33.42,75.2c-0.869,1.355-1.535,2.847-1.969,4.437l-0.593,1.331l0.275,0.016
		c-0.169,0.957-0.275,1.938-0.275,2.943c0,8.954,7.259,16.216,16.213,16.216c8.954,0,16.213-7.259,16.213-16.216
		c0-0.672-0.053-1.327-0.134-1.977L66.446,43.205z"/>
	<path fill="#F9B54A" d="M94.845,43.205H66.446l-29.928,80.973l0.41,0.021c-0.17,0.953-0.275,1.936-0.275,2.939
		c0,8.948,7.257,16.215,16.213,16.215c8.954,0,16.212-7.256,16.212-16.215c0-0.792-0.071-1.555-0.182-2.311L94.845,43.205z"/>
	<path fill="#E37355" d="M121.217,43.205H94.845L69.08,124.178l0.412,0.021c-0.179,0.953-0.278,1.936-0.278,2.939
		c0,8.948,7.26,16.215,16.213,16.215c8.953,0,16.216-7.256,16.216-16.215c0-0.843-0.084-1.66-0.209-2.461L121.217,43.205z"/>
	<path fill="#E37355" d="M173.364,43.205h-23.745l-15.416,80.249l0.549,0.07c-0.265,1.162-0.416,2.367-0.416,3.608
		c0,8.954,7.26,16.217,16.214,16.217c8.718,0,15.812-6.889,16.179-15.515l0.185,0.023L173.364,43.205z"/>
	<path fill="#F9B54A" d="M149.619,43.205h-28.402l-19.708,80.973h0.546c-0.176,0.963-0.281,1.951-0.281,2.96
		c0,8.955,7.263,16.218,16.218,16.218c8.951,0,16.212-7.259,16.212-16.218c0-1.016-0.104-2.009-0.283-2.973L149.619,43.205z"/>
	<path fill="#F9B54A" d="M198.875,123.401l-0.606-80.196h-27.264l-4.109,82.056l0.117,0.004c-0.071,0.614-0.117,1.236-0.117,1.868
		c0,8.95,7.26,16.216,16.213,16.216c8.956,0,16.217-7.26,16.217-16.216C199.325,125.846,199.158,124.602,198.875,123.401"/>
	<path fill="#E37355" d="M230.9,126.346l-7.655-83.141h-26.113l0.888,83.141h0.341c-0.017,0.265-0.042,0.521-0.042,0.792
		c0,8.948,7.264,16.215,16.218,16.215c8.952,0,16.213-7.256,16.213-16.215c0-0.266-0.029-0.524-0.039-0.792H230.9z"/>
	<path fill="#E37355" d="M261.817,43.205h-15.209l16.438,85.645c0.856,8.15,7.749,14.5,16.124,14.5
		c8.953,0,16.219-7.26,16.219-16.217C295.386,122.955,261.817,43.205,261.817,43.205"/>
	<path fill="#F9B54A" d="M261.863,121.14l-15.05-77.935h-23.768l7.701,81.832c-0.089,0.689-0.149,1.379-0.149,2.094
		c0,8.95,7.262,16.217,16.22,16.217c8.945,0,16.213-7.262,16.213-16.217C263.02,125.014,262.603,122.996,261.863,121.14"/>
</g>
</svg>
