<?xml version="1.0" encoding="utf-8"?>
<!-- Generator: Adobe Illustrator 13.0.0, SVG Export Plug-In . SVG Version: 6.00 Build 14948)  -->
<!DOCTYPE svg PUBLIC "-//W3C//DTD SVG 1.1//EN" "http://www.w3.org/Graphics/SVG/1.1/DTD/svg11.dtd">
<svg version="1.1" id="Layer_1" xmlns="http://www.w3.org/2000/svg" xmlns:xlink="http://www.w3.org/1999/xlink" x="0px" y="0px"
	 width="300px" height="300px" viewBox="0 0 300 300" enable-background="new 0 0 300 300" xml:space="preserve">
<g display="none">
	<g display="inline">
		<rect x="19.435" y="20.472" fill="#19647E" stroke="#FFFFFF" width="127.08" height="127.093"/>
		<rect x="55.844" y="17.724" fill="#FCFCFC" stroke="#FFFFFF" width="8.921" height="131.898"/>
		<rect x="101.184" y="17.724" fill="#FCFCFC" stroke="#FFFFFF" width="8.925" height="131.898"/>
	</g>
	<g display="inline">
		<rect x="155.111" y="20.472" fill="#EEC643" stroke="#FFFFFF" width="127.076" height="127.093"/>
		<rect x="153.051" y="56.884" fill="#FCFCFC" stroke="#FFFFFF" width="131.898" height="8.921"/>
		<rect x="153.051" y="102.225" fill="#FCFCFC" stroke="#FFFFFF" width="131.898" height="8.928"/>
	</g>
	<g display="inline">
		<rect x="156.141" y="154.779" fill="#19647E" stroke="#FFFFFF" width="127.08" height="127.086"/>
		<rect x="237.891" y="152.719" fill="#FCFCFC" stroke="#FFFFFF" width="8.921" height="131.895"/>
		<rect x="192.553" y="152.719" fill="#FCFCFC" stroke="#FFFFFF" width="8.93" height="131.895"/>
	</g>
	<g display="inline">
		<rect x="20.469" y="154.779" fill="#EEC643" stroke="#FFFFFF" width="127.076" height="127.086"/>
		<rect x="17.717" y="236.524" fill="#FCFCFC" stroke="#FFFFFF" width="131.898" height="8.922"/>
		<rect x="17.717" y="191.184" fill="#FCFCFC" stroke="#FFFFFF" width="131.898" height="8.933"/>
	</g>
</g>
<g>
	<path fill="#19647E" d="M171.966,86.776c0,0,1.627-5.055,6.436-10.502c4.806-5.448,12.792-11.286,25.5-12.854
		c12.704-1.557,27.39-2.286,41.609-5.782c14.221-3.494,27.985-9.761,38.854-22.419c0,0,2.08,8.978-0.824,20.291
		c-2.909,11.307-10.796,24.937-30.733,34.239c0,0,4.748,0.186,12.139-1.539c7.367-1.728,17.374-5.376,27.898-13.043
		c0,0,1.226,9.286-2.735,20.98c-3.952,11.696-13.106,25.819-33.854,35.501l10.194,2.679l10.188,2.676c0,0-4.471,4.51-11.3,9.274
		c-6.826,4.767-16.007,9.785-25.435,10.801"/>
	<g>
		<path fill="#FFFFFF" d="M237.924,158.213c3.651,23.076-2.396,45.438-15.125,62.955c-12.726,17.505-32.135,30.163-55.209,33.819
			c-23.069,3.647-45.43-2.401-62.948-15.126c-17.511-12.728-30.167-32.135-33.82-55.207c-3.651-23.071,2.398-45.434,15.126-62.95
			c12.728-17.516,32.137-30.169,55.205-33.82c23.076-3.651,45.436,2.398,62.954,15.126
			C221.62,115.733,234.273,135.14,237.924,158.213z"/>
		<path fill="#FFFFFF" d="M160.781,72.247l-24.057,3.805l-24.053,3.814c-2.235,0.353-4.409-0.232-6.112-1.472
			c-1.705-1.239-2.936-3.132-3.291-5.368l0,0l0,0c-0.357-2.243,0.235-4.419,1.469-6.123c1.234-1.704,3.13-2.935,5.374-3.291
			l24.05-3.811l24.051-3.806c2.243-0.355,4.42,0.232,6.124,1.472c1.701,1.239,2.924,3.125,3.286,5.37l0,0l0,0
			c0.356,2.243-0.239,4.417-1.468,6.121C164.915,70.663,163.026,71.894,160.781,72.247z"/>
	</g>
	<path fill="#B5B5B5" d="M144.961,259.858c-21.151,0-41.067-7.696-56.527-20.793c-15.473-13.088-26.505-31.56-29.915-53.101
		c-1.827-11.558-1.349-23.113,1.311-34.154c2.649-11.039,7.472-21.552,14.357-31.015c6.876-9.461,15.388-17.299,25.068-23.228
		c9.681-5.932,20.531-9.953,32.076-11.779c11.552-1.83,23.116-1.352,34.153,1.3c11.039,2.652,21.554,7.483,31.013,14.356
		c9.461,6.877,17.298,15.388,23.227,25.068c5.935,9.681,9.953,20.531,11.781,32.084c3.773,23.845-2.506,47.001-15.682,65.137
		c-13.186,18.138-33.271,31.269-57.128,35.04c-2.305,0.365-4.607,0.627-6.893,0.814C149.506,259.77,147.229,259.858,144.961,259.858
		z"/>
	<path fill="#19647E" d="M145.455,172.281l-5.766-35.051l-5.757-35.051c0,0-8.429,1.766-18.877,6.874
		c-10.45,5.104-22.926,13.559-31.027,26.946c-5.762,9.091-8.26,16.211-9.314,21.057c-1.058,4.845-0.676,7.42-0.676,7.42
		l35.721,3.906L145.455,172.281z"/>
	<path fill="#1B998B" d="M144.934,172.273l-34.749-3.875l-35.862-3.875l-0.272,9.416l0.86,9.424
		c0.088,0.557,0.184,1.106,0.283,1.651c0.102,0.544,0.211,1.092,0.323,1.642c12.034-2.35,23.92-4.16,35.731-5.941
		c11.809-1.787,23.543-3.555,35.283-5.824c-0.272-0.537-0.531-0.988-0.802-1.416C145.465,173.07,145.198,172.682,144.934,172.273z"
		/>
	<path fill="#EEC643" d="M215.114,161.19c-3.06-19.356-13.681-35.633-28.376-46.317c-14.688-10.679-33.451-15.753-52.812-12.69
		l5.549,35.042l5.536,35.05l-0.043-0.002l-0.045-0.003c0.271,0.4,0.531,0.799,0.801,1.207c0.275,0.422,0.534,0.87,0.801,1.415
		c-11.734,2.271-23.468,4.038-35.277,5.825c-11.811,1.786-23.698,3.589-35.731,5.942c3.811,18.452,14.546,33.872,29.042,43.929
		c14.493,10.063,32.743,14.758,51.548,11.79c19.354-3.063,35.633-13.681,46.319-28.373
		C213.104,199.314,218.176,180.549,215.114,161.19z"/>
	<path fill="#B5B5B5" d="M104.58,83.791c-2.705,0-5.253-0.988-7.234-2.66c-1.987-1.674-3.392-4.046-3.825-6.796
		c-0.486-3.053,0.318-6.017,2.006-8.334c1.685-2.321,4.253-3.998,7.309-4.481l24.05-3.811l24.051-3.805
		c1.479-0.235,2.959-0.174,4.378,0.166c1.414,0.341,2.761,0.967,3.965,1.837c1.207,0.878,2.218,1.976,2.978,3.208
		c0.749,1.239,1.272,2.633,1.509,4.112c0.232,1.469,0.171,2.951-0.175,4.369c-0.338,1.41-0.954,2.756-1.837,3.968
		c-0.87,1.205-1.968,2.214-3.208,2.972c-1.238,0.75-2.624,1.271-4.103,1.506l0,0l0,0l-24.051,3.803l-24.053,3.814
		c-0.296,0.045-0.59,0.083-0.881,0.106C105.162,83.78,104.868,83.791,104.58,83.791z"/>
	<path fill="#B5B5B5" d="M131.79,91.711c-0.719,0-1.397-0.269-1.92-0.713c-0.519-0.446-0.9-1.074-1.017-1.8l-0.935-5.915
		l-0.938-5.915c-0.125-0.812,0.085-1.6,0.532-2.225c0.443-0.617,1.127-1.063,1.947-1.188c0.817-0.125,1.605,0.08,2.219,0.525
		c0.625,0.449,1.061,1.13,1.185,1.942l0.946,5.915l0.937,5.916c0.128,0.811-0.085,1.599-0.534,2.224
		c-0.44,0.616-1.124,1.063-1.944,1.191c-0.072,0.01-0.157,0.021-0.238,0.035C131.95,91.704,131.867,91.711,131.79,91.711z"/>
	<path fill="#B5B5B5" d="M145.014,175.262c-0.056,0-0.108,0-0.165-0.006c-0.059,0-0.109-0.005-0.174-0.013l-27.939-3.122
		l-27.944-3.117c-0.819-0.09-1.527-0.507-1.994-1.101c-0.479-0.594-0.727-1.373-0.63-2.189c0.088-0.816,0.505-1.522,1.089-1.992
		c0.593-0.484,1.37-0.734,2.195-0.633l26.006,2.9l26.003,2.905l-4.217-26.646l-4.217-26.646c-0.127-0.812,0.083-1.6,0.532-2.216
		c0.443-0.624,1.126-1.071,1.938-1.2c0.826-0.125,1.613,0.088,2.223,0.537c0.614,0.446,1.057,1.129,1.186,1.941l4.521,28.577
		l4.521,28.576c0.064,0.457,0.034,0.922-0.099,1.353c-0.139,0.427-0.374,0.836-0.688,1.171c-0.286,0.287-0.628,0.52-0.985,0.685
		C145.815,175.177,145.417,175.262,145.014,175.262z"/>
	<g>
		<path fill="#FFFFFF" d="M149.613,172.281c0,1.269-0.519,2.42-1.35,3.247c-0.841,0.84-1.988,1.349-3.252,1.349
			s-2.417-0.513-3.248-1.349c-0.841-0.83-1.346-1.982-1.346-3.247c0-1.266,0.513-2.428,1.346-3.25
			c0.833-0.833,1.982-1.349,3.248-1.349c1.271,0,2.42,0.516,3.252,1.349C149.095,169.864,149.613,171.013,149.613,172.281z"/>
		<path fill="#B5B5B5" d="M145.012,179.857c-2.088,0-3.982-0.849-5.354-2.222c-1.373-1.37-2.222-3.267-2.222-5.354
			c0-2.096,0.85-3.984,2.222-5.354s3.266-2.226,5.354-2.226c2.091,0,3.984,0.858,5.354,2.226c1.377,1.371,2.225,3.261,2.225,5.354
			c0,2.086-0.856,3.984-2.225,5.354C148.996,179.009,147.103,179.857,145.012,179.857z M145.012,170.66
			c-0.446,0-0.85,0.181-1.146,0.484c-0.283,0.285-0.473,0.695-0.473,1.143c0,0.445,0.182,0.85,0.473,1.146
			c0.296,0.284,0.7,0.473,1.146,0.473c0.448,0,0.857-0.179,1.146-0.473c0.294-0.296,0.476-0.7,0.476-1.146
			c0-0.447-0.174-0.857-0.476-1.143C145.863,170.841,145.46,170.66,145.012,170.66z"/>
	</g>
	<path fill="#1B998B" d="M144.879,285.855c-31.548,0-60.154-12.827-80.872-33.553c-20.721-20.721-33.553-49.327-33.553-80.873
		c0-0.702,0.283-1.345,0.739-1.807c0.457-0.462,1.101-0.738,1.805-0.738c0.706,0,1.341,0.282,1.806,0.738
		c0.462,0.466,0.74,1.101,0.74,1.807c0,30.139,12.26,57.478,32.062,77.263c19.797,19.797,47.119,32.063,77.263,32.063
		c30.145,0,57.47-12.261,77.265-32.063c19.797-19.789,32.063-47.118,32.063-77.263c0-0.702,0.282-1.345,0.739-1.807
		s1.101-0.738,1.806-0.738s1.342,0.282,1.805,0.738c0.462,0.466,0.74,1.101,0.74,1.807c0,31.546-12.824,60.152-33.553,80.873
		C205.031,273.021,176.425,285.855,144.879,285.855z"/>
	<path fill="#1B998B" d="M24.411,184.205c-0.211,0-0.422-0.026-0.63-0.073c-0.206-0.058-0.406-0.141-0.609-0.241
		c-0.617-0.343-1.037-0.902-1.215-1.54c-0.171-0.625-0.115-1.323,0.227-1.94l4.297-7.712l4.297-7.705
		c0.216-0.396,0.518-0.716,0.892-0.935c0.369-0.225,0.793-0.364,1.236-0.379c0.454-0.008,0.881,0.09,1.271,0.285
		c0.379,0.188,0.708,0.483,0.953,0.854l4.852,7.297l4.845,7.296c0.397,0.594,0.515,1.286,0.384,1.919
		c-0.136,0.642-0.511,1.23-1.09,1.624c-0.585,0.395-1.279,0.51-1.917,0.382c-0.641-0.129-1.231-0.511-1.621-1.089l-3.693-5.554
		l-3.702-5.549l-3.277,5.875l-3.271,5.887c-0.229,0.419-0.566,0.748-0.958,0.966C25.3,184.084,24.86,184.205,24.411,184.205z"/>
</g>
</svg>
